<mxfile host="app.diagrams.net" modified="2023-12-07T14:50:38.404Z" agent="Mozilla/5.0 (Windows NT 10.0; Win64; x64) AppleWebKit/537.36 (KHTML, like Gecko) Chrome/120.0.0.0 Safari/537.36" etag="IKq3jCEsXBg8Zbu9js9h" version="22.1.7" type="gitlab" pages="4">
  <diagram name="ERD" id="_qdTkzwz17Ve_ZKjUFcM">
    <mxGraphModel dx="2360" dy="1853" grid="1" gridSize="10" guides="1" tooltips="1" connect="1" arrows="1" fold="1" page="1" pageScale="1" pageWidth="827" pageHeight="1169" math="0" shadow="0">
      <root>
        <mxCell id="0" />
        <mxCell id="1" parent="0" />
        <mxCell id="K8D4zN6mZELdabMuPcHC-1" style="edgeStyle=orthogonalEdgeStyle;rounded=0;orthogonalLoop=1;jettySize=auto;html=1;entryX=0.5;entryY=0;entryDx=0;entryDy=0;endArrow=none;endFill=0;" parent="1" source="K8D4zN6mZELdabMuPcHC-2" target="K8D4zN6mZELdabMuPcHC-42" edge="1">
          <mxGeometry relative="1" as="geometry" />
        </mxCell>
        <mxCell id="bi0tByiYKpyshFOf3-ys-4" style="edgeStyle=orthogonalEdgeStyle;rounded=0;orthogonalLoop=1;jettySize=auto;html=1;entryX=0;entryY=0.5;entryDx=0;entryDy=0;endArrow=none;endFill=0;" parent="1" source="K8D4zN6mZELdabMuPcHC-2" target="K8D4zN6mZELdabMuPcHC-12" edge="1">
          <mxGeometry relative="1" as="geometry" />
        </mxCell>
        <mxCell id="gkDvD6RS5FlcB9gsRZfM-7" style="edgeStyle=orthogonalEdgeStyle;rounded=0;orthogonalLoop=1;jettySize=auto;html=1;endArrow=classic;endFill=1;" parent="1" source="K8D4zN6mZELdabMuPcHC-2" target="ARZU7PN6Rq0PZXTNhcjr-13" edge="1">
          <mxGeometry relative="1" as="geometry">
            <Array as="points">
              <mxPoint x="10" y="250" />
              <mxPoint x="-160" y="250" />
            </Array>
          </mxGeometry>
        </mxCell>
        <mxCell id="K8D4zN6mZELdabMuPcHC-2" value="Anggota" style="rounded=0;whiteSpace=wrap;html=1;" parent="1" vertex="1">
          <mxGeometry x="-20" y="150" width="120" height="60" as="geometry" />
        </mxCell>
        <mxCell id="gkDvD6RS5FlcB9gsRZfM-26" style="edgeStyle=orthogonalEdgeStyle;rounded=0;orthogonalLoop=1;jettySize=auto;html=1;entryX=1;entryY=0.5;entryDx=0;entryDy=0;exitX=0;exitY=0.5;exitDx=0;exitDy=0;" parent="1" source="gkDvD6RS5FlcB9gsRZfM-27" target="ARZU7PN6Rq0PZXTNhcjr-13" edge="1">
          <mxGeometry relative="1" as="geometry" />
        </mxCell>
        <mxCell id="K8D4zN6mZELdabMuPcHC-3" value="Librarian" style="rounded=0;whiteSpace=wrap;html=1;" parent="1" vertex="1">
          <mxGeometry x="130" y="563" width="120" height="60" as="geometry" />
        </mxCell>
        <mxCell id="bi0tByiYKpyshFOf3-ys-3" style="rounded=0;orthogonalLoop=1;jettySize=auto;html=1;entryX=1;entryY=0.5;entryDx=0;entryDy=0;edgeStyle=orthogonalEdgeStyle;endArrow=classic;endFill=1;" parent="1" source="K8D4zN6mZELdabMuPcHC-5" target="K8D4zN6mZELdabMuPcHC-6" edge="1">
          <mxGeometry relative="1" as="geometry" />
        </mxCell>
        <mxCell id="gkDvD6RS5FlcB9gsRZfM-30" style="edgeStyle=orthogonalEdgeStyle;rounded=0;orthogonalLoop=1;jettySize=auto;html=1;entryX=1;entryY=0.5;entryDx=0;entryDy=0;" parent="1" source="K8D4zN6mZELdabMuPcHC-5" target="K8D4zN6mZELdabMuPcHC-12" edge="1">
          <mxGeometry relative="1" as="geometry">
            <Array as="points">
              <mxPoint x="850" y="110" />
              <mxPoint x="657" y="110" />
            </Array>
          </mxGeometry>
        </mxCell>
        <mxCell id="K8D4zN6mZELdabMuPcHC-5" value="Book" style="rounded=0;whiteSpace=wrap;html=1;" parent="1" vertex="1">
          <mxGeometry x="790" y="-9" width="120" height="60" as="geometry" />
        </mxCell>
        <mxCell id="K8D4zN6mZELdabMuPcHC-6" value="Category" style="rounded=0;whiteSpace=wrap;html=1;" parent="1" vertex="1">
          <mxGeometry x="405.5" y="-150" width="120" height="60" as="geometry" />
        </mxCell>
        <mxCell id="K8D4zN6mZELdabMuPcHC-7" style="edgeStyle=orthogonalEdgeStyle;rounded=0;orthogonalLoop=1;jettySize=auto;html=1;entryX=0;entryY=0.5;entryDx=0;entryDy=0;endArrow=classic;endFill=1;" parent="1" source="K8D4zN6mZELdabMuPcHC-8" target="K8D4zN6mZELdabMuPcHC-9" edge="1">
          <mxGeometry relative="1" as="geometry" />
        </mxCell>
        <mxCell id="K8D4zN6mZELdabMuPcHC-8" value="Transaksi" style="rounded=0;whiteSpace=wrap;html=1;" parent="1" vertex="1">
          <mxGeometry x="405" y="770" width="120" height="60" as="geometry" />
        </mxCell>
        <mxCell id="K8D4zN6mZELdabMuPcHC-9" value="Penalty" style="rounded=0;whiteSpace=wrap;html=1;" parent="1" vertex="1">
          <mxGeometry x="755" y="770" width="120" height="60" as="geometry" />
        </mxCell>
        <mxCell id="ARZU7PN6Rq0PZXTNhcjr-6" style="edgeStyle=orthogonalEdgeStyle;rounded=0;orthogonalLoop=1;jettySize=auto;html=1;entryX=0.5;entryY=1;entryDx=0;entryDy=0;endArrow=none;endFill=0;" parent="1" source="K8D4zN6mZELdabMuPcHC-11" target="K8D4zN6mZELdabMuPcHC-44" edge="1">
          <mxGeometry relative="1" as="geometry" />
        </mxCell>
        <mxCell id="K8D4zN6mZELdabMuPcHC-11" value="Loan" style="rounded=0;whiteSpace=wrap;html=1;" parent="1" vertex="1">
          <mxGeometry x="405" y="400" width="120" height="60" as="geometry" />
        </mxCell>
        <mxCell id="K8D4zN6mZELdabMuPcHC-12" value="BookCart&amp;nbsp;" style="rounded=0;whiteSpace=wrap;html=1;" parent="1" vertex="1">
          <mxGeometry x="405" y="81" width="120" height="60" as="geometry" />
        </mxCell>
        <mxCell id="K8D4zN6mZELdabMuPcHC-13" style="rounded=0;orthogonalLoop=1;jettySize=auto;html=1;entryX=0.5;entryY=0;entryDx=0;entryDy=0;endArrow=none;endFill=0;" parent="1" source="K8D4zN6mZELdabMuPcHC-14" target="K8D4zN6mZELdabMuPcHC-2" edge="1">
          <mxGeometry relative="1" as="geometry" />
        </mxCell>
        <mxCell id="K8D4zN6mZELdabMuPcHC-14" value="id" style="ellipse;whiteSpace=wrap;html=1;aspect=fixed;" parent="1" vertex="1">
          <mxGeometry x="-120" y="60" width="60" height="60" as="geometry" />
        </mxCell>
        <mxCell id="K8D4zN6mZELdabMuPcHC-15" style="rounded=0;orthogonalLoop=1;jettySize=auto;html=1;entryX=0.5;entryY=0;entryDx=0;entryDy=0;endArrow=none;endFill=0;" parent="1" source="K8D4zN6mZELdabMuPcHC-16" target="K8D4zN6mZELdabMuPcHC-2" edge="1">
          <mxGeometry relative="1" as="geometry" />
        </mxCell>
        <mxCell id="K8D4zN6mZELdabMuPcHC-16" value="nama" style="ellipse;whiteSpace=wrap;html=1;aspect=fixed;" parent="1" vertex="1">
          <mxGeometry x="-70" y="15" width="60" height="60" as="geometry" />
        </mxCell>
        <mxCell id="K8D4zN6mZELdabMuPcHC-17" style="rounded=0;orthogonalLoop=1;jettySize=auto;html=1;entryX=0.5;entryY=0;entryDx=0;entryDy=0;endArrow=none;endFill=0;" parent="1" source="K8D4zN6mZELdabMuPcHC-18" target="K8D4zN6mZELdabMuPcHC-2" edge="1">
          <mxGeometry relative="1" as="geometry" />
        </mxCell>
        <mxCell id="K8D4zN6mZELdabMuPcHC-18" value="nik" style="ellipse;whiteSpace=wrap;html=1;aspect=fixed;" parent="1" vertex="1">
          <mxGeometry x="13" y="15" width="60" height="60" as="geometry" />
        </mxCell>
        <mxCell id="K8D4zN6mZELdabMuPcHC-19" style="rounded=0;orthogonalLoop=1;jettySize=auto;html=1;endArrow=none;endFill=0;entryX=0.5;entryY=0;entryDx=0;entryDy=0;" parent="1" source="K8D4zN6mZELdabMuPcHC-20" target="K8D4zN6mZELdabMuPcHC-2" edge="1">
          <mxGeometry relative="1" as="geometry" />
        </mxCell>
        <mxCell id="K8D4zN6mZELdabMuPcHC-20" value="email" style="ellipse;whiteSpace=wrap;html=1;aspect=fixed;" parent="1" vertex="1">
          <mxGeometry x="91.5" y="8" width="60" height="60" as="geometry" />
        </mxCell>
        <mxCell id="K8D4zN6mZELdabMuPcHC-21" style="rounded=0;orthogonalLoop=1;jettySize=auto;html=1;endArrow=none;endFill=0;" parent="1" source="K8D4zN6mZELdabMuPcHC-22" edge="1">
          <mxGeometry relative="1" as="geometry">
            <mxPoint x="40" y="150" as="targetPoint" />
          </mxGeometry>
        </mxCell>
        <mxCell id="K8D4zN6mZELdabMuPcHC-22" value="gender" style="ellipse;whiteSpace=wrap;html=1;aspect=fixed;" parent="1" vertex="1">
          <mxGeometry x="150" y="100" width="60" height="60" as="geometry" />
        </mxCell>
        <mxCell id="K8D4zN6mZELdabMuPcHC-23" style="rounded=0;orthogonalLoop=1;jettySize=auto;html=1;entryX=0.5;entryY=0;entryDx=0;entryDy=0;endArrow=none;endFill=0;" parent="1" source="K8D4zN6mZELdabMuPcHC-24" target="K8D4zN6mZELdabMuPcHC-2" edge="1">
          <mxGeometry relative="1" as="geometry" />
        </mxCell>
        <mxCell id="K8D4zN6mZELdabMuPcHC-24" value="phone" style="ellipse;whiteSpace=wrap;html=1;aspect=fixed;" parent="1" vertex="1">
          <mxGeometry x="-170" y="110" width="60" height="60" as="geometry" />
        </mxCell>
        <mxCell id="K8D4zN6mZELdabMuPcHC-25" style="rounded=0;orthogonalLoop=1;jettySize=auto;html=1;endArrow=none;endFill=0;entryX=0.5;entryY=0;entryDx=0;entryDy=0;" parent="1" source="K8D4zN6mZELdabMuPcHC-26" target="K8D4zN6mZELdabMuPcHC-2" edge="1">
          <mxGeometry relative="1" as="geometry" />
        </mxCell>
        <mxCell id="K8D4zN6mZELdabMuPcHC-26" value="adress" style="ellipse;whiteSpace=wrap;html=1;aspect=fixed;" parent="1" vertex="1">
          <mxGeometry x="170" y="21" width="60" height="60" as="geometry" />
        </mxCell>
        <mxCell id="K8D4zN6mZELdabMuPcHC-27" style="rounded=0;orthogonalLoop=1;jettySize=auto;html=1;endArrow=none;endFill=0;" parent="1" source="K8D4zN6mZELdabMuPcHC-28" target="K8D4zN6mZELdabMuPcHC-3" edge="1">
          <mxGeometry relative="1" as="geometry" />
        </mxCell>
        <mxCell id="K8D4zN6mZELdabMuPcHC-28" value="id" style="ellipse;whiteSpace=wrap;html=1;aspect=fixed;" parent="1" vertex="1">
          <mxGeometry x="140" y="690" width="60" height="60" as="geometry" />
        </mxCell>
        <mxCell id="K8D4zN6mZELdabMuPcHC-29" value="nama" style="ellipse;whiteSpace=wrap;html=1;aspect=fixed;" parent="1" vertex="1">
          <mxGeometry x="30" y="570" width="60" height="60" as="geometry" />
        </mxCell>
        <mxCell id="K8D4zN6mZELdabMuPcHC-30" style="rounded=0;orthogonalLoop=1;jettySize=auto;html=1;endArrow=none;endFill=0;entryX=0.5;entryY=1;entryDx=0;entryDy=0;" parent="1" source="K8D4zN6mZELdabMuPcHC-31" target="K8D4zN6mZELdabMuPcHC-3" edge="1">
          <mxGeometry relative="1" as="geometry" />
        </mxCell>
        <mxCell id="K8D4zN6mZELdabMuPcHC-31" value="nip" style="ellipse;whiteSpace=wrap;html=1;aspect=fixed;" parent="1" vertex="1">
          <mxGeometry x="310" y="630" width="60" height="60" as="geometry" />
        </mxCell>
        <mxCell id="K8D4zN6mZELdabMuPcHC-32" style="rounded=0;orthogonalLoop=1;jettySize=auto;html=1;endArrow=none;endFill=0;entryX=0.5;entryY=1;entryDx=0;entryDy=0;" parent="1" source="K8D4zN6mZELdabMuPcHC-33" target="K8D4zN6mZELdabMuPcHC-3" edge="1">
          <mxGeometry relative="1" as="geometry" />
        </mxCell>
        <mxCell id="K8D4zN6mZELdabMuPcHC-33" value="email" style="ellipse;whiteSpace=wrap;html=1;aspect=fixed;" parent="1" vertex="1">
          <mxGeometry x="260" y="670" width="60" height="60" as="geometry" />
        </mxCell>
        <mxCell id="K8D4zN6mZELdabMuPcHC-34" style="rounded=0;orthogonalLoop=1;jettySize=auto;html=1;entryX=0.5;entryY=1;entryDx=0;entryDy=0;endArrow=none;endFill=0;" parent="1" target="K8D4zN6mZELdabMuPcHC-3" edge="1">
          <mxGeometry relative="1" as="geometry">
            <mxPoint x="228.23704677997944" y="712.4023020607215" as="sourcePoint" />
          </mxGeometry>
        </mxCell>
        <mxCell id="K8D4zN6mZELdabMuPcHC-35" value="gender" style="ellipse;whiteSpace=wrap;html=1;aspect=fixed;" parent="1" vertex="1">
          <mxGeometry x="200" y="690" width="60" height="60" as="geometry" />
        </mxCell>
        <mxCell id="K8D4zN6mZELdabMuPcHC-36" style="rounded=0;orthogonalLoop=1;jettySize=auto;html=1;entryX=0.5;entryY=1;entryDx=0;entryDy=0;endArrow=none;endFill=0;" parent="1" source="K8D4zN6mZELdabMuPcHC-37" target="K8D4zN6mZELdabMuPcHC-3" edge="1">
          <mxGeometry relative="1" as="geometry" />
        </mxCell>
        <mxCell id="K8D4zN6mZELdabMuPcHC-37" value="phone" style="ellipse;whiteSpace=wrap;html=1;aspect=fixed;" parent="1" vertex="1">
          <mxGeometry x="50" y="630" width="60" height="60" as="geometry" />
        </mxCell>
        <mxCell id="K8D4zN6mZELdabMuPcHC-38" style="rounded=0;orthogonalLoop=1;jettySize=auto;html=1;endArrow=none;endFill=0;entryX=0.5;entryY=1;entryDx=0;entryDy=0;" parent="1" source="K8D4zN6mZELdabMuPcHC-39" target="K8D4zN6mZELdabMuPcHC-3" edge="1">
          <mxGeometry relative="1" as="geometry">
            <mxPoint x="196.5" y="620" as="targetPoint" />
          </mxGeometry>
        </mxCell>
        <mxCell id="K8D4zN6mZELdabMuPcHC-39" value="adress" style="ellipse;whiteSpace=wrap;html=1;aspect=fixed;" parent="1" vertex="1">
          <mxGeometry x="76.5" y="690" width="60" height="60" as="geometry" />
        </mxCell>
        <mxCell id="K8D4zN6mZELdabMuPcHC-40" style="rounded=0;orthogonalLoop=1;jettySize=auto;html=1;entryX=0;entryY=0.5;entryDx=0;entryDy=0;endArrow=none;endFill=0;" parent="1" source="K8D4zN6mZELdabMuPcHC-29" target="K8D4zN6mZELdabMuPcHC-3" edge="1">
          <mxGeometry relative="1" as="geometry" />
        </mxCell>
        <mxCell id="K8D4zN6mZELdabMuPcHC-41" style="edgeStyle=orthogonalEdgeStyle;rounded=0;orthogonalLoop=1;jettySize=auto;html=1;entryX=0;entryY=0.5;entryDx=0;entryDy=0;endArrow=classic;endFill=1;" parent="1" source="K8D4zN6mZELdabMuPcHC-42" target="K8D4zN6mZELdabMuPcHC-11" edge="1">
          <mxGeometry relative="1" as="geometry" />
        </mxCell>
        <mxCell id="K8D4zN6mZELdabMuPcHC-42" value="Meminjam/&lt;br&gt;Pengembalian" style="rhombus;whiteSpace=wrap;html=1;" parent="1" vertex="1">
          <mxGeometry x="-5" y="385" width="90" height="90" as="geometry" />
        </mxCell>
        <mxCell id="ARZU7PN6Rq0PZXTNhcjr-7" style="edgeStyle=orthogonalEdgeStyle;rounded=0;orthogonalLoop=1;jettySize=auto;html=1;entryX=0.5;entryY=1;entryDx=0;entryDy=0;endArrow=none;endFill=0;" parent="1" source="K8D4zN6mZELdabMuPcHC-44" target="K8D4zN6mZELdabMuPcHC-12" edge="1">
          <mxGeometry relative="1" as="geometry" />
        </mxCell>
        <mxCell id="K8D4zN6mZELdabMuPcHC-44" value="Dipinjam" style="rhombus;whiteSpace=wrap;html=1;" parent="1" vertex="1">
          <mxGeometry x="425" y="238.75" width="80" height="80" as="geometry" />
        </mxCell>
        <mxCell id="K8D4zN6mZELdabMuPcHC-45" style="edgeStyle=orthogonalEdgeStyle;rounded=0;orthogonalLoop=1;jettySize=auto;html=1;entryX=0.5;entryY=0;entryDx=0;entryDy=0;endArrow=none;endFill=0;" parent="1" source="K8D4zN6mZELdabMuPcHC-47" target="K8D4zN6mZELdabMuPcHC-3" edge="1">
          <mxGeometry relative="1" as="geometry" />
        </mxCell>
        <mxCell id="K8D4zN6mZELdabMuPcHC-46" style="edgeStyle=orthogonalEdgeStyle;rounded=0;orthogonalLoop=1;jettySize=auto;html=1;endArrow=classic;endFill=1;" parent="1" source="K8D4zN6mZELdabMuPcHC-47" target="K8D4zN6mZELdabMuPcHC-8" edge="1">
          <mxGeometry relative="1" as="geometry">
            <Array as="points">
              <mxPoint x="465" y="690" />
              <mxPoint x="465" y="690" />
            </Array>
          </mxGeometry>
        </mxCell>
        <mxCell id="gkDvD6RS5FlcB9gsRZfM-29" style="edgeStyle=orthogonalEdgeStyle;rounded=0;orthogonalLoop=1;jettySize=auto;html=1;entryX=0.5;entryY=1;entryDx=0;entryDy=0;" parent="1" source="K8D4zN6mZELdabMuPcHC-47" target="K8D4zN6mZELdabMuPcHC-11" edge="1">
          <mxGeometry relative="1" as="geometry" />
        </mxCell>
        <mxCell id="K8D4zN6mZELdabMuPcHC-47" value="Melayani" style="rhombus;whiteSpace=wrap;html=1;" parent="1" vertex="1">
          <mxGeometry x="425" y="497" width="80" height="80" as="geometry" />
        </mxCell>
        <mxCell id="K8D4zN6mZELdabMuPcHC-48" style="rounded=0;orthogonalLoop=1;jettySize=auto;html=1;endArrow=none;endFill=0;" parent="1" source="K8D4zN6mZELdabMuPcHC-49" edge="1">
          <mxGeometry relative="1" as="geometry">
            <mxPoint x="910" y="20" as="targetPoint" />
          </mxGeometry>
        </mxCell>
        <mxCell id="K8D4zN6mZELdabMuPcHC-49" value="title" style="ellipse;whiteSpace=wrap;html=1;aspect=fixed;" parent="1" vertex="1">
          <mxGeometry x="1000" y="93.75" width="60" height="60" as="geometry" />
        </mxCell>
        <mxCell id="K8D4zN6mZELdabMuPcHC-50" style="rounded=0;orthogonalLoop=1;jettySize=auto;html=1;endArrow=none;endFill=0;entryX=0.5;entryY=0;entryDx=0;entryDy=0;" parent="1" source="K8D4zN6mZELdabMuPcHC-51" target="K8D4zN6mZELdabMuPcHC-5" edge="1">
          <mxGeometry relative="1" as="geometry" />
        </mxCell>
        <mxCell id="K8D4zN6mZELdabMuPcHC-51" value="author" style="ellipse;whiteSpace=wrap;html=1;aspect=fixed;" parent="1" vertex="1">
          <mxGeometry x="730" y="-150" width="60" height="60" as="geometry" />
        </mxCell>
        <mxCell id="K8D4zN6mZELdabMuPcHC-52" style="rounded=0;orthogonalLoop=1;jettySize=auto;html=1;entryX=0.5;entryY=0;entryDx=0;entryDy=0;endArrow=none;endFill=0;" parent="1" source="K8D4zN6mZELdabMuPcHC-53" target="K8D4zN6mZELdabMuPcHC-5" edge="1">
          <mxGeometry relative="1" as="geometry" />
        </mxCell>
        <mxCell id="K8D4zN6mZELdabMuPcHC-53" value="publisher" style="ellipse;whiteSpace=wrap;html=1;aspect=fixed;" parent="1" vertex="1">
          <mxGeometry x="800" y="-150" width="60" height="60" as="geometry" />
        </mxCell>
        <mxCell id="K8D4zN6mZELdabMuPcHC-54" style="rounded=0;orthogonalLoop=1;jettySize=auto;html=1;endArrow=none;endFill=0;" parent="1" source="K8D4zN6mZELdabMuPcHC-55" edge="1">
          <mxGeometry relative="1" as="geometry">
            <mxPoint x="910" y="20" as="targetPoint" />
          </mxGeometry>
        </mxCell>
        <mxCell id="K8D4zN6mZELdabMuPcHC-55" value="id" style="ellipse;whiteSpace=wrap;html=1;aspect=fixed;" parent="1" vertex="1">
          <mxGeometry x="940" y="170" width="60" height="60" as="geometry" />
        </mxCell>
        <mxCell id="K8D4zN6mZELdabMuPcHC-56" style="rounded=0;orthogonalLoop=1;jettySize=auto;html=1;entryX=0.5;entryY=0;entryDx=0;entryDy=0;endArrow=none;endFill=0;" parent="1" source="K8D4zN6mZELdabMuPcHC-57" target="K8D4zN6mZELdabMuPcHC-5" edge="1">
          <mxGeometry relative="1" as="geometry" />
        </mxCell>
        <mxCell id="K8D4zN6mZELdabMuPcHC-57" value="publication_date" style="ellipse;whiteSpace=wrap;html=1;aspect=fixed;" parent="1" vertex="1">
          <mxGeometry x="867" y="-160" width="90" height="90" as="geometry" />
        </mxCell>
        <mxCell id="K8D4zN6mZELdabMuPcHC-58" style="rounded=0;orthogonalLoop=1;jettySize=auto;html=1;entryX=1;entryY=0.5;entryDx=0;entryDy=0;endArrow=none;endFill=0;" parent="1" source="K8D4zN6mZELdabMuPcHC-59" target="K8D4zN6mZELdabMuPcHC-5" edge="1">
          <mxGeometry relative="1" as="geometry" />
        </mxCell>
        <mxCell id="K8D4zN6mZELdabMuPcHC-59" value="stock" style="ellipse;whiteSpace=wrap;html=1;aspect=fixed;" parent="1" vertex="1">
          <mxGeometry x="940" y="-90" width="60" height="60" as="geometry" />
        </mxCell>
        <mxCell id="K8D4zN6mZELdabMuPcHC-60" style="rounded=0;orthogonalLoop=1;jettySize=auto;html=1;entryX=1;entryY=0.5;entryDx=0;entryDy=0;endArrow=none;endFill=0;" parent="1" source="K8D4zN6mZELdabMuPcHC-61" target="K8D4zN6mZELdabMuPcHC-5" edge="1">
          <mxGeometry relative="1" as="geometry" />
        </mxCell>
        <mxCell id="K8D4zN6mZELdabMuPcHC-61" value="read" style="ellipse;whiteSpace=wrap;html=1;aspect=fixed;" parent="1" vertex="1">
          <mxGeometry x="960" y="-26.25" width="60" height="60" as="geometry" />
        </mxCell>
        <mxCell id="K8D4zN6mZELdabMuPcHC-63" value="id" style="ellipse;whiteSpace=wrap;html=1;aspect=fixed;" parent="1" vertex="1">
          <mxGeometry x="617" y="329" width="60" height="60" as="geometry" />
        </mxCell>
        <mxCell id="K8D4zN6mZELdabMuPcHC-65" value="date_borrow" style="ellipse;whiteSpace=wrap;html=1;aspect=fixed;" parent="1" vertex="1">
          <mxGeometry x="610.75" y="508.75" width="72.5" height="72.5" as="geometry" />
        </mxCell>
        <mxCell id="ARZU7PN6Rq0PZXTNhcjr-8" style="rounded=0;orthogonalLoop=1;jettySize=auto;html=1;entryX=1;entryY=0.5;entryDx=0;entryDy=0;endArrow=none;endFill=0;" parent="1" source="K8D4zN6mZELdabMuPcHC-67" target="K8D4zN6mZELdabMuPcHC-11" edge="1">
          <mxGeometry relative="1" as="geometry" />
        </mxCell>
        <mxCell id="K8D4zN6mZELdabMuPcHC-67" value="date_return" style="ellipse;whiteSpace=wrap;html=1;aspect=fixed;" parent="1" vertex="1">
          <mxGeometry x="508" y="262" width="67" height="67" as="geometry" />
        </mxCell>
        <mxCell id="K8D4zN6mZELdabMuPcHC-68" style="rounded=0;orthogonalLoop=1;jettySize=auto;html=1;entryX=0.5;entryY=1;entryDx=0;entryDy=0;endArrow=none;endFill=0;" parent="1" source="K8D4zN6mZELdabMuPcHC-69" target="K8D4zN6mZELdabMuPcHC-8" edge="1">
          <mxGeometry relative="1" as="geometry" />
        </mxCell>
        <mxCell id="K8D4zN6mZELdabMuPcHC-69" value="id" style="ellipse;whiteSpace=wrap;html=1;aspect=fixed;" parent="1" vertex="1">
          <mxGeometry x="459" y="857" width="60" height="60" as="geometry" />
        </mxCell>
        <mxCell id="K8D4zN6mZELdabMuPcHC-70" style="rounded=0;orthogonalLoop=1;jettySize=auto;html=1;entryX=0.5;entryY=1;entryDx=0;entryDy=0;endArrow=none;endFill=0;" parent="1" source="K8D4zN6mZELdabMuPcHC-71" target="K8D4zN6mZELdabMuPcHC-8" edge="1">
          <mxGeometry relative="1" as="geometry" />
        </mxCell>
        <mxCell id="K8D4zN6mZELdabMuPcHC-71" value="id_penalty" style="ellipse;whiteSpace=wrap;html=1;aspect=fixed;" parent="1" vertex="1">
          <mxGeometry x="525.5" y="857" width="60" height="60" as="geometry" />
        </mxCell>
        <mxCell id="K8D4zN6mZELdabMuPcHC-72" style="rounded=0;orthogonalLoop=1;jettySize=auto;html=1;entryX=0.5;entryY=1;entryDx=0;entryDy=0;endArrow=none;endFill=0;" parent="1" source="K8D4zN6mZELdabMuPcHC-73" target="K8D4zN6mZELdabMuPcHC-8" edge="1">
          <mxGeometry relative="1" as="geometry" />
        </mxCell>
        <mxCell id="K8D4zN6mZELdabMuPcHC-73" value="id_librarian" style="ellipse;whiteSpace=wrap;html=1;aspect=fixed;" parent="1" vertex="1">
          <mxGeometry x="595" y="837" width="60" height="60" as="geometry" />
        </mxCell>
        <mxCell id="K8D4zN6mZELdabMuPcHC-74" style="rounded=0;orthogonalLoop=1;jettySize=auto;html=1;entryX=0.5;entryY=1;entryDx=0;entryDy=0;endArrow=none;endFill=0;" parent="1" source="K8D4zN6mZELdabMuPcHC-75" target="K8D4zN6mZELdabMuPcHC-8" edge="1">
          <mxGeometry relative="1" as="geometry" />
        </mxCell>
        <mxCell id="K8D4zN6mZELdabMuPcHC-75" value="id_anggota" style="ellipse;whiteSpace=wrap;html=1;aspect=fixed;" parent="1" vertex="1">
          <mxGeometry x="395" y="857" width="60" height="60" as="geometry" />
        </mxCell>
        <mxCell id="K8D4zN6mZELdabMuPcHC-76" style="rounded=0;orthogonalLoop=1;jettySize=auto;html=1;endArrow=none;endFill=0;entryX=0.5;entryY=1;entryDx=0;entryDy=0;" parent="1" source="K8D4zN6mZELdabMuPcHC-77" target="K8D4zN6mZELdabMuPcHC-9" edge="1">
          <mxGeometry relative="1" as="geometry" />
        </mxCell>
        <mxCell id="K8D4zN6mZELdabMuPcHC-77" value="id" style="ellipse;whiteSpace=wrap;html=1;aspect=fixed;" parent="1" vertex="1">
          <mxGeometry x="695" y="857" width="60" height="60" as="geometry" />
        </mxCell>
        <mxCell id="K8D4zN6mZELdabMuPcHC-78" style="rounded=0;orthogonalLoop=1;jettySize=auto;html=1;endArrow=none;endFill=0;entryX=0.5;entryY=1;entryDx=0;entryDy=0;" parent="1" source="K8D4zN6mZELdabMuPcHC-79" target="K8D4zN6mZELdabMuPcHC-9" edge="1">
          <mxGeometry relative="1" as="geometry" />
        </mxCell>
        <mxCell id="K8D4zN6mZELdabMuPcHC-79" value="nama" style="ellipse;whiteSpace=wrap;html=1;aspect=fixed;" parent="1" vertex="1">
          <mxGeometry x="765" y="877" width="60" height="60" as="geometry" />
        </mxCell>
        <mxCell id="K8D4zN6mZELdabMuPcHC-80" style="rounded=0;orthogonalLoop=1;jettySize=auto;html=1;entryX=0.5;entryY=1;entryDx=0;entryDy=0;endArrow=none;endFill=0;" parent="1" source="K8D4zN6mZELdabMuPcHC-81" target="K8D4zN6mZELdabMuPcHC-9" edge="1">
          <mxGeometry relative="1" as="geometry" />
        </mxCell>
        <mxCell id="K8D4zN6mZELdabMuPcHC-81" value="description" style="ellipse;whiteSpace=wrap;html=1;aspect=fixed;" parent="1" vertex="1">
          <mxGeometry x="835" y="877" width="60" height="60" as="geometry" />
        </mxCell>
        <mxCell id="K8D4zN6mZELdabMuPcHC-82" style="rounded=0;orthogonalLoop=1;jettySize=auto;html=1;entryX=0.5;entryY=1;entryDx=0;entryDy=0;endArrow=none;endFill=0;" parent="1" target="K8D4zN6mZELdabMuPcHC-9" edge="1">
          <mxGeometry relative="1" as="geometry">
            <mxPoint x="897.3552412268759" y="865.348076880749" as="sourcePoint" />
          </mxGeometry>
        </mxCell>
        <mxCell id="K8D4zN6mZELdabMuPcHC-83" value="cost" style="ellipse;whiteSpace=wrap;html=1;aspect=fixed;" parent="1" vertex="1">
          <mxGeometry x="895" y="837" width="60" height="60" as="geometry" />
        </mxCell>
        <mxCell id="K8D4zN6mZELdabMuPcHC-84" style="rounded=0;orthogonalLoop=1;jettySize=auto;html=1;entryX=0.5;entryY=0;entryDx=0;entryDy=0;endArrow=none;endFill=0;" parent="1" source="K8D4zN6mZELdabMuPcHC-85" target="K8D4zN6mZELdabMuPcHC-6" edge="1">
          <mxGeometry relative="1" as="geometry" />
        </mxCell>
        <mxCell id="K8D4zN6mZELdabMuPcHC-85" value="id" style="ellipse;whiteSpace=wrap;html=1;aspect=fixed;" parent="1" vertex="1">
          <mxGeometry x="365.5" y="-240" width="60" height="60" as="geometry" />
        </mxCell>
        <mxCell id="K8D4zN6mZELdabMuPcHC-86" style="rounded=0;orthogonalLoop=1;jettySize=auto;html=1;entryX=0.5;entryY=0;entryDx=0;entryDy=0;endArrow=none;endFill=0;" parent="1" source="K8D4zN6mZELdabMuPcHC-87" target="K8D4zN6mZELdabMuPcHC-6" edge="1">
          <mxGeometry relative="1" as="geometry" />
        </mxCell>
        <mxCell id="K8D4zN6mZELdabMuPcHC-87" value="nama" style="ellipse;whiteSpace=wrap;html=1;aspect=fixed;" parent="1" vertex="1">
          <mxGeometry x="445.5" y="-250" width="60" height="60" as="geometry" />
        </mxCell>
        <mxCell id="K8D4zN6mZELdabMuPcHC-88" style="rounded=0;orthogonalLoop=1;jettySize=auto;html=1;endArrow=none;endFill=0;" parent="1" source="K8D4zN6mZELdabMuPcHC-89" edge="1">
          <mxGeometry relative="1" as="geometry">
            <mxPoint x="910" y="20" as="targetPoint" />
          </mxGeometry>
        </mxCell>
        <mxCell id="K8D4zN6mZELdabMuPcHC-89" value="id_category" style="ellipse;whiteSpace=wrap;html=1;aspect=fixed;" parent="1" vertex="1">
          <mxGeometry x="876" y="162" width="60" height="60" as="geometry" />
        </mxCell>
        <mxCell id="ARZU7PN6Rq0PZXTNhcjr-3" style="rounded=0;orthogonalLoop=1;jettySize=auto;html=1;entryX=0.5;entryY=0;entryDx=0;entryDy=0;endArrow=none;endFill=0;" parent="1" edge="1">
          <mxGeometry relative="1" as="geometry">
            <mxPoint x="380.79079492931805" y="41.76189366705398" as="sourcePoint" />
            <mxPoint x="456" y="81" as="targetPoint" />
          </mxGeometry>
        </mxCell>
        <mxCell id="K8D4zN6mZELdabMuPcHC-91" value="id" style="ellipse;whiteSpace=wrap;html=1;aspect=fixed;" parent="1" vertex="1">
          <mxGeometry x="314" y="-13" width="75" height="75" as="geometry" />
        </mxCell>
        <mxCell id="K8D4zN6mZELdabMuPcHC-93" value="id_anggota" style="ellipse;whiteSpace=wrap;html=1;aspect=fixed;" parent="1" vertex="1">
          <mxGeometry x="415" y="-15" width="75" height="75" as="geometry" />
        </mxCell>
        <mxCell id="K8D4zN6mZELdabMuPcHC-95" value="id_book" style="ellipse;whiteSpace=wrap;html=1;aspect=fixed;" parent="1" vertex="1">
          <mxGeometry x="504" y="-16.5" width="75" height="75" as="geometry" />
        </mxCell>
        <mxCell id="K8D4zN6mZELdabMuPcHC-96" style="rounded=0;orthogonalLoop=1;jettySize=auto;html=1;entryX=1;entryY=0.5;entryDx=0;entryDy=0;endArrow=none;endFill=0;" parent="1" source="K8D4zN6mZELdabMuPcHC-97" target="K8D4zN6mZELdabMuPcHC-5" edge="1">
          <mxGeometry relative="1" as="geometry" />
        </mxCell>
        <mxCell id="K8D4zN6mZELdabMuPcHC-97" value="sumarry" style="ellipse;whiteSpace=wrap;html=1;aspect=fixed;" parent="1" vertex="1">
          <mxGeometry x="1002" y="160" width="60" height="60" as="geometry" />
        </mxCell>
        <mxCell id="K8D4zN6mZELdabMuPcHC-98" style="rounded=0;orthogonalLoop=1;jettySize=auto;html=1;endArrow=none;endFill=0;" parent="1" source="K8D4zN6mZELdabMuPcHC-99" edge="1">
          <mxGeometry relative="1" as="geometry">
            <mxPoint x="910" y="20" as="targetPoint" />
          </mxGeometry>
        </mxCell>
        <mxCell id="K8D4zN6mZELdabMuPcHC-99" value="wishlist" style="ellipse;whiteSpace=wrap;html=1;aspect=fixed;" parent="1" vertex="1">
          <mxGeometry x="990" y="33.75" width="60" height="60" as="geometry" />
        </mxCell>
        <mxCell id="K8D4zN6mZELdabMuPcHC-100" value="1" style="text;html=1;align=center;verticalAlign=middle;resizable=0;points=[];autosize=1;strokeColor=none;fillColor=none;fontStyle=1" parent="1" vertex="1">
          <mxGeometry x="41" y="361" width="30" height="30" as="geometry" />
        </mxCell>
        <mxCell id="K8D4zN6mZELdabMuPcHC-101" value="M" style="text;html=1;align=center;verticalAlign=middle;resizable=0;points=[];autosize=1;strokeColor=none;fillColor=none;fontStyle=1" parent="1" vertex="1">
          <mxGeometry x="470" y="141" width="30" height="30" as="geometry" />
        </mxCell>
        <mxCell id="K8D4zN6mZELdabMuPcHC-102" value="1" style="text;html=1;align=center;verticalAlign=middle;resizable=0;points=[];autosize=1;strokeColor=none;fillColor=none;fontStyle=1" parent="1" vertex="1">
          <mxGeometry x="470" y="370" width="30" height="30" as="geometry" />
        </mxCell>
        <mxCell id="K8D4zN6mZELdabMuPcHC-103" value="M" style="text;html=1;align=center;verticalAlign=middle;resizable=0;points=[];autosize=1;strokeColor=none;fillColor=none;fontStyle=1" parent="1" vertex="1">
          <mxGeometry x="370" y="81" width="30" height="30" as="geometry" />
        </mxCell>
        <mxCell id="K8D4zN6mZELdabMuPcHC-106" value="1" style="text;html=1;align=center;verticalAlign=middle;resizable=0;points=[];autosize=1;strokeColor=none;fillColor=none;fontStyle=1" parent="1" vertex="1">
          <mxGeometry x="106.5" y="150" width="30" height="30" as="geometry" />
        </mxCell>
        <mxCell id="K8D4zN6mZELdabMuPcHC-107" value="M" style="text;html=1;align=center;verticalAlign=middle;resizable=0;points=[];autosize=1;strokeColor=none;fillColor=none;fontStyle=1" parent="1" vertex="1">
          <mxGeometry x="534.5" y="-150" width="30" height="30" as="geometry" />
        </mxCell>
        <mxCell id="K8D4zN6mZELdabMuPcHC-109" value="1" style="text;html=1;align=center;verticalAlign=middle;resizable=0;points=[];autosize=1;strokeColor=none;fillColor=none;fontStyle=1" parent="1" vertex="1">
          <mxGeometry x="-50" y="175" width="30" height="30" as="geometry" />
        </mxCell>
        <mxCell id="K8D4zN6mZELdabMuPcHC-110" value="M" style="text;html=1;align=center;verticalAlign=middle;resizable=0;points=[];autosize=1;strokeColor=none;fillColor=none;fontStyle=1" parent="1" vertex="1">
          <mxGeometry x="380" y="770" width="30" height="30" as="geometry" />
        </mxCell>
        <mxCell id="K8D4zN6mZELdabMuPcHC-111" value="" style="edgeStyle=orthogonalEdgeStyle;fontSize=12;html=1;endArrow=ERoneToMany;rounded=0;exitX=0;exitY=0.5;exitDx=0;exitDy=0;" parent="1" target="K8D4zN6mZELdabMuPcHC-8" edge="1">
          <mxGeometry width="100" height="100" relative="1" as="geometry">
            <mxPoint x="-20" y="177" as="sourcePoint" />
            <mxPoint x="435" y="800" as="targetPoint" />
            <Array as="points">
              <mxPoint x="-450" y="177" />
              <mxPoint x="-450" y="800" />
            </Array>
          </mxGeometry>
        </mxCell>
        <mxCell id="bi0tByiYKpyshFOf3-ys-1" style="rounded=0;orthogonalLoop=1;jettySize=auto;html=1;entryX=0;entryY=0.5;entryDx=0;entryDy=0;endArrow=none;endFill=0;" parent="1" source="K8D4zN6mZELdabMuPcHC-112" target="K8D4zN6mZELdabMuPcHC-8" edge="1">
          <mxGeometry relative="1" as="geometry" />
        </mxCell>
        <mxCell id="K8D4zN6mZELdabMuPcHC-112" value="Bayar Denda" style="rhombus;whiteSpace=wrap;html=1;" parent="1" vertex="1">
          <mxGeometry x="-181" y="760" width="100" height="80" as="geometry" />
        </mxCell>
        <mxCell id="K8D4zN6mZELdabMuPcHC-113" value="1" style="text;html=1;align=center;verticalAlign=middle;resizable=0;points=[];autosize=1;strokeColor=none;fillColor=none;fontStyle=1" parent="1" vertex="1">
          <mxGeometry x="190" y="533" width="30" height="30" as="geometry" />
        </mxCell>
        <mxCell id="K8D4zN6mZELdabMuPcHC-114" value="M" style="text;html=1;align=center;verticalAlign=middle;resizable=0;points=[];autosize=1;strokeColor=none;fillColor=none;fontStyle=1" parent="1" vertex="1">
          <mxGeometry x="475" y="460" width="30" height="30" as="geometry" />
        </mxCell>
        <mxCell id="K8D4zN6mZELdabMuPcHC-115" value="M" style="text;html=1;align=center;verticalAlign=middle;resizable=0;points=[];autosize=1;strokeColor=none;fillColor=none;fontStyle=1" parent="1" vertex="1">
          <mxGeometry x="475" y="740" width="30" height="30" as="geometry" />
        </mxCell>
        <mxCell id="K8D4zN6mZELdabMuPcHC-117" value="1" style="text;html=1;align=center;verticalAlign=middle;resizable=0;points=[];autosize=1;strokeColor=none;fillColor=none;fontStyle=1" parent="1" vertex="1">
          <mxGeometry x="519.5" y="81" width="30" height="30" as="geometry" />
        </mxCell>
        <mxCell id="K8D4zN6mZELdabMuPcHC-118" value="M" style="text;html=1;align=center;verticalAlign=middle;resizable=0;points=[];autosize=1;strokeColor=none;fillColor=none;fontStyle=1" parent="1" vertex="1">
          <mxGeometry x="755" y="23" width="30" height="30" as="geometry" />
        </mxCell>
        <mxCell id="K8D4zN6mZELdabMuPcHC-119" value="1" style="text;html=1;align=center;verticalAlign=middle;resizable=0;points=[];autosize=1;strokeColor=none;fillColor=none;fontStyle=1" parent="1" vertex="1">
          <mxGeometry x="755" y="-31.25" width="30" height="30" as="geometry" />
        </mxCell>
        <mxCell id="qTcOaZ6BOqXXFfYp98lq-1" value="M" style="text;html=1;align=center;verticalAlign=middle;resizable=0;points=[];autosize=1;strokeColor=none;fillColor=none;fontStyle=1" parent="1" vertex="1">
          <mxGeometry x="370" y="400" width="30" height="30" as="geometry" />
        </mxCell>
        <mxCell id="yvdTXar2vCySYRIVYajc-1" value="M" style="text;html=1;align=center;verticalAlign=middle;resizable=0;points=[];autosize=1;strokeColor=none;fillColor=none;fontStyle=1" parent="1" vertex="1">
          <mxGeometry x="720" y="770" width="30" height="30" as="geometry" />
        </mxCell>
        <mxCell id="yvdTXar2vCySYRIVYajc-2" value="1" style="text;html=1;align=center;verticalAlign=middle;resizable=0;points=[];autosize=1;strokeColor=none;fillColor=none;fontStyle=1" parent="1" vertex="1">
          <mxGeometry x="559" y="770" width="30" height="30" as="geometry" />
        </mxCell>
        <mxCell id="ARZU7PN6Rq0PZXTNhcjr-1" value="due_borrow" style="ellipse;whiteSpace=wrap;html=1;aspect=fixed;" parent="1" vertex="1">
          <mxGeometry x="612.75" y="408" width="72.5" height="72.5" as="geometry" />
        </mxCell>
        <mxCell id="ARZU7PN6Rq0PZXTNhcjr-4" style="rounded=0;orthogonalLoop=1;jettySize=auto;html=1;entryX=0.5;entryY=0;entryDx=0;entryDy=0;endArrow=none;endFill=0;" parent="1" source="K8D4zN6mZELdabMuPcHC-93" target="K8D4zN6mZELdabMuPcHC-12" edge="1">
          <mxGeometry relative="1" as="geometry">
            <mxPoint x="390.79079492931805" y="51.76189366705398" as="sourcePoint" />
            <mxPoint x="466" y="91" as="targetPoint" />
          </mxGeometry>
        </mxCell>
        <mxCell id="ARZU7PN6Rq0PZXTNhcjr-5" style="rounded=0;orthogonalLoop=1;jettySize=auto;html=1;entryX=0.5;entryY=0;entryDx=0;entryDy=0;endArrow=none;endFill=0;" parent="1" source="K8D4zN6mZELdabMuPcHC-95" target="K8D4zN6mZELdabMuPcHC-12" edge="1">
          <mxGeometry relative="1" as="geometry">
            <mxPoint x="400.79079492931805" y="61.76189366705398" as="sourcePoint" />
            <mxPoint x="476" y="101" as="targetPoint" />
          </mxGeometry>
        </mxCell>
        <mxCell id="ARZU7PN6Rq0PZXTNhcjr-9" style="rounded=0;orthogonalLoop=1;jettySize=auto;html=1;entryX=1;entryY=0.5;entryDx=0;entryDy=0;endArrow=none;endFill=0;exitX=0;exitY=1;exitDx=0;exitDy=0;" parent="1" source="K8D4zN6mZELdabMuPcHC-63" target="K8D4zN6mZELdabMuPcHC-11" edge="1">
          <mxGeometry relative="1" as="geometry">
            <mxPoint x="567" y="345" as="sourcePoint" />
            <mxPoint x="535" y="440" as="targetPoint" />
          </mxGeometry>
        </mxCell>
        <mxCell id="ARZU7PN6Rq0PZXTNhcjr-10" style="rounded=0;orthogonalLoop=1;jettySize=auto;html=1;entryX=1;entryY=0.5;entryDx=0;entryDy=0;endArrow=none;endFill=0;" parent="1" source="ARZU7PN6Rq0PZXTNhcjr-1" target="K8D4zN6mZELdabMuPcHC-11" edge="1">
          <mxGeometry relative="1" as="geometry">
            <mxPoint x="577" y="355" as="sourcePoint" />
            <mxPoint x="545" y="450" as="targetPoint" />
          </mxGeometry>
        </mxCell>
        <mxCell id="ARZU7PN6Rq0PZXTNhcjr-12" style="rounded=0;orthogonalLoop=1;jettySize=auto;html=1;entryX=1;entryY=0.5;entryDx=0;entryDy=0;endArrow=none;endFill=0;exitX=0;exitY=0;exitDx=0;exitDy=0;" parent="1" source="K8D4zN6mZELdabMuPcHC-65" target="K8D4zN6mZELdabMuPcHC-11" edge="1">
          <mxGeometry relative="1" as="geometry">
            <mxPoint x="597" y="375" as="sourcePoint" />
            <mxPoint x="565" y="470" as="targetPoint" />
          </mxGeometry>
        </mxCell>
        <mxCell id="ARZU7PN6Rq0PZXTNhcjr-13" value="User" style="rounded=0;whiteSpace=wrap;html=1;" parent="1" vertex="1">
          <mxGeometry x="-220" y="475" width="120" height="60" as="geometry" />
        </mxCell>
        <mxCell id="gkDvD6RS5FlcB9gsRZfM-11" style="rounded=0;orthogonalLoop=1;jettySize=auto;html=1;endArrow=none;endFill=0;entryX=0;entryY=0.5;entryDx=0;entryDy=0;" parent="1" source="gkDvD6RS5FlcB9gsRZfM-2" target="ARZU7PN6Rq0PZXTNhcjr-13" edge="1">
          <mxGeometry relative="1" as="geometry" />
        </mxCell>
        <mxCell id="gkDvD6RS5FlcB9gsRZfM-2" value="id" style="ellipse;whiteSpace=wrap;html=1;aspect=fixed;" parent="1" vertex="1">
          <mxGeometry x="-370" y="503" width="60" height="60" as="geometry" />
        </mxCell>
        <mxCell id="gkDvD6RS5FlcB9gsRZfM-10" style="rounded=0;orthogonalLoop=1;jettySize=auto;html=1;entryX=0;entryY=0.5;entryDx=0;entryDy=0;endArrow=none;endFill=0;" parent="1" source="gkDvD6RS5FlcB9gsRZfM-3" target="ARZU7PN6Rq0PZXTNhcjr-13" edge="1">
          <mxGeometry relative="1" as="geometry" />
        </mxCell>
        <mxCell id="gkDvD6RS5FlcB9gsRZfM-3" value="username" style="ellipse;whiteSpace=wrap;html=1;aspect=fixed;" parent="1" vertex="1">
          <mxGeometry x="-370" y="430" width="60" height="60" as="geometry" />
        </mxCell>
        <mxCell id="gkDvD6RS5FlcB9gsRZfM-9" style="rounded=0;orthogonalLoop=1;jettySize=auto;html=1;entryX=0;entryY=0.5;entryDx=0;entryDy=0;endArrow=none;endFill=0;" parent="1" source="gkDvD6RS5FlcB9gsRZfM-4" target="ARZU7PN6Rq0PZXTNhcjr-13" edge="1">
          <mxGeometry relative="1" as="geometry" />
        </mxCell>
        <mxCell id="gkDvD6RS5FlcB9gsRZfM-4" value="password" style="ellipse;whiteSpace=wrap;html=1;aspect=fixed;" parent="1" vertex="1">
          <mxGeometry x="-320" y="370" width="60" height="60" as="geometry" />
        </mxCell>
        <mxCell id="gkDvD6RS5FlcB9gsRZfM-13" style="rounded=0;orthogonalLoop=1;jettySize=auto;html=1;entryX=0;entryY=0.5;entryDx=0;entryDy=0;endArrow=none;endFill=0;" parent="1" source="gkDvD6RS5FlcB9gsRZfM-5" target="ARZU7PN6Rq0PZXTNhcjr-13" edge="1">
          <mxGeometry relative="1" as="geometry" />
        </mxCell>
        <mxCell id="gkDvD6RS5FlcB9gsRZfM-5" value="token" style="ellipse;whiteSpace=wrap;html=1;aspect=fixed;" parent="1" vertex="1">
          <mxGeometry x="-340" y="570" width="60" height="60" as="geometry" />
        </mxCell>
        <mxCell id="gkDvD6RS5FlcB9gsRZfM-18" value="Memiliki" style="rhombus;whiteSpace=wrap;html=1;" parent="1" vertex="1">
          <mxGeometry x="-190" y="220" width="60" height="60" as="geometry" />
        </mxCell>
        <mxCell id="gkDvD6RS5FlcB9gsRZfM-19" value="1" style="text;html=1;align=center;verticalAlign=middle;resizable=0;points=[];autosize=1;strokeColor=none;fillColor=none;fontStyle=1" parent="1" vertex="1">
          <mxGeometry x="-17" y="220" width="30" height="30" as="geometry" />
        </mxCell>
        <mxCell id="gkDvD6RS5FlcB9gsRZfM-20" value="1" style="text;html=1;align=center;verticalAlign=middle;resizable=0;points=[];autosize=1;strokeColor=none;fillColor=none;fontStyle=1" parent="1" vertex="1">
          <mxGeometry x="-161" y="440" width="30" height="30" as="geometry" />
        </mxCell>
        <mxCell id="gkDvD6RS5FlcB9gsRZfM-21" value="1" style="text;html=1;align=center;verticalAlign=middle;resizable=0;points=[];autosize=1;strokeColor=none;fillColor=none;fontStyle=1" parent="1" vertex="1">
          <mxGeometry x="130" y="530" width="30" height="30" as="geometry" />
        </mxCell>
        <mxCell id="gkDvD6RS5FlcB9gsRZfM-22" value="1" style="text;html=1;align=center;verticalAlign=middle;resizable=0;points=[];autosize=1;strokeColor=none;fillColor=none;fontStyle=1" parent="1" vertex="1">
          <mxGeometry x="-92" y="470" width="30" height="30" as="geometry" />
        </mxCell>
        <mxCell id="gkDvD6RS5FlcB9gsRZfM-25" style="rounded=0;orthogonalLoop=1;jettySize=auto;html=1;entryX=1;entryY=0.5;entryDx=0;entryDy=0;endArrow=none;endFill=0;" parent="1" source="gkDvD6RS5FlcB9gsRZfM-24" target="K8D4zN6mZELdabMuPcHC-11" edge="1">
          <mxGeometry relative="1" as="geometry" />
        </mxCell>
        <mxCell id="gkDvD6RS5FlcB9gsRZfM-24" value="id_bookcart" style="ellipse;whiteSpace=wrap;html=1;aspect=fixed;" parent="1" vertex="1">
          <mxGeometry x="579" y="269" width="60" height="60" as="geometry" />
        </mxCell>
        <mxCell id="gkDvD6RS5FlcB9gsRZfM-28" value="" style="edgeStyle=orthogonalEdgeStyle;rounded=0;orthogonalLoop=1;jettySize=auto;html=1;entryX=1;entryY=0.5;entryDx=0;entryDy=0;exitX=0.25;exitY=0;exitDx=0;exitDy=0;endArrow=none;endFill=0;" parent="1" source="K8D4zN6mZELdabMuPcHC-3" target="gkDvD6RS5FlcB9gsRZfM-27" edge="1">
          <mxGeometry relative="1" as="geometry">
            <mxPoint x="160" y="563" as="sourcePoint" />
            <mxPoint x="-100" y="505" as="targetPoint" />
          </mxGeometry>
        </mxCell>
        <mxCell id="gkDvD6RS5FlcB9gsRZfM-27" value="Memiliki" style="rhombus;whiteSpace=wrap;html=1;" parent="1" vertex="1">
          <mxGeometry x="-20" y="475" width="60" height="60" as="geometry" />
        </mxCell>
        <mxCell id="Lamf_54T3BJ9ufAeIjY4-4" style="rounded=0;orthogonalLoop=1;jettySize=auto;html=1;endArrow=none;endFill=0;" parent="1" source="Lamf_54T3BJ9ufAeIjY4-1" edge="1">
          <mxGeometry relative="1" as="geometry">
            <mxPoint x="-220" y="500" as="targetPoint" />
          </mxGeometry>
        </mxCell>
        <mxCell id="Lamf_54T3BJ9ufAeIjY4-1" value="id_anggota" style="ellipse;whiteSpace=wrap;html=1;aspect=fixed;" parent="1" vertex="1">
          <mxGeometry x="-270" y="581.25" width="60" height="60" as="geometry" />
        </mxCell>
        <mxCell id="Lamf_54T3BJ9ufAeIjY4-3" style="rounded=0;orthogonalLoop=1;jettySize=auto;html=1;entryX=0;entryY=0.5;entryDx=0;entryDy=0;endArrow=none;endFill=0;" parent="1" source="Lamf_54T3BJ9ufAeIjY4-2" target="ARZU7PN6Rq0PZXTNhcjr-13" edge="1">
          <mxGeometry relative="1" as="geometry" />
        </mxCell>
        <mxCell id="Lamf_54T3BJ9ufAeIjY4-2" value="id_librarian" style="ellipse;whiteSpace=wrap;html=1;aspect=fixed;" parent="1" vertex="1">
          <mxGeometry x="-250" y="355" width="60" height="60" as="geometry" />
        </mxCell>
      </root>
    </mxGraphModel>
  </diagram>
  <diagram id="ZhPrDd98_nXOOASQUcM6" name="Activity Diagram">
    <mxGraphModel dx="906" dy="1682" grid="1" gridSize="10" guides="1" tooltips="1" connect="1" arrows="1" fold="1" page="1" pageScale="1" pageWidth="827" pageHeight="1169" math="0" shadow="0">
      <root>
        <mxCell id="0" />
        <mxCell id="1" parent="0" />
        <mxCell id="ywJBe1IRJ0UnmBbl-J05-2" value="Login Anggota" style="swimlane;whiteSpace=wrap" parent="1" vertex="1">
          <mxGeometry x="60" y="-530" width="280" height="570" as="geometry" />
        </mxCell>
        <mxCell id="ywJBe1IRJ0UnmBbl-J05-3" value="" style="ellipse;shape=startState;fillColor=#000000;strokeColor=#ff0000;" parent="ywJBe1IRJ0UnmBbl-J05-2" vertex="1">
          <mxGeometry x="100" y="92" width="30" height="30" as="geometry" />
        </mxCell>
        <mxCell id="ywJBe1IRJ0UnmBbl-J05-4" value="" style="edgeStyle=elbowEdgeStyle;elbow=horizontal;verticalAlign=bottom;endArrow=open;endSize=8;strokeColor=#FF0000;endFill=1;rounded=0" parent="ywJBe1IRJ0UnmBbl-J05-2" source="ywJBe1IRJ0UnmBbl-J05-3" target="ywJBe1IRJ0UnmBbl-J05-6" edge="1">
          <mxGeometry x="100" y="40" as="geometry">
            <mxPoint x="115" y="110" as="targetPoint" />
          </mxGeometry>
        </mxCell>
        <mxCell id="ywJBe1IRJ0UnmBbl-J05-5" style="edgeStyle=orthogonalEdgeStyle;rounded=0;orthogonalLoop=1;jettySize=auto;html=1;entryX=0.5;entryY=0;entryDx=0;entryDy=0;" parent="ywJBe1IRJ0UnmBbl-J05-2" source="ywJBe1IRJ0UnmBbl-J05-6" target="ywJBe1IRJ0UnmBbl-J05-8" edge="1">
          <mxGeometry relative="1" as="geometry" />
        </mxCell>
        <mxCell id="ywJBe1IRJ0UnmBbl-J05-6" value="Masukan email &#xa;&amp; password" style="" parent="ywJBe1IRJ0UnmBbl-J05-2" vertex="1">
          <mxGeometry x="50" y="214" width="130" height="70" as="geometry" />
        </mxCell>
        <mxCell id="ywJBe1IRJ0UnmBbl-J05-7" style="edgeStyle=orthogonalEdgeStyle;rounded=0;orthogonalLoop=1;jettySize=auto;html=1;entryX=0;entryY=0.5;entryDx=0;entryDy=0;" parent="ywJBe1IRJ0UnmBbl-J05-2" source="ywJBe1IRJ0UnmBbl-J05-8" target="ywJBe1IRJ0UnmBbl-J05-6" edge="1">
          <mxGeometry relative="1" as="geometry">
            <Array as="points">
              <mxPoint x="30" y="394" />
              <mxPoint x="30" y="249" />
            </Array>
          </mxGeometry>
        </mxCell>
        <mxCell id="ywJBe1IRJ0UnmBbl-J05-8" value="Validasi&lt;br&gt;Token" style="rhombus;whiteSpace=wrap;html=1;" parent="ywJBe1IRJ0UnmBbl-J05-2" vertex="1">
          <mxGeometry x="75" y="354" width="80" height="80" as="geometry" />
        </mxCell>
        <mxCell id="ywJBe1IRJ0UnmBbl-J05-9" value="No" style="text;html=1;align=center;verticalAlign=middle;resizable=0;points=[];autosize=1;strokeColor=none;fillColor=none;" parent="ywJBe1IRJ0UnmBbl-J05-2" vertex="1">
          <mxGeometry x="25.5" y="312" width="40" height="30" as="geometry" />
        </mxCell>
        <mxCell id="ywJBe1IRJ0UnmBbl-J05-10" value="Start" style="text;html=1;align=center;verticalAlign=middle;resizable=0;points=[];autosize=1;strokeColor=none;fillColor=none;fontStyle=1" parent="ywJBe1IRJ0UnmBbl-J05-2" vertex="1">
          <mxGeometry x="90" y="62" width="50" height="30" as="geometry" />
        </mxCell>
        <mxCell id="ywJBe1IRJ0UnmBbl-J05-11" value="Dasboard" style="swimlane;whiteSpace=wrap" parent="1" vertex="1">
          <mxGeometry x="340" y="-530" width="280" height="570" as="geometry" />
        </mxCell>
        <mxCell id="ywJBe1IRJ0UnmBbl-J05-12" style="edgeStyle=orthogonalEdgeStyle;rounded=0;orthogonalLoop=1;jettySize=auto;html=1;entryX=0.5;entryY=0;entryDx=0;entryDy=0;" parent="ywJBe1IRJ0UnmBbl-J05-11" source="ywJBe1IRJ0UnmBbl-J05-13" target="ywJBe1IRJ0UnmBbl-J05-15" edge="1">
          <mxGeometry relative="1" as="geometry" />
        </mxCell>
        <mxCell id="ywJBe1IRJ0UnmBbl-J05-13" value="Masuk menu halaman&#xa;dasboard" style="" parent="ywJBe1IRJ0UnmBbl-J05-11" vertex="1">
          <mxGeometry x="65.5" y="70" width="130" height="70" as="geometry" />
        </mxCell>
        <mxCell id="ywJBe1IRJ0UnmBbl-J05-14" style="edgeStyle=orthogonalEdgeStyle;rounded=0;orthogonalLoop=1;jettySize=auto;html=1;entryX=0.5;entryY=0;entryDx=0;entryDy=0;" parent="ywJBe1IRJ0UnmBbl-J05-11" source="ywJBe1IRJ0UnmBbl-J05-15" target="ywJBe1IRJ0UnmBbl-J05-16" edge="1">
          <mxGeometry relative="1" as="geometry" />
        </mxCell>
        <mxCell id="ywJBe1IRJ0UnmBbl-J05-15" value="Search Buku" style="" parent="ywJBe1IRJ0UnmBbl-J05-11" vertex="1">
          <mxGeometry x="65.5" y="215" width="130" height="70" as="geometry" />
        </mxCell>
        <mxCell id="ywJBe1IRJ0UnmBbl-J05-16" value="View Buku" style="" parent="ywJBe1IRJ0UnmBbl-J05-11" vertex="1">
          <mxGeometry x="65.5" y="337" width="130" height="70" as="geometry" />
        </mxCell>
        <mxCell id="ywJBe1IRJ0UnmBbl-J05-17" value="Borrow Book" style="swimlane;whiteSpace=wrap" parent="1" vertex="1">
          <mxGeometry x="620" y="-530" width="415.5" height="570" as="geometry" />
        </mxCell>
        <mxCell id="ywJBe1IRJ0UnmBbl-J05-18" style="edgeStyle=orthogonalEdgeStyle;rounded=0;orthogonalLoop=1;jettySize=auto;html=1;entryX=0.5;entryY=0;entryDx=0;entryDy=0;" parent="ywJBe1IRJ0UnmBbl-J05-17" source="ywJBe1IRJ0UnmBbl-J05-19" target="ywJBe1IRJ0UnmBbl-J05-25" edge="1">
          <mxGeometry relative="1" as="geometry" />
        </mxCell>
        <mxCell id="ywJBe1IRJ0UnmBbl-J05-19" value="Pinjam Buku" style="" parent="ywJBe1IRJ0UnmBbl-J05-17" vertex="1">
          <mxGeometry x="75" y="62" width="130" height="70" as="geometry" />
        </mxCell>
        <mxCell id="ywJBe1IRJ0UnmBbl-J05-20" style="edgeStyle=orthogonalEdgeStyle;rounded=0;orthogonalLoop=1;jettySize=auto;html=1;entryX=0.5;entryY=0;entryDx=0;entryDy=0;" parent="ywJBe1IRJ0UnmBbl-J05-17" source="ywJBe1IRJ0UnmBbl-J05-21" target="ywJBe1IRJ0UnmBbl-J05-22" edge="1">
          <mxGeometry relative="1" as="geometry" />
        </mxCell>
        <mxCell id="ywJBe1IRJ0UnmBbl-J05-21" value="Masukan data diri" style="" parent="ywJBe1IRJ0UnmBbl-J05-17" vertex="1">
          <mxGeometry x="235.5" y="361" width="130" height="70" as="geometry" />
        </mxCell>
        <mxCell id="ywJBe1IRJ0UnmBbl-J05-22" value="Tampil book report&#xa;peminjaman" style="" parent="ywJBe1IRJ0UnmBbl-J05-17" vertex="1">
          <mxGeometry x="235.5" y="482" width="130" height="70" as="geometry" />
        </mxCell>
        <mxCell id="ywJBe1IRJ0UnmBbl-J05-23" style="edgeStyle=orthogonalEdgeStyle;rounded=0;orthogonalLoop=1;jettySize=auto;html=1;" parent="ywJBe1IRJ0UnmBbl-J05-17" source="ywJBe1IRJ0UnmBbl-J05-25" target="ywJBe1IRJ0UnmBbl-J05-21" edge="1">
          <mxGeometry relative="1" as="geometry" />
        </mxCell>
        <mxCell id="ywJBe1IRJ0UnmBbl-J05-24" style="edgeStyle=orthogonalEdgeStyle;rounded=0;orthogonalLoop=1;jettySize=auto;html=1;entryX=0.5;entryY=0;entryDx=0;entryDy=0;" parent="ywJBe1IRJ0UnmBbl-J05-17" source="ywJBe1IRJ0UnmBbl-J05-25" target="ywJBe1IRJ0UnmBbl-J05-28" edge="1">
          <mxGeometry relative="1" as="geometry" />
        </mxCell>
        <mxCell id="ywJBe1IRJ0UnmBbl-J05-25" value="Stock Available&lt;br&gt;/ Not Available" style="rhombus;whiteSpace=wrap;html=1;" parent="ywJBe1IRJ0UnmBbl-J05-17" vertex="1">
          <mxGeometry x="235.5" y="181" width="130" height="138" as="geometry" />
        </mxCell>
        <mxCell id="ywJBe1IRJ0UnmBbl-J05-26" value="Not Available" style="text;html=1;align=center;verticalAlign=middle;resizable=0;points=[];autosize=1;strokeColor=none;fillColor=none;" parent="ywJBe1IRJ0UnmBbl-J05-17" vertex="1">
          <mxGeometry x="125.5" y="222" width="90" height="30" as="geometry" />
        </mxCell>
        <mxCell id="ywJBe1IRJ0UnmBbl-J05-27" value="Available" style="text;html=1;align=center;verticalAlign=middle;resizable=0;points=[];autosize=1;strokeColor=none;fillColor=none;" parent="ywJBe1IRJ0UnmBbl-J05-17" vertex="1">
          <mxGeometry x="233.5" y="330" width="70" height="30" as="geometry" />
        </mxCell>
        <mxCell id="ywJBe1IRJ0UnmBbl-J05-28" value="Masukan ke wishlist" style="" parent="ywJBe1IRJ0UnmBbl-J05-17" vertex="1">
          <mxGeometry x="55.5" y="372" width="130" height="70" as="geometry" />
        </mxCell>
        <mxCell id="ywJBe1IRJ0UnmBbl-J05-29" value="Logout" style="swimlane;whiteSpace=wrap" parent="1" vertex="1">
          <mxGeometry x="1035.5" y="-530" width="280" height="570" as="geometry" />
        </mxCell>
        <mxCell id="ywJBe1IRJ0UnmBbl-J05-30" value="" style="ellipse;shape=endState;fillColor=#000000;strokeColor=#ff0000" parent="ywJBe1IRJ0UnmBbl-J05-29" vertex="1">
          <mxGeometry x="130" y="521" width="30" height="30" as="geometry" />
        </mxCell>
        <mxCell id="ywJBe1IRJ0UnmBbl-J05-31" style="edgeStyle=orthogonalEdgeStyle;rounded=0;orthogonalLoop=1;jettySize=auto;html=1;" parent="ywJBe1IRJ0UnmBbl-J05-29" source="ywJBe1IRJ0UnmBbl-J05-32" target="ywJBe1IRJ0UnmBbl-J05-34" edge="1">
          <mxGeometry relative="1" as="geometry" />
        </mxCell>
        <mxCell id="ywJBe1IRJ0UnmBbl-J05-32" value="Kembali ke menu halaman&#xa;dasboard" style="" parent="ywJBe1IRJ0UnmBbl-J05-29" vertex="1">
          <mxGeometry x="62.5" y="82" width="165" height="98" as="geometry" />
        </mxCell>
        <mxCell id="ywJBe1IRJ0UnmBbl-J05-33" style="edgeStyle=orthogonalEdgeStyle;rounded=0;orthogonalLoop=1;jettySize=auto;html=1;entryX=0.5;entryY=0;entryDx=0;entryDy=0;" parent="ywJBe1IRJ0UnmBbl-J05-29" source="ywJBe1IRJ0UnmBbl-J05-34" target="ywJBe1IRJ0UnmBbl-J05-37" edge="1">
          <mxGeometry relative="1" as="geometry" />
        </mxCell>
        <mxCell id="ywJBe1IRJ0UnmBbl-J05-34" value="Masuk menu logout" style="" parent="ywJBe1IRJ0UnmBbl-J05-29" vertex="1">
          <mxGeometry x="62.5" y="228" width="165" height="98" as="geometry" />
        </mxCell>
        <mxCell id="ywJBe1IRJ0UnmBbl-J05-35" style="edgeStyle=orthogonalEdgeStyle;rounded=0;orthogonalLoop=1;jettySize=auto;html=1;entryX=0;entryY=0.5;entryDx=0;entryDy=0;" parent="ywJBe1IRJ0UnmBbl-J05-29" source="ywJBe1IRJ0UnmBbl-J05-37" target="ywJBe1IRJ0UnmBbl-J05-32" edge="1">
          <mxGeometry relative="1" as="geometry">
            <Array as="points">
              <mxPoint x="43" y="441" />
              <mxPoint x="43" y="131" />
            </Array>
          </mxGeometry>
        </mxCell>
        <mxCell id="ywJBe1IRJ0UnmBbl-J05-36" style="edgeStyle=orthogonalEdgeStyle;rounded=0;orthogonalLoop=1;jettySize=auto;html=1;" parent="ywJBe1IRJ0UnmBbl-J05-29" source="ywJBe1IRJ0UnmBbl-J05-37" target="ywJBe1IRJ0UnmBbl-J05-30" edge="1">
          <mxGeometry relative="1" as="geometry" />
        </mxCell>
        <mxCell id="ywJBe1IRJ0UnmBbl-J05-37" value="validasi logout" style="rhombus;whiteSpace=wrap;html=1;" parent="ywJBe1IRJ0UnmBbl-J05-29" vertex="1">
          <mxGeometry x="100" y="392" width="90" height="88" as="geometry" />
        </mxCell>
        <mxCell id="ywJBe1IRJ0UnmBbl-J05-38" value="Finish" style="text;html=1;align=center;verticalAlign=middle;resizable=0;points=[];autosize=1;strokeColor=none;fillColor=none;fontStyle=1" parent="ywJBe1IRJ0UnmBbl-J05-29" vertex="1">
          <mxGeometry x="170" y="521" width="60" height="30" as="geometry" />
        </mxCell>
        <mxCell id="ywJBe1IRJ0UnmBbl-J05-39" style="edgeStyle=orthogonalEdgeStyle;rounded=0;orthogonalLoop=1;jettySize=auto;html=1;entryX=0;entryY=0.5;entryDx=0;entryDy=0;" parent="1" source="ywJBe1IRJ0UnmBbl-J05-8" target="ywJBe1IRJ0UnmBbl-J05-13" edge="1">
          <mxGeometry relative="1" as="geometry" />
        </mxCell>
        <mxCell id="ywJBe1IRJ0UnmBbl-J05-40" style="edgeStyle=orthogonalEdgeStyle;rounded=0;orthogonalLoop=1;jettySize=auto;html=1;entryX=0;entryY=0.5;entryDx=0;entryDy=0;" parent="1" source="ywJBe1IRJ0UnmBbl-J05-16" target="ywJBe1IRJ0UnmBbl-J05-19" edge="1">
          <mxGeometry relative="1" as="geometry" />
        </mxCell>
        <mxCell id="ywJBe1IRJ0UnmBbl-J05-41" style="edgeStyle=orthogonalEdgeStyle;rounded=0;orthogonalLoop=1;jettySize=auto;html=1;entryX=0;entryY=0.5;entryDx=0;entryDy=0;" parent="1" source="ywJBe1IRJ0UnmBbl-J05-22" target="ywJBe1IRJ0UnmBbl-J05-32" edge="1">
          <mxGeometry relative="1" as="geometry">
            <Array as="points">
              <mxPoint x="1015.5" y="-21" />
              <mxPoint x="1015.5" y="-399" />
            </Array>
          </mxGeometry>
        </mxCell>
        <mxCell id="ywJBe1IRJ0UnmBbl-J05-42" style="edgeStyle=orthogonalEdgeStyle;rounded=0;orthogonalLoop=1;jettySize=auto;html=1;entryX=1;entryY=0.5;entryDx=0;entryDy=0;" parent="1" source="ywJBe1IRJ0UnmBbl-J05-28" target="ywJBe1IRJ0UnmBbl-J05-13" edge="1">
          <mxGeometry relative="1" as="geometry" />
        </mxCell>
        <mxCell id="4OZ4tKIcfKhVRxiRGylX-1" value="Login Anggota" style="swimlane;whiteSpace=wrap" parent="1" vertex="1">
          <mxGeometry x="60" y="100" width="235" height="570" as="geometry" />
        </mxCell>
        <mxCell id="4OZ4tKIcfKhVRxiRGylX-2" value="" style="ellipse;shape=startState;fillColor=#000000;strokeColor=#ff0000;" parent="4OZ4tKIcfKhVRxiRGylX-1" vertex="1">
          <mxGeometry x="100" y="92" width="30" height="30" as="geometry" />
        </mxCell>
        <mxCell id="4OZ4tKIcfKhVRxiRGylX-3" value="" style="edgeStyle=elbowEdgeStyle;elbow=horizontal;verticalAlign=bottom;endArrow=open;endSize=8;strokeColor=#FF0000;endFill=1;rounded=0" parent="4OZ4tKIcfKhVRxiRGylX-1" source="4OZ4tKIcfKhVRxiRGylX-2" target="4OZ4tKIcfKhVRxiRGylX-5" edge="1">
          <mxGeometry x="100" y="40" as="geometry">
            <mxPoint x="115" y="110" as="targetPoint" />
          </mxGeometry>
        </mxCell>
        <mxCell id="4OZ4tKIcfKhVRxiRGylX-4" style="edgeStyle=orthogonalEdgeStyle;rounded=0;orthogonalLoop=1;jettySize=auto;html=1;entryX=0.5;entryY=0;entryDx=0;entryDy=0;" parent="4OZ4tKIcfKhVRxiRGylX-1" source="4OZ4tKIcfKhVRxiRGylX-5" target="4OZ4tKIcfKhVRxiRGylX-7" edge="1">
          <mxGeometry relative="1" as="geometry" />
        </mxCell>
        <mxCell id="4OZ4tKIcfKhVRxiRGylX-5" value="Masukan email &#xa;&amp; password" style="" parent="4OZ4tKIcfKhVRxiRGylX-1" vertex="1">
          <mxGeometry x="50" y="214" width="130" height="70" as="geometry" />
        </mxCell>
        <mxCell id="4OZ4tKIcfKhVRxiRGylX-6" style="edgeStyle=orthogonalEdgeStyle;rounded=0;orthogonalLoop=1;jettySize=auto;html=1;entryX=0;entryY=0.5;entryDx=0;entryDy=0;" parent="4OZ4tKIcfKhVRxiRGylX-1" source="4OZ4tKIcfKhVRxiRGylX-7" target="4OZ4tKIcfKhVRxiRGylX-5" edge="1">
          <mxGeometry relative="1" as="geometry">
            <Array as="points">
              <mxPoint x="30" y="394" />
              <mxPoint x="30" y="249" />
            </Array>
          </mxGeometry>
        </mxCell>
        <mxCell id="4OZ4tKIcfKhVRxiRGylX-7" value="Validasi&lt;br&gt;Token" style="rhombus;whiteSpace=wrap;html=1;" parent="4OZ4tKIcfKhVRxiRGylX-1" vertex="1">
          <mxGeometry x="75" y="354" width="80" height="80" as="geometry" />
        </mxCell>
        <mxCell id="4OZ4tKIcfKhVRxiRGylX-8" value="No" style="text;html=1;align=center;verticalAlign=middle;resizable=0;points=[];autosize=1;strokeColor=none;fillColor=none;" parent="4OZ4tKIcfKhVRxiRGylX-1" vertex="1">
          <mxGeometry x="25.5" y="312" width="40" height="30" as="geometry" />
        </mxCell>
        <mxCell id="4OZ4tKIcfKhVRxiRGylX-9" value="Start" style="text;html=1;align=center;verticalAlign=middle;resizable=0;points=[];autosize=1;strokeColor=none;fillColor=none;fontStyle=1" parent="4OZ4tKIcfKhVRxiRGylX-1" vertex="1">
          <mxGeometry x="90" y="62" width="50" height="30" as="geometry" />
        </mxCell>
        <mxCell id="4OZ4tKIcfKhVRxiRGylX-10" value="Logout" style="swimlane;whiteSpace=wrap" parent="1" vertex="1">
          <mxGeometry x="590" y="100" width="260" height="570" as="geometry" />
        </mxCell>
        <mxCell id="4OZ4tKIcfKhVRxiRGylX-11" value="" style="ellipse;shape=endState;fillColor=#000000;strokeColor=#ff0000" parent="4OZ4tKIcfKhVRxiRGylX-10" vertex="1">
          <mxGeometry x="130" y="521" width="30" height="30" as="geometry" />
        </mxCell>
        <mxCell id="4OZ4tKIcfKhVRxiRGylX-12" style="edgeStyle=orthogonalEdgeStyle;rounded=0;orthogonalLoop=1;jettySize=auto;html=1;" parent="4OZ4tKIcfKhVRxiRGylX-10" source="4OZ4tKIcfKhVRxiRGylX-13" target="4OZ4tKIcfKhVRxiRGylX-15" edge="1">
          <mxGeometry relative="1" as="geometry" />
        </mxCell>
        <mxCell id="4OZ4tKIcfKhVRxiRGylX-13" value="Kembali ke menu halaman&#xa;dasboard" style="" parent="4OZ4tKIcfKhVRxiRGylX-10" vertex="1">
          <mxGeometry x="62.5" y="82" width="165" height="98" as="geometry" />
        </mxCell>
        <mxCell id="4OZ4tKIcfKhVRxiRGylX-14" style="edgeStyle=orthogonalEdgeStyle;rounded=0;orthogonalLoop=1;jettySize=auto;html=1;entryX=0.5;entryY=0;entryDx=0;entryDy=0;" parent="4OZ4tKIcfKhVRxiRGylX-10" source="4OZ4tKIcfKhVRxiRGylX-15" target="4OZ4tKIcfKhVRxiRGylX-18" edge="1">
          <mxGeometry relative="1" as="geometry" />
        </mxCell>
        <mxCell id="4OZ4tKIcfKhVRxiRGylX-15" value="Masuk menu logout" style="" parent="4OZ4tKIcfKhVRxiRGylX-10" vertex="1">
          <mxGeometry x="62.5" y="228" width="165" height="98" as="geometry" />
        </mxCell>
        <mxCell id="4OZ4tKIcfKhVRxiRGylX-16" style="edgeStyle=orthogonalEdgeStyle;rounded=0;orthogonalLoop=1;jettySize=auto;html=1;entryX=0;entryY=0.5;entryDx=0;entryDy=0;" parent="4OZ4tKIcfKhVRxiRGylX-10" source="4OZ4tKIcfKhVRxiRGylX-18" target="4OZ4tKIcfKhVRxiRGylX-13" edge="1">
          <mxGeometry relative="1" as="geometry">
            <Array as="points">
              <mxPoint x="43" y="441" />
              <mxPoint x="43" y="131" />
            </Array>
          </mxGeometry>
        </mxCell>
        <mxCell id="4OZ4tKIcfKhVRxiRGylX-17" style="edgeStyle=orthogonalEdgeStyle;rounded=0;orthogonalLoop=1;jettySize=auto;html=1;" parent="4OZ4tKIcfKhVRxiRGylX-10" source="4OZ4tKIcfKhVRxiRGylX-18" target="4OZ4tKIcfKhVRxiRGylX-11" edge="1">
          <mxGeometry relative="1" as="geometry" />
        </mxCell>
        <mxCell id="4OZ4tKIcfKhVRxiRGylX-18" value="validasi logout" style="rhombus;whiteSpace=wrap;html=1;" parent="4OZ4tKIcfKhVRxiRGylX-10" vertex="1">
          <mxGeometry x="100" y="392" width="90" height="88" as="geometry" />
        </mxCell>
        <mxCell id="4OZ4tKIcfKhVRxiRGylX-19" value="Finish" style="text;html=1;align=center;verticalAlign=middle;resizable=0;points=[];autosize=1;strokeColor=none;fillColor=none;fontStyle=1" parent="4OZ4tKIcfKhVRxiRGylX-10" vertex="1">
          <mxGeometry x="170" y="521" width="60" height="30" as="geometry" />
        </mxCell>
        <mxCell id="4OZ4tKIcfKhVRxiRGylX-20" value="Return Book" style="swimlane;whiteSpace=wrap" parent="1" vertex="1">
          <mxGeometry x="295" y="100" width="295" height="570" as="geometry" />
        </mxCell>
        <mxCell id="4OZ4tKIcfKhVRxiRGylX-21" style="edgeStyle=orthogonalEdgeStyle;rounded=0;orthogonalLoop=1;jettySize=auto;html=1;" parent="4OZ4tKIcfKhVRxiRGylX-20" source="4OZ4tKIcfKhVRxiRGylX-22" target="4OZ4tKIcfKhVRxiRGylX-24" edge="1">
          <mxGeometry relative="1" as="geometry" />
        </mxCell>
        <mxCell id="4OZ4tKIcfKhVRxiRGylX-22" value="Menu kembalikan&#xa;buku" style="" parent="4OZ4tKIcfKhVRxiRGylX-20" vertex="1">
          <mxGeometry x="80" y="180" width="130" height="70" as="geometry" />
        </mxCell>
        <mxCell id="4OZ4tKIcfKhVRxiRGylX-23" style="edgeStyle=orthogonalEdgeStyle;rounded=0;orthogonalLoop=1;jettySize=auto;html=1;entryX=0.5;entryY=0;entryDx=0;entryDy=0;" parent="4OZ4tKIcfKhVRxiRGylX-20" source="4OZ4tKIcfKhVRxiRGylX-24" target="4OZ4tKIcfKhVRxiRGylX-25" edge="1">
          <mxGeometry relative="1" as="geometry" />
        </mxCell>
        <mxCell id="4OZ4tKIcfKhVRxiRGylX-24" value="Masukan data diri" style="" parent="4OZ4tKIcfKhVRxiRGylX-20" vertex="1">
          <mxGeometry x="80" y="310" width="130" height="70" as="geometry" />
        </mxCell>
        <mxCell id="4OZ4tKIcfKhVRxiRGylX-25" value="Tampil book report&#xa;pengembalian" style="" parent="4OZ4tKIcfKhVRxiRGylX-20" vertex="1">
          <mxGeometry x="80" y="460" width="130" height="70" as="geometry" />
        </mxCell>
        <mxCell id="4OZ4tKIcfKhVRxiRGylX-26" style="edgeStyle=orthogonalEdgeStyle;rounded=0;orthogonalLoop=1;jettySize=auto;html=1;entryX=0.5;entryY=0;entryDx=0;entryDy=0;" parent="4OZ4tKIcfKhVRxiRGylX-20" source="4OZ4tKIcfKhVRxiRGylX-27" target="4OZ4tKIcfKhVRxiRGylX-22" edge="1">
          <mxGeometry relative="1" as="geometry" />
        </mxCell>
        <mxCell id="4OZ4tKIcfKhVRxiRGylX-27" value="Masuk menu halaman&#xa;dasboard" style="" parent="4OZ4tKIcfKhVRxiRGylX-20" vertex="1">
          <mxGeometry x="80" y="50" width="130" height="70" as="geometry" />
        </mxCell>
        <mxCell id="4OZ4tKIcfKhVRxiRGylX-28" style="edgeStyle=orthogonalEdgeStyle;rounded=0;orthogonalLoop=1;jettySize=auto;html=1;entryX=0;entryY=0.5;entryDx=0;entryDy=0;" parent="1" source="4OZ4tKIcfKhVRxiRGylX-7" target="4OZ4tKIcfKhVRxiRGylX-27" edge="1">
          <mxGeometry relative="1" as="geometry">
            <Array as="points">
              <mxPoint x="280" y="494" />
              <mxPoint x="280" y="185" />
            </Array>
          </mxGeometry>
        </mxCell>
        <mxCell id="4OZ4tKIcfKhVRxiRGylX-29" style="edgeStyle=orthogonalEdgeStyle;rounded=0;orthogonalLoop=1;jettySize=auto;html=1;entryX=0;entryY=0.5;entryDx=0;entryDy=0;" parent="1" source="4OZ4tKIcfKhVRxiRGylX-25" target="4OZ4tKIcfKhVRxiRGylX-13" edge="1">
          <mxGeometry relative="1" as="geometry" />
        </mxCell>
        <mxCell id="eM8MNO9FrEnldSq7B2rC-1" value="Login Librarian" style="swimlane;whiteSpace=wrap" vertex="1" parent="1">
          <mxGeometry x="60" y="760" width="280" height="570" as="geometry" />
        </mxCell>
        <mxCell id="eM8MNO9FrEnldSq7B2rC-2" value="" style="ellipse;shape=startState;fillColor=#000000;strokeColor=#ff0000;" vertex="1" parent="eM8MNO9FrEnldSq7B2rC-1">
          <mxGeometry x="100" y="92" width="30" height="30" as="geometry" />
        </mxCell>
        <mxCell id="eM8MNO9FrEnldSq7B2rC-3" value="" style="edgeStyle=elbowEdgeStyle;elbow=horizontal;verticalAlign=bottom;endArrow=open;endSize=8;strokeColor=#FF0000;endFill=1;rounded=0" edge="1" parent="eM8MNO9FrEnldSq7B2rC-1" source="eM8MNO9FrEnldSq7B2rC-2" target="eM8MNO9FrEnldSq7B2rC-5">
          <mxGeometry x="100" y="40" as="geometry">
            <mxPoint x="115" y="110" as="targetPoint" />
          </mxGeometry>
        </mxCell>
        <mxCell id="eM8MNO9FrEnldSq7B2rC-4" style="edgeStyle=orthogonalEdgeStyle;rounded=0;orthogonalLoop=1;jettySize=auto;html=1;entryX=0.5;entryY=0;entryDx=0;entryDy=0;" edge="1" parent="eM8MNO9FrEnldSq7B2rC-1" source="eM8MNO9FrEnldSq7B2rC-5" target="eM8MNO9FrEnldSq7B2rC-7">
          <mxGeometry relative="1" as="geometry" />
        </mxCell>
        <mxCell id="eM8MNO9FrEnldSq7B2rC-5" value="Masukan email &#xa;&amp; password" style="" vertex="1" parent="eM8MNO9FrEnldSq7B2rC-1">
          <mxGeometry x="50" y="214" width="130" height="70" as="geometry" />
        </mxCell>
        <mxCell id="eM8MNO9FrEnldSq7B2rC-6" style="edgeStyle=orthogonalEdgeStyle;rounded=0;orthogonalLoop=1;jettySize=auto;html=1;entryX=0;entryY=0.5;entryDx=0;entryDy=0;" edge="1" parent="eM8MNO9FrEnldSq7B2rC-1" source="eM8MNO9FrEnldSq7B2rC-7" target="eM8MNO9FrEnldSq7B2rC-5">
          <mxGeometry relative="1" as="geometry">
            <Array as="points">
              <mxPoint x="30" y="394" />
              <mxPoint x="30" y="249" />
            </Array>
          </mxGeometry>
        </mxCell>
        <mxCell id="eM8MNO9FrEnldSq7B2rC-7" value="Validasi&lt;br&gt;Token" style="rhombus;whiteSpace=wrap;html=1;" vertex="1" parent="eM8MNO9FrEnldSq7B2rC-1">
          <mxGeometry x="75" y="354" width="80" height="80" as="geometry" />
        </mxCell>
        <mxCell id="eM8MNO9FrEnldSq7B2rC-8" value="No" style="text;html=1;align=center;verticalAlign=middle;resizable=0;points=[];autosize=1;strokeColor=none;fillColor=none;" vertex="1" parent="eM8MNO9FrEnldSq7B2rC-1">
          <mxGeometry x="25.5" y="312" width="40" height="30" as="geometry" />
        </mxCell>
        <mxCell id="eM8MNO9FrEnldSq7B2rC-9" value="Start" style="text;html=1;align=center;verticalAlign=middle;resizable=0;points=[];autosize=1;strokeColor=none;fillColor=none;fontStyle=1" vertex="1" parent="eM8MNO9FrEnldSq7B2rC-1">
          <mxGeometry x="90" y="62" width="50" height="30" as="geometry" />
        </mxCell>
        <mxCell id="eM8MNO9FrEnldSq7B2rC-10" value="Dasboard" style="swimlane;whiteSpace=wrap" vertex="1" parent="1">
          <mxGeometry x="340" y="760" width="280" height="570" as="geometry" />
        </mxCell>
        <mxCell id="eM8MNO9FrEnldSq7B2rC-11" style="edgeStyle=orthogonalEdgeStyle;rounded=0;orthogonalLoop=1;jettySize=auto;html=1;entryX=0.5;entryY=0;entryDx=0;entryDy=0;" edge="1" parent="eM8MNO9FrEnldSq7B2rC-10" source="eM8MNO9FrEnldSq7B2rC-12" target="eM8MNO9FrEnldSq7B2rC-14">
          <mxGeometry relative="1" as="geometry" />
        </mxCell>
        <mxCell id="eM8MNO9FrEnldSq7B2rC-12" value="Masuk menu halaman&#xa;dasboard" style="" vertex="1" parent="eM8MNO9FrEnldSq7B2rC-10">
          <mxGeometry x="65.5" y="70" width="130" height="70" as="geometry" />
        </mxCell>
        <mxCell id="eM8MNO9FrEnldSq7B2rC-13" style="edgeStyle=orthogonalEdgeStyle;rounded=0;orthogonalLoop=1;jettySize=auto;html=1;entryX=0.5;entryY=0;entryDx=0;entryDy=0;" edge="1" parent="eM8MNO9FrEnldSq7B2rC-10" source="eM8MNO9FrEnldSq7B2rC-14" target="eM8MNO9FrEnldSq7B2rC-15">
          <mxGeometry relative="1" as="geometry" />
        </mxCell>
        <mxCell id="eM8MNO9FrEnldSq7B2rC-14" value="Add Book" style="" vertex="1" parent="eM8MNO9FrEnldSq7B2rC-10">
          <mxGeometry x="65.5" y="170" width="130" height="70" as="geometry" />
        </mxCell>
        <mxCell id="KvS89HJLWHI0jK2-F522-2" style="edgeStyle=orthogonalEdgeStyle;rounded=0;orthogonalLoop=1;jettySize=auto;html=1;" edge="1" parent="eM8MNO9FrEnldSq7B2rC-10" source="eM8MNO9FrEnldSq7B2rC-15" target="KvS89HJLWHI0jK2-F522-1">
          <mxGeometry relative="1" as="geometry" />
        </mxCell>
        <mxCell id="eM8MNO9FrEnldSq7B2rC-15" value="Edit Book" style="" vertex="1" parent="eM8MNO9FrEnldSq7B2rC-10">
          <mxGeometry x="65.5" y="290" width="130" height="70" as="geometry" />
        </mxCell>
        <mxCell id="KvS89HJLWHI0jK2-F522-1" value="Delete Book" style="" vertex="1" parent="eM8MNO9FrEnldSq7B2rC-10">
          <mxGeometry x="65.5" y="399" width="130" height="70" as="geometry" />
        </mxCell>
        <mxCell id="eM8MNO9FrEnldSq7B2rC-28" value="Logout" style="swimlane;whiteSpace=wrap" vertex="1" parent="1">
          <mxGeometry x="620" y="760" width="280" height="570" as="geometry" />
        </mxCell>
        <mxCell id="eM8MNO9FrEnldSq7B2rC-29" value="" style="ellipse;shape=endState;fillColor=#000000;strokeColor=#ff0000" vertex="1" parent="eM8MNO9FrEnldSq7B2rC-28">
          <mxGeometry x="130" y="521" width="30" height="30" as="geometry" />
        </mxCell>
        <mxCell id="eM8MNO9FrEnldSq7B2rC-30" style="edgeStyle=orthogonalEdgeStyle;rounded=0;orthogonalLoop=1;jettySize=auto;html=1;" edge="1" parent="eM8MNO9FrEnldSq7B2rC-28" source="eM8MNO9FrEnldSq7B2rC-31" target="eM8MNO9FrEnldSq7B2rC-33">
          <mxGeometry relative="1" as="geometry" />
        </mxCell>
        <mxCell id="eM8MNO9FrEnldSq7B2rC-31" value="Kembali ke menu halaman&#xa;dasboard" style="" vertex="1" parent="eM8MNO9FrEnldSq7B2rC-28">
          <mxGeometry x="62.5" y="82" width="165" height="98" as="geometry" />
        </mxCell>
        <mxCell id="eM8MNO9FrEnldSq7B2rC-32" style="edgeStyle=orthogonalEdgeStyle;rounded=0;orthogonalLoop=1;jettySize=auto;html=1;entryX=0.5;entryY=0;entryDx=0;entryDy=0;" edge="1" parent="eM8MNO9FrEnldSq7B2rC-28" source="eM8MNO9FrEnldSq7B2rC-33" target="eM8MNO9FrEnldSq7B2rC-36">
          <mxGeometry relative="1" as="geometry" />
        </mxCell>
        <mxCell id="eM8MNO9FrEnldSq7B2rC-33" value="Masuk menu logout" style="" vertex="1" parent="eM8MNO9FrEnldSq7B2rC-28">
          <mxGeometry x="62.5" y="228" width="165" height="98" as="geometry" />
        </mxCell>
        <mxCell id="eM8MNO9FrEnldSq7B2rC-34" style="edgeStyle=orthogonalEdgeStyle;rounded=0;orthogonalLoop=1;jettySize=auto;html=1;entryX=0;entryY=0.5;entryDx=0;entryDy=0;" edge="1" parent="eM8MNO9FrEnldSq7B2rC-28" source="eM8MNO9FrEnldSq7B2rC-36" target="eM8MNO9FrEnldSq7B2rC-31">
          <mxGeometry relative="1" as="geometry">
            <Array as="points">
              <mxPoint x="43" y="441" />
              <mxPoint x="43" y="131" />
            </Array>
          </mxGeometry>
        </mxCell>
        <mxCell id="eM8MNO9FrEnldSq7B2rC-35" style="edgeStyle=orthogonalEdgeStyle;rounded=0;orthogonalLoop=1;jettySize=auto;html=1;" edge="1" parent="eM8MNO9FrEnldSq7B2rC-28" source="eM8MNO9FrEnldSq7B2rC-36" target="eM8MNO9FrEnldSq7B2rC-29">
          <mxGeometry relative="1" as="geometry" />
        </mxCell>
        <mxCell id="eM8MNO9FrEnldSq7B2rC-36" value="validasi logout" style="rhombus;whiteSpace=wrap;html=1;" vertex="1" parent="eM8MNO9FrEnldSq7B2rC-28">
          <mxGeometry x="100" y="392" width="90" height="88" as="geometry" />
        </mxCell>
        <mxCell id="eM8MNO9FrEnldSq7B2rC-37" value="Finish" style="text;html=1;align=center;verticalAlign=middle;resizable=0;points=[];autosize=1;strokeColor=none;fillColor=none;fontStyle=1" vertex="1" parent="eM8MNO9FrEnldSq7B2rC-28">
          <mxGeometry x="170" y="521" width="60" height="30" as="geometry" />
        </mxCell>
        <mxCell id="eM8MNO9FrEnldSq7B2rC-38" style="edgeStyle=orthogonalEdgeStyle;rounded=0;orthogonalLoop=1;jettySize=auto;html=1;entryX=0;entryY=0.5;entryDx=0;entryDy=0;" edge="1" parent="1" source="eM8MNO9FrEnldSq7B2rC-7" target="eM8MNO9FrEnldSq7B2rC-12">
          <mxGeometry relative="1" as="geometry" />
        </mxCell>
        <mxCell id="KvS89HJLWHI0jK2-F522-3" style="edgeStyle=orthogonalEdgeStyle;rounded=0;orthogonalLoop=1;jettySize=auto;html=1;entryX=0;entryY=0.5;entryDx=0;entryDy=0;" edge="1" parent="1" source="KvS89HJLWHI0jK2-F522-1" target="eM8MNO9FrEnldSq7B2rC-31">
          <mxGeometry relative="1" as="geometry" />
        </mxCell>
        <mxCell id="KvS89HJLWHI0jK2-F522-4" value="&lt;b&gt;&lt;font style=&quot;font-size: 30px;&quot;&gt;Borrow Book&lt;/font&gt;&lt;/b&gt;" style="text;html=1;align=center;verticalAlign=middle;resizable=0;points=[];autosize=1;strokeColor=none;fillColor=none;" vertex="1" parent="1">
          <mxGeometry x="60" y="-590" width="210" height="50" as="geometry" />
        </mxCell>
        <mxCell id="KvS89HJLWHI0jK2-F522-5" value="&lt;b&gt;&lt;font style=&quot;font-size: 30px;&quot;&gt;Return Book&lt;/font&gt;&lt;/b&gt;" style="text;html=1;align=center;verticalAlign=middle;resizable=0;points=[];autosize=1;strokeColor=none;fillColor=none;" vertex="1" parent="1">
          <mxGeometry x="63" y="50" width="200" height="50" as="geometry" />
        </mxCell>
        <mxCell id="KvS89HJLWHI0jK2-F522-7" value="&lt;b&gt;&lt;font style=&quot;font-size: 30px;&quot;&gt;CRUD Librarian&lt;/font&gt;&lt;/b&gt;" style="text;html=1;align=center;verticalAlign=middle;resizable=0;points=[];autosize=1;strokeColor=none;fillColor=none;" vertex="1" parent="1">
          <mxGeometry x="52.5" y="710" width="250" height="50" as="geometry" />
        </mxCell>
        <mxCell id="KvS89HJLWHI0jK2-F522-8" value="Login Librarian" style="swimlane;whiteSpace=wrap" vertex="1" parent="1">
          <mxGeometry x="60" y="1420" width="280" height="570" as="geometry" />
        </mxCell>
        <mxCell id="KvS89HJLWHI0jK2-F522-9" value="" style="ellipse;shape=startState;fillColor=#000000;strokeColor=#ff0000;" vertex="1" parent="KvS89HJLWHI0jK2-F522-8">
          <mxGeometry x="100" y="92" width="30" height="30" as="geometry" />
        </mxCell>
        <mxCell id="KvS89HJLWHI0jK2-F522-10" value="" style="edgeStyle=elbowEdgeStyle;elbow=horizontal;verticalAlign=bottom;endArrow=open;endSize=8;strokeColor=#FF0000;endFill=1;rounded=0" edge="1" parent="KvS89HJLWHI0jK2-F522-8" source="KvS89HJLWHI0jK2-F522-9" target="KvS89HJLWHI0jK2-F522-12">
          <mxGeometry x="100" y="40" as="geometry">
            <mxPoint x="115" y="110" as="targetPoint" />
          </mxGeometry>
        </mxCell>
        <mxCell id="KvS89HJLWHI0jK2-F522-11" style="edgeStyle=orthogonalEdgeStyle;rounded=0;orthogonalLoop=1;jettySize=auto;html=1;entryX=0.5;entryY=0;entryDx=0;entryDy=0;" edge="1" parent="KvS89HJLWHI0jK2-F522-8" source="KvS89HJLWHI0jK2-F522-12" target="KvS89HJLWHI0jK2-F522-14">
          <mxGeometry relative="1" as="geometry" />
        </mxCell>
        <mxCell id="KvS89HJLWHI0jK2-F522-12" value="Masukan email &#xa;&amp; password" style="" vertex="1" parent="KvS89HJLWHI0jK2-F522-8">
          <mxGeometry x="50" y="214" width="130" height="70" as="geometry" />
        </mxCell>
        <mxCell id="KvS89HJLWHI0jK2-F522-13" style="edgeStyle=orthogonalEdgeStyle;rounded=0;orthogonalLoop=1;jettySize=auto;html=1;entryX=0;entryY=0.5;entryDx=0;entryDy=0;" edge="1" parent="KvS89HJLWHI0jK2-F522-8" source="KvS89HJLWHI0jK2-F522-14" target="KvS89HJLWHI0jK2-F522-12">
          <mxGeometry relative="1" as="geometry">
            <Array as="points">
              <mxPoint x="30" y="394" />
              <mxPoint x="30" y="249" />
            </Array>
          </mxGeometry>
        </mxCell>
        <mxCell id="KvS89HJLWHI0jK2-F522-14" value="Validasi&lt;br&gt;Token" style="rhombus;whiteSpace=wrap;html=1;" vertex="1" parent="KvS89HJLWHI0jK2-F522-8">
          <mxGeometry x="75" y="354" width="80" height="80" as="geometry" />
        </mxCell>
        <mxCell id="KvS89HJLWHI0jK2-F522-15" value="No" style="text;html=1;align=center;verticalAlign=middle;resizable=0;points=[];autosize=1;strokeColor=none;fillColor=none;" vertex="1" parent="KvS89HJLWHI0jK2-F522-8">
          <mxGeometry x="25.5" y="312" width="40" height="30" as="geometry" />
        </mxCell>
        <mxCell id="KvS89HJLWHI0jK2-F522-16" value="Start" style="text;html=1;align=center;verticalAlign=middle;resizable=0;points=[];autosize=1;strokeColor=none;fillColor=none;fontStyle=1" vertex="1" parent="KvS89HJLWHI0jK2-F522-8">
          <mxGeometry x="90" y="62" width="50" height="30" as="geometry" />
        </mxCell>
        <mxCell id="KvS89HJLWHI0jK2-F522-17" value="Dasboard" style="swimlane;whiteSpace=wrap" vertex="1" parent="1">
          <mxGeometry x="340" y="1420" width="280" height="570" as="geometry" />
        </mxCell>
        <mxCell id="KvS89HJLWHI0jK2-F522-18" style="edgeStyle=orthogonalEdgeStyle;rounded=0;orthogonalLoop=1;jettySize=auto;html=1;entryX=0.5;entryY=0;entryDx=0;entryDy=0;" edge="1" parent="KvS89HJLWHI0jK2-F522-17" source="KvS89HJLWHI0jK2-F522-19" target="KvS89HJLWHI0jK2-F522-21">
          <mxGeometry relative="1" as="geometry" />
        </mxCell>
        <mxCell id="KvS89HJLWHI0jK2-F522-19" value="Masuk menu halaman&#xa;dasboard" style="" vertex="1" parent="KvS89HJLWHI0jK2-F522-17">
          <mxGeometry x="65.5" y="70" width="130" height="70" as="geometry" />
        </mxCell>
        <mxCell id="KvS89HJLWHI0jK2-F522-20" style="edgeStyle=orthogonalEdgeStyle;rounded=0;orthogonalLoop=1;jettySize=auto;html=1;entryX=0.5;entryY=0;entryDx=0;entryDy=0;" edge="1" parent="KvS89HJLWHI0jK2-F522-17" source="KvS89HJLWHI0jK2-F522-21" target="KvS89HJLWHI0jK2-F522-23">
          <mxGeometry relative="1" as="geometry" />
        </mxCell>
        <mxCell id="KvS89HJLWHI0jK2-F522-21" value="Add Book" style="" vertex="1" parent="KvS89HJLWHI0jK2-F522-17">
          <mxGeometry x="65.5" y="170" width="130" height="70" as="geometry" />
        </mxCell>
        <mxCell id="KvS89HJLWHI0jK2-F522-22" style="edgeStyle=orthogonalEdgeStyle;rounded=0;orthogonalLoop=1;jettySize=auto;html=1;" edge="1" parent="KvS89HJLWHI0jK2-F522-17" source="KvS89HJLWHI0jK2-F522-23" target="KvS89HJLWHI0jK2-F522-24">
          <mxGeometry relative="1" as="geometry" />
        </mxCell>
        <mxCell id="KvS89HJLWHI0jK2-F522-23" value="Edit Book" style="" vertex="1" parent="KvS89HJLWHI0jK2-F522-17">
          <mxGeometry x="65.5" y="290" width="130" height="70" as="geometry" />
        </mxCell>
        <mxCell id="KvS89HJLWHI0jK2-F522-24" value="Delete Book" style="" vertex="1" parent="KvS89HJLWHI0jK2-F522-17">
          <mxGeometry x="65.5" y="399" width="130" height="70" as="geometry" />
        </mxCell>
        <mxCell id="KvS89HJLWHI0jK2-F522-25" value="Logout" style="swimlane;whiteSpace=wrap" vertex="1" parent="1">
          <mxGeometry x="620" y="1420" width="280" height="570" as="geometry" />
        </mxCell>
        <mxCell id="KvS89HJLWHI0jK2-F522-26" value="" style="ellipse;shape=endState;fillColor=#000000;strokeColor=#ff0000" vertex="1" parent="KvS89HJLWHI0jK2-F522-25">
          <mxGeometry x="130" y="521" width="30" height="30" as="geometry" />
        </mxCell>
        <mxCell id="KvS89HJLWHI0jK2-F522-27" style="edgeStyle=orthogonalEdgeStyle;rounded=0;orthogonalLoop=1;jettySize=auto;html=1;" edge="1" parent="KvS89HJLWHI0jK2-F522-25" source="KvS89HJLWHI0jK2-F522-28" target="KvS89HJLWHI0jK2-F522-30">
          <mxGeometry relative="1" as="geometry" />
        </mxCell>
        <mxCell id="KvS89HJLWHI0jK2-F522-28" value="Kembali ke menu halaman&#xa;dasboard" style="" vertex="1" parent="KvS89HJLWHI0jK2-F522-25">
          <mxGeometry x="62.5" y="82" width="165" height="98" as="geometry" />
        </mxCell>
        <mxCell id="KvS89HJLWHI0jK2-F522-29" style="edgeStyle=orthogonalEdgeStyle;rounded=0;orthogonalLoop=1;jettySize=auto;html=1;entryX=0.5;entryY=0;entryDx=0;entryDy=0;" edge="1" parent="KvS89HJLWHI0jK2-F522-25" source="KvS89HJLWHI0jK2-F522-30" target="KvS89HJLWHI0jK2-F522-33">
          <mxGeometry relative="1" as="geometry" />
        </mxCell>
        <mxCell id="KvS89HJLWHI0jK2-F522-30" value="Masuk menu logout" style="" vertex="1" parent="KvS89HJLWHI0jK2-F522-25">
          <mxGeometry x="62.5" y="228" width="165" height="98" as="geometry" />
        </mxCell>
        <mxCell id="KvS89HJLWHI0jK2-F522-31" style="edgeStyle=orthogonalEdgeStyle;rounded=0;orthogonalLoop=1;jettySize=auto;html=1;entryX=0;entryY=0.5;entryDx=0;entryDy=0;" edge="1" parent="KvS89HJLWHI0jK2-F522-25" source="KvS89HJLWHI0jK2-F522-33" target="KvS89HJLWHI0jK2-F522-28">
          <mxGeometry relative="1" as="geometry">
            <Array as="points">
              <mxPoint x="43" y="441" />
              <mxPoint x="43" y="131" />
            </Array>
          </mxGeometry>
        </mxCell>
        <mxCell id="KvS89HJLWHI0jK2-F522-32" style="edgeStyle=orthogonalEdgeStyle;rounded=0;orthogonalLoop=1;jettySize=auto;html=1;" edge="1" parent="KvS89HJLWHI0jK2-F522-25" source="KvS89HJLWHI0jK2-F522-33" target="KvS89HJLWHI0jK2-F522-26">
          <mxGeometry relative="1" as="geometry" />
        </mxCell>
        <mxCell id="KvS89HJLWHI0jK2-F522-33" value="validasi logout" style="rhombus;whiteSpace=wrap;html=1;" vertex="1" parent="KvS89HJLWHI0jK2-F522-25">
          <mxGeometry x="100" y="392" width="90" height="88" as="geometry" />
        </mxCell>
        <mxCell id="KvS89HJLWHI0jK2-F522-34" value="Finish" style="text;html=1;align=center;verticalAlign=middle;resizable=0;points=[];autosize=1;strokeColor=none;fillColor=none;fontStyle=1" vertex="1" parent="KvS89HJLWHI0jK2-F522-25">
          <mxGeometry x="170" y="521" width="60" height="30" as="geometry" />
        </mxCell>
        <mxCell id="KvS89HJLWHI0jK2-F522-35" style="edgeStyle=orthogonalEdgeStyle;rounded=0;orthogonalLoop=1;jettySize=auto;html=1;entryX=0;entryY=0.5;entryDx=0;entryDy=0;" edge="1" parent="1" source="KvS89HJLWHI0jK2-F522-14" target="KvS89HJLWHI0jK2-F522-19">
          <mxGeometry relative="1" as="geometry" />
        </mxCell>
        <mxCell id="KvS89HJLWHI0jK2-F522-36" style="edgeStyle=orthogonalEdgeStyle;rounded=0;orthogonalLoop=1;jettySize=auto;html=1;entryX=0;entryY=0.5;entryDx=0;entryDy=0;" edge="1" parent="1" source="KvS89HJLWHI0jK2-F522-24" target="KvS89HJLWHI0jK2-F522-28">
          <mxGeometry relative="1" as="geometry" />
        </mxCell>
        <mxCell id="KvS89HJLWHI0jK2-F522-37" value="&lt;b&gt;&lt;font style=&quot;font-size: 30px;&quot;&gt;Transkasi Librarian&lt;/font&gt;&lt;/b&gt;" style="text;html=1;align=center;verticalAlign=middle;resizable=0;points=[];autosize=1;strokeColor=none;fillColor=none;" vertex="1" parent="1">
          <mxGeometry x="52.5" y="1370" width="300" height="50" as="geometry" />
        </mxCell>
      </root>
    </mxGraphModel>
  </diagram>
  <diagram id="_jcogJKuEyRMj_GuTF7-" name="Entitas">
    <mxGraphModel dx="2306" dy="1853" grid="1" gridSize="10" guides="1" tooltips="1" connect="1" arrows="1" fold="1" page="1" pageScale="1" pageWidth="827" pageHeight="1169" math="0" shadow="0">
      <root>
        <mxCell id="0" />
        <mxCell id="1" parent="0" />
        <mxCell id="c-iwTXPi0jC057hrUsJh-1" value="Anggota" style="shape=table;startSize=30;container=1;collapsible=1;childLayout=tableLayout;fixedRows=1;rowLines=0;fontStyle=1;align=center;resizeLast=1;html=1;" parent="1" vertex="1">
          <mxGeometry x="110" y="45" width="180" height="240" as="geometry" />
        </mxCell>
        <mxCell id="c-iwTXPi0jC057hrUsJh-2" value="" style="shape=tableRow;horizontal=0;startSize=0;swimlaneHead=0;swimlaneBody=0;fillColor=none;collapsible=0;dropTarget=0;points=[[0,0.5],[1,0.5]];portConstraint=eastwest;top=0;left=0;right=0;bottom=1;" parent="c-iwTXPi0jC057hrUsJh-1" vertex="1">
          <mxGeometry y="30" width="180" height="30" as="geometry" />
        </mxCell>
        <mxCell id="c-iwTXPi0jC057hrUsJh-3" value="PK" style="shape=partialRectangle;connectable=0;fillColor=none;top=0;left=0;bottom=0;right=0;fontStyle=1;overflow=hidden;whiteSpace=wrap;html=1;" parent="c-iwTXPi0jC057hrUsJh-2" vertex="1">
          <mxGeometry width="30" height="30" as="geometry">
            <mxRectangle width="30" height="30" as="alternateBounds" />
          </mxGeometry>
        </mxCell>
        <mxCell id="c-iwTXPi0jC057hrUsJh-4" value="id" style="shape=partialRectangle;connectable=0;fillColor=none;top=0;left=0;bottom=0;right=0;align=left;spacingLeft=6;fontStyle=5;overflow=hidden;whiteSpace=wrap;html=1;" parent="c-iwTXPi0jC057hrUsJh-2" vertex="1">
          <mxGeometry x="30" width="150" height="30" as="geometry">
            <mxRectangle width="150" height="30" as="alternateBounds" />
          </mxGeometry>
        </mxCell>
        <mxCell id="c-iwTXPi0jC057hrUsJh-5" value="" style="shape=tableRow;horizontal=0;startSize=0;swimlaneHead=0;swimlaneBody=0;fillColor=none;collapsible=0;dropTarget=0;points=[[0,0.5],[1,0.5]];portConstraint=eastwest;top=0;left=0;right=0;bottom=0;" parent="c-iwTXPi0jC057hrUsJh-1" vertex="1">
          <mxGeometry y="60" width="180" height="30" as="geometry" />
        </mxCell>
        <mxCell id="c-iwTXPi0jC057hrUsJh-6" value="" style="shape=partialRectangle;connectable=0;fillColor=none;top=0;left=0;bottom=0;right=0;editable=1;overflow=hidden;whiteSpace=wrap;html=1;" parent="c-iwTXPi0jC057hrUsJh-5" vertex="1">
          <mxGeometry width="30" height="30" as="geometry">
            <mxRectangle width="30" height="30" as="alternateBounds" />
          </mxGeometry>
        </mxCell>
        <mxCell id="c-iwTXPi0jC057hrUsJh-7" value="nik" style="shape=partialRectangle;connectable=0;fillColor=none;top=0;left=0;bottom=0;right=0;align=left;spacingLeft=6;overflow=hidden;whiteSpace=wrap;html=1;" parent="c-iwTXPi0jC057hrUsJh-5" vertex="1">
          <mxGeometry x="30" width="150" height="30" as="geometry">
            <mxRectangle width="150" height="30" as="alternateBounds" />
          </mxGeometry>
        </mxCell>
        <mxCell id="c-iwTXPi0jC057hrUsJh-8" value="" style="shape=tableRow;horizontal=0;startSize=0;swimlaneHead=0;swimlaneBody=0;fillColor=none;collapsible=0;dropTarget=0;points=[[0,0.5],[1,0.5]];portConstraint=eastwest;top=0;left=0;right=0;bottom=0;" parent="c-iwTXPi0jC057hrUsJh-1" vertex="1">
          <mxGeometry y="90" width="180" height="30" as="geometry" />
        </mxCell>
        <mxCell id="c-iwTXPi0jC057hrUsJh-9" value="" style="shape=partialRectangle;connectable=0;fillColor=none;top=0;left=0;bottom=0;right=0;editable=1;overflow=hidden;whiteSpace=wrap;html=1;" parent="c-iwTXPi0jC057hrUsJh-8" vertex="1">
          <mxGeometry width="30" height="30" as="geometry">
            <mxRectangle width="30" height="30" as="alternateBounds" />
          </mxGeometry>
        </mxCell>
        <mxCell id="c-iwTXPi0jC057hrUsJh-10" value="name" style="shape=partialRectangle;connectable=0;fillColor=none;top=0;left=0;bottom=0;right=0;align=left;spacingLeft=6;overflow=hidden;whiteSpace=wrap;html=1;" parent="c-iwTXPi0jC057hrUsJh-8" vertex="1">
          <mxGeometry x="30" width="150" height="30" as="geometry">
            <mxRectangle width="150" height="30" as="alternateBounds" />
          </mxGeometry>
        </mxCell>
        <mxCell id="c-iwTXPi0jC057hrUsJh-11" value="" style="shape=tableRow;horizontal=0;startSize=0;swimlaneHead=0;swimlaneBody=0;fillColor=none;collapsible=0;dropTarget=0;points=[[0,0.5],[1,0.5]];portConstraint=eastwest;top=0;left=0;right=0;bottom=0;" parent="c-iwTXPi0jC057hrUsJh-1" vertex="1">
          <mxGeometry y="120" width="180" height="30" as="geometry" />
        </mxCell>
        <mxCell id="c-iwTXPi0jC057hrUsJh-12" value="" style="shape=partialRectangle;connectable=0;fillColor=none;top=0;left=0;bottom=0;right=0;editable=1;overflow=hidden;whiteSpace=wrap;html=1;" parent="c-iwTXPi0jC057hrUsJh-11" vertex="1">
          <mxGeometry width="30" height="30" as="geometry">
            <mxRectangle width="30" height="30" as="alternateBounds" />
          </mxGeometry>
        </mxCell>
        <mxCell id="c-iwTXPi0jC057hrUsJh-13" value="email" style="shape=partialRectangle;connectable=0;fillColor=none;top=0;left=0;bottom=0;right=0;align=left;spacingLeft=6;overflow=hidden;whiteSpace=wrap;html=1;" parent="c-iwTXPi0jC057hrUsJh-11" vertex="1">
          <mxGeometry x="30" width="150" height="30" as="geometry">
            <mxRectangle width="150" height="30" as="alternateBounds" />
          </mxGeometry>
        </mxCell>
        <mxCell id="yoQ4sImmGTUX0AKNua1z-1" value="" style="shape=tableRow;horizontal=0;startSize=0;swimlaneHead=0;swimlaneBody=0;fillColor=none;collapsible=0;dropTarget=0;points=[[0,0.5],[1,0.5]];portConstraint=eastwest;top=0;left=0;right=0;bottom=0;" parent="c-iwTXPi0jC057hrUsJh-1" vertex="1">
          <mxGeometry y="150" width="180" height="30" as="geometry" />
        </mxCell>
        <mxCell id="yoQ4sImmGTUX0AKNua1z-2" value="" style="shape=partialRectangle;connectable=0;fillColor=none;top=0;left=0;bottom=0;right=0;editable=1;overflow=hidden;whiteSpace=wrap;html=1;" parent="yoQ4sImmGTUX0AKNua1z-1" vertex="1">
          <mxGeometry width="30" height="30" as="geometry">
            <mxRectangle width="30" height="30" as="alternateBounds" />
          </mxGeometry>
        </mxCell>
        <mxCell id="yoQ4sImmGTUX0AKNua1z-3" value="phone" style="shape=partialRectangle;connectable=0;fillColor=none;top=0;left=0;bottom=0;right=0;align=left;spacingLeft=6;overflow=hidden;whiteSpace=wrap;html=1;" parent="yoQ4sImmGTUX0AKNua1z-1" vertex="1">
          <mxGeometry x="30" width="150" height="30" as="geometry">
            <mxRectangle width="150" height="30" as="alternateBounds" />
          </mxGeometry>
        </mxCell>
        <mxCell id="m-RghQ_CBLiI1V1CRRxm-1" value="" style="shape=tableRow;horizontal=0;startSize=0;swimlaneHead=0;swimlaneBody=0;fillColor=none;collapsible=0;dropTarget=0;points=[[0,0.5],[1,0.5]];portConstraint=eastwest;top=0;left=0;right=0;bottom=0;" parent="c-iwTXPi0jC057hrUsJh-1" vertex="1">
          <mxGeometry y="180" width="180" height="30" as="geometry" />
        </mxCell>
        <mxCell id="m-RghQ_CBLiI1V1CRRxm-2" value="" style="shape=partialRectangle;connectable=0;fillColor=none;top=0;left=0;bottom=0;right=0;editable=1;overflow=hidden;whiteSpace=wrap;html=1;" parent="m-RghQ_CBLiI1V1CRRxm-1" vertex="1">
          <mxGeometry width="30" height="30" as="geometry">
            <mxRectangle width="30" height="30" as="alternateBounds" />
          </mxGeometry>
        </mxCell>
        <mxCell id="m-RghQ_CBLiI1V1CRRxm-3" value="adress" style="shape=partialRectangle;connectable=0;fillColor=none;top=0;left=0;bottom=0;right=0;align=left;spacingLeft=6;overflow=hidden;whiteSpace=wrap;html=1;" parent="m-RghQ_CBLiI1V1CRRxm-1" vertex="1">
          <mxGeometry x="30" width="150" height="30" as="geometry">
            <mxRectangle width="150" height="30" as="alternateBounds" />
          </mxGeometry>
        </mxCell>
        <mxCell id="m-RghQ_CBLiI1V1CRRxm-4" value="" style="shape=tableRow;horizontal=0;startSize=0;swimlaneHead=0;swimlaneBody=0;fillColor=none;collapsible=0;dropTarget=0;points=[[0,0.5],[1,0.5]];portConstraint=eastwest;top=0;left=0;right=0;bottom=0;" parent="c-iwTXPi0jC057hrUsJh-1" vertex="1">
          <mxGeometry y="210" width="180" height="30" as="geometry" />
        </mxCell>
        <mxCell id="m-RghQ_CBLiI1V1CRRxm-5" value="" style="shape=partialRectangle;connectable=0;fillColor=none;top=0;left=0;bottom=0;right=0;editable=1;overflow=hidden;whiteSpace=wrap;html=1;" parent="m-RghQ_CBLiI1V1CRRxm-4" vertex="1">
          <mxGeometry width="30" height="30" as="geometry">
            <mxRectangle width="30" height="30" as="alternateBounds" />
          </mxGeometry>
        </mxCell>
        <mxCell id="m-RghQ_CBLiI1V1CRRxm-6" value="gender" style="shape=partialRectangle;connectable=0;fillColor=none;top=0;left=0;bottom=0;right=0;align=left;spacingLeft=6;overflow=hidden;whiteSpace=wrap;html=1;" parent="m-RghQ_CBLiI1V1CRRxm-4" vertex="1">
          <mxGeometry x="30" width="150" height="30" as="geometry">
            <mxRectangle width="150" height="30" as="alternateBounds" />
          </mxGeometry>
        </mxCell>
        <mxCell id="c-iwTXPi0jC057hrUsJh-14" value="Librarian" style="shape=table;startSize=30;container=1;collapsible=1;childLayout=tableLayout;fixedRows=1;rowLines=0;fontStyle=1;align=center;resizeLast=1;html=1;" parent="1" vertex="1">
          <mxGeometry x="680" y="479" width="180" height="240" as="geometry" />
        </mxCell>
        <mxCell id="c-iwTXPi0jC057hrUsJh-15" value="" style="shape=tableRow;horizontal=0;startSize=0;swimlaneHead=0;swimlaneBody=0;fillColor=none;collapsible=0;dropTarget=0;points=[[0,0.5],[1,0.5]];portConstraint=eastwest;top=0;left=0;right=0;bottom=1;" parent="c-iwTXPi0jC057hrUsJh-14" vertex="1">
          <mxGeometry y="30" width="180" height="30" as="geometry" />
        </mxCell>
        <mxCell id="c-iwTXPi0jC057hrUsJh-16" value="PK" style="shape=partialRectangle;connectable=0;fillColor=none;top=0;left=0;bottom=0;right=0;fontStyle=1;overflow=hidden;whiteSpace=wrap;html=1;" parent="c-iwTXPi0jC057hrUsJh-15" vertex="1">
          <mxGeometry width="30" height="30" as="geometry">
            <mxRectangle width="30" height="30" as="alternateBounds" />
          </mxGeometry>
        </mxCell>
        <mxCell id="c-iwTXPi0jC057hrUsJh-17" value="id" style="shape=partialRectangle;connectable=0;fillColor=none;top=0;left=0;bottom=0;right=0;align=left;spacingLeft=6;fontStyle=5;overflow=hidden;whiteSpace=wrap;html=1;" parent="c-iwTXPi0jC057hrUsJh-15" vertex="1">
          <mxGeometry x="30" width="150" height="30" as="geometry">
            <mxRectangle width="150" height="30" as="alternateBounds" />
          </mxGeometry>
        </mxCell>
        <mxCell id="c-iwTXPi0jC057hrUsJh-18" value="" style="shape=tableRow;horizontal=0;startSize=0;swimlaneHead=0;swimlaneBody=0;fillColor=none;collapsible=0;dropTarget=0;points=[[0,0.5],[1,0.5]];portConstraint=eastwest;top=0;left=0;right=0;bottom=0;" parent="c-iwTXPi0jC057hrUsJh-14" vertex="1">
          <mxGeometry y="60" width="180" height="30" as="geometry" />
        </mxCell>
        <mxCell id="c-iwTXPi0jC057hrUsJh-19" value="" style="shape=partialRectangle;connectable=0;fillColor=none;top=0;left=0;bottom=0;right=0;editable=1;overflow=hidden;whiteSpace=wrap;html=1;" parent="c-iwTXPi0jC057hrUsJh-18" vertex="1">
          <mxGeometry width="30" height="30" as="geometry">
            <mxRectangle width="30" height="30" as="alternateBounds" />
          </mxGeometry>
        </mxCell>
        <mxCell id="c-iwTXPi0jC057hrUsJh-20" value="nip" style="shape=partialRectangle;connectable=0;fillColor=none;top=0;left=0;bottom=0;right=0;align=left;spacingLeft=6;overflow=hidden;whiteSpace=wrap;html=1;" parent="c-iwTXPi0jC057hrUsJh-18" vertex="1">
          <mxGeometry x="30" width="150" height="30" as="geometry">
            <mxRectangle width="150" height="30" as="alternateBounds" />
          </mxGeometry>
        </mxCell>
        <mxCell id="c-iwTXPi0jC057hrUsJh-21" value="" style="shape=tableRow;horizontal=0;startSize=0;swimlaneHead=0;swimlaneBody=0;fillColor=none;collapsible=0;dropTarget=0;points=[[0,0.5],[1,0.5]];portConstraint=eastwest;top=0;left=0;right=0;bottom=0;" parent="c-iwTXPi0jC057hrUsJh-14" vertex="1">
          <mxGeometry y="90" width="180" height="30" as="geometry" />
        </mxCell>
        <mxCell id="c-iwTXPi0jC057hrUsJh-22" value="" style="shape=partialRectangle;connectable=0;fillColor=none;top=0;left=0;bottom=0;right=0;editable=1;overflow=hidden;whiteSpace=wrap;html=1;" parent="c-iwTXPi0jC057hrUsJh-21" vertex="1">
          <mxGeometry width="30" height="30" as="geometry">
            <mxRectangle width="30" height="30" as="alternateBounds" />
          </mxGeometry>
        </mxCell>
        <mxCell id="c-iwTXPi0jC057hrUsJh-23" value="name" style="shape=partialRectangle;connectable=0;fillColor=none;top=0;left=0;bottom=0;right=0;align=left;spacingLeft=6;overflow=hidden;whiteSpace=wrap;html=1;" parent="c-iwTXPi0jC057hrUsJh-21" vertex="1">
          <mxGeometry x="30" width="150" height="30" as="geometry">
            <mxRectangle width="150" height="30" as="alternateBounds" />
          </mxGeometry>
        </mxCell>
        <mxCell id="c-iwTXPi0jC057hrUsJh-24" value="" style="shape=tableRow;horizontal=0;startSize=0;swimlaneHead=0;swimlaneBody=0;fillColor=none;collapsible=0;dropTarget=0;points=[[0,0.5],[1,0.5]];portConstraint=eastwest;top=0;left=0;right=0;bottom=0;" parent="c-iwTXPi0jC057hrUsJh-14" vertex="1">
          <mxGeometry y="120" width="180" height="30" as="geometry" />
        </mxCell>
        <mxCell id="c-iwTXPi0jC057hrUsJh-25" value="" style="shape=partialRectangle;connectable=0;fillColor=none;top=0;left=0;bottom=0;right=0;editable=1;overflow=hidden;whiteSpace=wrap;html=1;" parent="c-iwTXPi0jC057hrUsJh-24" vertex="1">
          <mxGeometry width="30" height="30" as="geometry">
            <mxRectangle width="30" height="30" as="alternateBounds" />
          </mxGeometry>
        </mxCell>
        <mxCell id="c-iwTXPi0jC057hrUsJh-26" value="email" style="shape=partialRectangle;connectable=0;fillColor=none;top=0;left=0;bottom=0;right=0;align=left;spacingLeft=6;overflow=hidden;whiteSpace=wrap;html=1;" parent="c-iwTXPi0jC057hrUsJh-24" vertex="1">
          <mxGeometry x="30" width="150" height="30" as="geometry">
            <mxRectangle width="150" height="30" as="alternateBounds" />
          </mxGeometry>
        </mxCell>
        <mxCell id="l31JtLPPo1hIaRWhnnZ4-1" value="" style="shape=tableRow;horizontal=0;startSize=0;swimlaneHead=0;swimlaneBody=0;fillColor=none;collapsible=0;dropTarget=0;points=[[0,0.5],[1,0.5]];portConstraint=eastwest;top=0;left=0;right=0;bottom=0;" parent="c-iwTXPi0jC057hrUsJh-14" vertex="1">
          <mxGeometry y="150" width="180" height="30" as="geometry" />
        </mxCell>
        <mxCell id="l31JtLPPo1hIaRWhnnZ4-2" value="" style="shape=partialRectangle;connectable=0;fillColor=none;top=0;left=0;bottom=0;right=0;editable=1;overflow=hidden;whiteSpace=wrap;html=1;" parent="l31JtLPPo1hIaRWhnnZ4-1" vertex="1">
          <mxGeometry width="30" height="30" as="geometry">
            <mxRectangle width="30" height="30" as="alternateBounds" />
          </mxGeometry>
        </mxCell>
        <mxCell id="l31JtLPPo1hIaRWhnnZ4-3" value="phone" style="shape=partialRectangle;connectable=0;fillColor=none;top=0;left=0;bottom=0;right=0;align=left;spacingLeft=6;overflow=hidden;whiteSpace=wrap;html=1;" parent="l31JtLPPo1hIaRWhnnZ4-1" vertex="1">
          <mxGeometry x="30" width="150" height="30" as="geometry">
            <mxRectangle width="150" height="30" as="alternateBounds" />
          </mxGeometry>
        </mxCell>
        <mxCell id="l31JtLPPo1hIaRWhnnZ4-4" value="" style="shape=tableRow;horizontal=0;startSize=0;swimlaneHead=0;swimlaneBody=0;fillColor=none;collapsible=0;dropTarget=0;points=[[0,0.5],[1,0.5]];portConstraint=eastwest;top=0;left=0;right=0;bottom=0;" parent="c-iwTXPi0jC057hrUsJh-14" vertex="1">
          <mxGeometry y="180" width="180" height="30" as="geometry" />
        </mxCell>
        <mxCell id="l31JtLPPo1hIaRWhnnZ4-5" value="" style="shape=partialRectangle;connectable=0;fillColor=none;top=0;left=0;bottom=0;right=0;editable=1;overflow=hidden;whiteSpace=wrap;html=1;" parent="l31JtLPPo1hIaRWhnnZ4-4" vertex="1">
          <mxGeometry width="30" height="30" as="geometry">
            <mxRectangle width="30" height="30" as="alternateBounds" />
          </mxGeometry>
        </mxCell>
        <mxCell id="l31JtLPPo1hIaRWhnnZ4-6" value="adress" style="shape=partialRectangle;connectable=0;fillColor=none;top=0;left=0;bottom=0;right=0;align=left;spacingLeft=6;overflow=hidden;whiteSpace=wrap;html=1;" parent="l31JtLPPo1hIaRWhnnZ4-4" vertex="1">
          <mxGeometry x="30" width="150" height="30" as="geometry">
            <mxRectangle width="150" height="30" as="alternateBounds" />
          </mxGeometry>
        </mxCell>
        <mxCell id="l31JtLPPo1hIaRWhnnZ4-7" value="" style="shape=tableRow;horizontal=0;startSize=0;swimlaneHead=0;swimlaneBody=0;fillColor=none;collapsible=0;dropTarget=0;points=[[0,0.5],[1,0.5]];portConstraint=eastwest;top=0;left=0;right=0;bottom=0;" parent="c-iwTXPi0jC057hrUsJh-14" vertex="1">
          <mxGeometry y="210" width="180" height="30" as="geometry" />
        </mxCell>
        <mxCell id="l31JtLPPo1hIaRWhnnZ4-8" value="" style="shape=partialRectangle;connectable=0;fillColor=none;top=0;left=0;bottom=0;right=0;editable=1;overflow=hidden;whiteSpace=wrap;html=1;" parent="l31JtLPPo1hIaRWhnnZ4-7" vertex="1">
          <mxGeometry width="30" height="30" as="geometry">
            <mxRectangle width="30" height="30" as="alternateBounds" />
          </mxGeometry>
        </mxCell>
        <mxCell id="l31JtLPPo1hIaRWhnnZ4-9" value="gender" style="shape=partialRectangle;connectable=0;fillColor=none;top=0;left=0;bottom=0;right=0;align=left;spacingLeft=6;overflow=hidden;whiteSpace=wrap;html=1;" parent="l31JtLPPo1hIaRWhnnZ4-7" vertex="1">
          <mxGeometry x="30" width="150" height="30" as="geometry">
            <mxRectangle width="150" height="30" as="alternateBounds" />
          </mxGeometry>
        </mxCell>
        <mxCell id="c-iwTXPi0jC057hrUsJh-27" value="Loan" style="shape=table;startSize=30;container=1;collapsible=1;childLayout=tableLayout;fixedRows=1;rowLines=0;fontStyle=1;align=center;resizeLast=1;html=1;" parent="1" vertex="1">
          <mxGeometry x="690" width="180" height="180" as="geometry" />
        </mxCell>
        <mxCell id="c-iwTXPi0jC057hrUsJh-28" value="" style="shape=tableRow;horizontal=0;startSize=0;swimlaneHead=0;swimlaneBody=0;fillColor=none;collapsible=0;dropTarget=0;points=[[0,0.5],[1,0.5]];portConstraint=eastwest;top=0;left=0;right=0;bottom=1;" parent="c-iwTXPi0jC057hrUsJh-27" vertex="1">
          <mxGeometry y="30" width="180" height="30" as="geometry" />
        </mxCell>
        <mxCell id="c-iwTXPi0jC057hrUsJh-29" value="PK" style="shape=partialRectangle;connectable=0;fillColor=none;top=0;left=0;bottom=0;right=0;fontStyle=1;overflow=hidden;whiteSpace=wrap;html=1;" parent="c-iwTXPi0jC057hrUsJh-28" vertex="1">
          <mxGeometry width="30" height="30" as="geometry">
            <mxRectangle width="30" height="30" as="alternateBounds" />
          </mxGeometry>
        </mxCell>
        <mxCell id="c-iwTXPi0jC057hrUsJh-30" value="id" style="shape=partialRectangle;connectable=0;fillColor=none;top=0;left=0;bottom=0;right=0;align=left;spacingLeft=6;fontStyle=5;overflow=hidden;whiteSpace=wrap;html=1;" parent="c-iwTXPi0jC057hrUsJh-28" vertex="1">
          <mxGeometry x="30" width="150" height="30" as="geometry">
            <mxRectangle width="150" height="30" as="alternateBounds" />
          </mxGeometry>
        </mxCell>
        <mxCell id="c-iwTXPi0jC057hrUsJh-31" value="" style="shape=tableRow;horizontal=0;startSize=0;swimlaneHead=0;swimlaneBody=0;fillColor=none;collapsible=0;dropTarget=0;points=[[0,0.5],[1,0.5]];portConstraint=eastwest;top=0;left=0;right=0;bottom=0;" parent="c-iwTXPi0jC057hrUsJh-27" vertex="1">
          <mxGeometry y="60" width="180" height="30" as="geometry" />
        </mxCell>
        <mxCell id="c-iwTXPi0jC057hrUsJh-32" value="" style="shape=partialRectangle;connectable=0;fillColor=none;top=0;left=0;bottom=0;right=0;editable=1;overflow=hidden;whiteSpace=wrap;html=1;" parent="c-iwTXPi0jC057hrUsJh-31" vertex="1">
          <mxGeometry width="30" height="30" as="geometry">
            <mxRectangle width="30" height="30" as="alternateBounds" />
          </mxGeometry>
        </mxCell>
        <mxCell id="c-iwTXPi0jC057hrUsJh-33" value="date_borrow" style="shape=partialRectangle;connectable=0;fillColor=none;top=0;left=0;bottom=0;right=0;align=left;spacingLeft=6;overflow=hidden;whiteSpace=wrap;html=1;" parent="c-iwTXPi0jC057hrUsJh-31" vertex="1">
          <mxGeometry x="30" width="150" height="30" as="geometry">
            <mxRectangle width="150" height="30" as="alternateBounds" />
          </mxGeometry>
        </mxCell>
        <mxCell id="c-iwTXPi0jC057hrUsJh-34" value="" style="shape=tableRow;horizontal=0;startSize=0;swimlaneHead=0;swimlaneBody=0;fillColor=none;collapsible=0;dropTarget=0;points=[[0,0.5],[1,0.5]];portConstraint=eastwest;top=0;left=0;right=0;bottom=0;" parent="c-iwTXPi0jC057hrUsJh-27" vertex="1">
          <mxGeometry y="90" width="180" height="30" as="geometry" />
        </mxCell>
        <mxCell id="c-iwTXPi0jC057hrUsJh-35" value="" style="shape=partialRectangle;connectable=0;fillColor=none;top=0;left=0;bottom=0;right=0;editable=1;overflow=hidden;whiteSpace=wrap;html=1;" parent="c-iwTXPi0jC057hrUsJh-34" vertex="1">
          <mxGeometry width="30" height="30" as="geometry">
            <mxRectangle width="30" height="30" as="alternateBounds" />
          </mxGeometry>
        </mxCell>
        <mxCell id="c-iwTXPi0jC057hrUsJh-36" value="date_return" style="shape=partialRectangle;connectable=0;fillColor=none;top=0;left=0;bottom=0;right=0;align=left;spacingLeft=6;overflow=hidden;whiteSpace=wrap;html=1;" parent="c-iwTXPi0jC057hrUsJh-34" vertex="1">
          <mxGeometry x="30" width="150" height="30" as="geometry">
            <mxRectangle width="150" height="30" as="alternateBounds" />
          </mxGeometry>
        </mxCell>
        <mxCell id="Rw4ySH_Af6Vi_lgZeF3a-1" value="" style="shape=tableRow;horizontal=0;startSize=0;swimlaneHead=0;swimlaneBody=0;fillColor=none;collapsible=0;dropTarget=0;points=[[0,0.5],[1,0.5]];portConstraint=eastwest;top=0;left=0;right=0;bottom=0;" parent="c-iwTXPi0jC057hrUsJh-27" vertex="1">
          <mxGeometry y="120" width="180" height="30" as="geometry" />
        </mxCell>
        <mxCell id="Rw4ySH_Af6Vi_lgZeF3a-2" value="" style="shape=partialRectangle;connectable=0;fillColor=none;top=0;left=0;bottom=0;right=0;editable=1;overflow=hidden;whiteSpace=wrap;html=1;" parent="Rw4ySH_Af6Vi_lgZeF3a-1" vertex="1">
          <mxGeometry width="30" height="30" as="geometry">
            <mxRectangle width="30" height="30" as="alternateBounds" />
          </mxGeometry>
        </mxCell>
        <mxCell id="Rw4ySH_Af6Vi_lgZeF3a-3" value="due_borrow" style="shape=partialRectangle;connectable=0;fillColor=none;top=0;left=0;bottom=0;right=0;align=left;spacingLeft=6;overflow=hidden;whiteSpace=wrap;html=1;" parent="Rw4ySH_Af6Vi_lgZeF3a-1" vertex="1">
          <mxGeometry x="30" width="150" height="30" as="geometry">
            <mxRectangle width="150" height="30" as="alternateBounds" />
          </mxGeometry>
        </mxCell>
        <mxCell id="izgcKSxj_eih6jpjtSD1-4" value="" style="shape=tableRow;horizontal=0;startSize=0;swimlaneHead=0;swimlaneBody=0;fillColor=none;collapsible=0;dropTarget=0;points=[[0,0.5],[1,0.5]];portConstraint=eastwest;top=0;left=0;right=0;bottom=0;" vertex="1" parent="c-iwTXPi0jC057hrUsJh-27">
          <mxGeometry y="150" width="180" height="30" as="geometry" />
        </mxCell>
        <mxCell id="izgcKSxj_eih6jpjtSD1-5" value="FK" style="shape=partialRectangle;connectable=0;fillColor=none;top=0;left=0;bottom=0;right=0;editable=1;overflow=hidden;whiteSpace=wrap;html=1;" vertex="1" parent="izgcKSxj_eih6jpjtSD1-4">
          <mxGeometry width="30" height="30" as="geometry">
            <mxRectangle width="30" height="30" as="alternateBounds" />
          </mxGeometry>
        </mxCell>
        <mxCell id="izgcKSxj_eih6jpjtSD1-6" value="id_bookcart" style="shape=partialRectangle;connectable=0;fillColor=none;top=0;left=0;bottom=0;right=0;align=left;spacingLeft=6;overflow=hidden;whiteSpace=wrap;html=1;" vertex="1" parent="izgcKSxj_eih6jpjtSD1-4">
          <mxGeometry x="30" width="150" height="30" as="geometry">
            <mxRectangle width="150" height="30" as="alternateBounds" />
          </mxGeometry>
        </mxCell>
        <mxCell id="c-iwTXPi0jC057hrUsJh-40" value="Transaction" style="shape=table;startSize=30;container=1;collapsible=1;childLayout=tableLayout;fixedRows=1;rowLines=0;fontStyle=1;align=center;resizeLast=1;html=1;" parent="1" vertex="1">
          <mxGeometry x="110" y="350" width="180" height="150" as="geometry" />
        </mxCell>
        <mxCell id="c-iwTXPi0jC057hrUsJh-41" value="" style="shape=tableRow;horizontal=0;startSize=0;swimlaneHead=0;swimlaneBody=0;fillColor=none;collapsible=0;dropTarget=0;points=[[0,0.5],[1,0.5]];portConstraint=eastwest;top=0;left=0;right=0;bottom=1;" parent="c-iwTXPi0jC057hrUsJh-40" vertex="1">
          <mxGeometry y="30" width="180" height="30" as="geometry" />
        </mxCell>
        <mxCell id="c-iwTXPi0jC057hrUsJh-42" value="PK" style="shape=partialRectangle;connectable=0;fillColor=none;top=0;left=0;bottom=0;right=0;fontStyle=1;overflow=hidden;whiteSpace=wrap;html=1;" parent="c-iwTXPi0jC057hrUsJh-41" vertex="1">
          <mxGeometry width="30" height="30" as="geometry">
            <mxRectangle width="30" height="30" as="alternateBounds" />
          </mxGeometry>
        </mxCell>
        <mxCell id="c-iwTXPi0jC057hrUsJh-43" value="id" style="shape=partialRectangle;connectable=0;fillColor=none;top=0;left=0;bottom=0;right=0;align=left;spacingLeft=6;fontStyle=5;overflow=hidden;whiteSpace=wrap;html=1;" parent="c-iwTXPi0jC057hrUsJh-41" vertex="1">
          <mxGeometry x="30" width="150" height="30" as="geometry">
            <mxRectangle width="150" height="30" as="alternateBounds" />
          </mxGeometry>
        </mxCell>
        <mxCell id="c-iwTXPi0jC057hrUsJh-44" value="" style="shape=tableRow;horizontal=0;startSize=0;swimlaneHead=0;swimlaneBody=0;fillColor=none;collapsible=0;dropTarget=0;points=[[0,0.5],[1,0.5]];portConstraint=eastwest;top=0;left=0;right=0;bottom=0;" parent="c-iwTXPi0jC057hrUsJh-40" vertex="1">
          <mxGeometry y="60" width="180" height="30" as="geometry" />
        </mxCell>
        <mxCell id="c-iwTXPi0jC057hrUsJh-45" value="FK" style="shape=partialRectangle;connectable=0;fillColor=none;top=0;left=0;bottom=0;right=0;editable=1;overflow=hidden;whiteSpace=wrap;html=1;" parent="c-iwTXPi0jC057hrUsJh-44" vertex="1">
          <mxGeometry width="30" height="30" as="geometry">
            <mxRectangle width="30" height="30" as="alternateBounds" />
          </mxGeometry>
        </mxCell>
        <mxCell id="c-iwTXPi0jC057hrUsJh-46" value="id_anggota" style="shape=partialRectangle;connectable=0;fillColor=none;top=0;left=0;bottom=0;right=0;align=left;spacingLeft=6;overflow=hidden;whiteSpace=wrap;html=1;" parent="c-iwTXPi0jC057hrUsJh-44" vertex="1">
          <mxGeometry x="30" width="150" height="30" as="geometry">
            <mxRectangle width="150" height="30" as="alternateBounds" />
          </mxGeometry>
        </mxCell>
        <mxCell id="c-iwTXPi0jC057hrUsJh-47" value="" style="shape=tableRow;horizontal=0;startSize=0;swimlaneHead=0;swimlaneBody=0;fillColor=none;collapsible=0;dropTarget=0;points=[[0,0.5],[1,0.5]];portConstraint=eastwest;top=0;left=0;right=0;bottom=0;" parent="c-iwTXPi0jC057hrUsJh-40" vertex="1">
          <mxGeometry y="90" width="180" height="30" as="geometry" />
        </mxCell>
        <mxCell id="c-iwTXPi0jC057hrUsJh-48" value="FK" style="shape=partialRectangle;connectable=0;fillColor=none;top=0;left=0;bottom=0;right=0;editable=1;overflow=hidden;whiteSpace=wrap;html=1;" parent="c-iwTXPi0jC057hrUsJh-47" vertex="1">
          <mxGeometry width="30" height="30" as="geometry">
            <mxRectangle width="30" height="30" as="alternateBounds" />
          </mxGeometry>
        </mxCell>
        <mxCell id="c-iwTXPi0jC057hrUsJh-49" value="id_penalty" style="shape=partialRectangle;connectable=0;fillColor=none;top=0;left=0;bottom=0;right=0;align=left;spacingLeft=6;overflow=hidden;whiteSpace=wrap;html=1;" parent="c-iwTXPi0jC057hrUsJh-47" vertex="1">
          <mxGeometry x="30" width="150" height="30" as="geometry">
            <mxRectangle width="150" height="30" as="alternateBounds" />
          </mxGeometry>
        </mxCell>
        <mxCell id="c-iwTXPi0jC057hrUsJh-50" value="" style="shape=tableRow;horizontal=0;startSize=0;swimlaneHead=0;swimlaneBody=0;fillColor=none;collapsible=0;dropTarget=0;points=[[0,0.5],[1,0.5]];portConstraint=eastwest;top=0;left=0;right=0;bottom=0;" parent="c-iwTXPi0jC057hrUsJh-40" vertex="1">
          <mxGeometry y="120" width="180" height="30" as="geometry" />
        </mxCell>
        <mxCell id="c-iwTXPi0jC057hrUsJh-51" value="FK" style="shape=partialRectangle;connectable=0;fillColor=none;top=0;left=0;bottom=0;right=0;editable=1;overflow=hidden;whiteSpace=wrap;html=1;" parent="c-iwTXPi0jC057hrUsJh-50" vertex="1">
          <mxGeometry width="30" height="30" as="geometry">
            <mxRectangle width="30" height="30" as="alternateBounds" />
          </mxGeometry>
        </mxCell>
        <mxCell id="c-iwTXPi0jC057hrUsJh-52" value="id_librarian" style="shape=partialRectangle;connectable=0;fillColor=none;top=0;left=0;bottom=0;right=0;align=left;spacingLeft=6;overflow=hidden;whiteSpace=wrap;html=1;" parent="c-iwTXPi0jC057hrUsJh-50" vertex="1">
          <mxGeometry x="30" width="150" height="30" as="geometry">
            <mxRectangle width="150" height="30" as="alternateBounds" />
          </mxGeometry>
        </mxCell>
        <mxCell id="c-iwTXPi0jC057hrUsJh-53" value="Book Chart" style="shape=table;startSize=30;container=1;collapsible=1;childLayout=tableLayout;fixedRows=1;rowLines=0;fontStyle=1;align=center;resizeLast=1;html=1;" parent="1" vertex="1">
          <mxGeometry x="110" y="-120" width="180" height="120" as="geometry" />
        </mxCell>
        <mxCell id="c-iwTXPi0jC057hrUsJh-54" value="" style="shape=tableRow;horizontal=0;startSize=0;swimlaneHead=0;swimlaneBody=0;fillColor=none;collapsible=0;dropTarget=0;points=[[0,0.5],[1,0.5]];portConstraint=eastwest;top=0;left=0;right=0;bottom=1;" parent="c-iwTXPi0jC057hrUsJh-53" vertex="1">
          <mxGeometry y="30" width="180" height="30" as="geometry" />
        </mxCell>
        <mxCell id="c-iwTXPi0jC057hrUsJh-55" value="PK" style="shape=partialRectangle;connectable=0;fillColor=none;top=0;left=0;bottom=0;right=0;fontStyle=1;overflow=hidden;whiteSpace=wrap;html=1;" parent="c-iwTXPi0jC057hrUsJh-54" vertex="1">
          <mxGeometry width="30" height="30" as="geometry">
            <mxRectangle width="30" height="30" as="alternateBounds" />
          </mxGeometry>
        </mxCell>
        <mxCell id="c-iwTXPi0jC057hrUsJh-56" value="id" style="shape=partialRectangle;connectable=0;fillColor=none;top=0;left=0;bottom=0;right=0;align=left;spacingLeft=6;fontStyle=5;overflow=hidden;whiteSpace=wrap;html=1;" parent="c-iwTXPi0jC057hrUsJh-54" vertex="1">
          <mxGeometry x="30" width="150" height="30" as="geometry">
            <mxRectangle width="150" height="30" as="alternateBounds" />
          </mxGeometry>
        </mxCell>
        <mxCell id="c-iwTXPi0jC057hrUsJh-57" value="" style="shape=tableRow;horizontal=0;startSize=0;swimlaneHead=0;swimlaneBody=0;fillColor=none;collapsible=0;dropTarget=0;points=[[0,0.5],[1,0.5]];portConstraint=eastwest;top=0;left=0;right=0;bottom=0;" parent="c-iwTXPi0jC057hrUsJh-53" vertex="1">
          <mxGeometry y="60" width="180" height="30" as="geometry" />
        </mxCell>
        <mxCell id="c-iwTXPi0jC057hrUsJh-58" value="" style="shape=partialRectangle;connectable=0;fillColor=none;top=0;left=0;bottom=0;right=0;editable=1;overflow=hidden;whiteSpace=wrap;html=1;" parent="c-iwTXPi0jC057hrUsJh-57" vertex="1">
          <mxGeometry width="30" height="30" as="geometry">
            <mxRectangle width="30" height="30" as="alternateBounds" />
          </mxGeometry>
        </mxCell>
        <mxCell id="c-iwTXPi0jC057hrUsJh-59" value="id_anggota" style="shape=partialRectangle;connectable=0;fillColor=none;top=0;left=0;bottom=0;right=0;align=left;spacingLeft=6;overflow=hidden;whiteSpace=wrap;html=1;" parent="c-iwTXPi0jC057hrUsJh-57" vertex="1">
          <mxGeometry x="30" width="150" height="30" as="geometry">
            <mxRectangle width="150" height="30" as="alternateBounds" />
          </mxGeometry>
        </mxCell>
        <mxCell id="c-iwTXPi0jC057hrUsJh-60" value="" style="shape=tableRow;horizontal=0;startSize=0;swimlaneHead=0;swimlaneBody=0;fillColor=none;collapsible=0;dropTarget=0;points=[[0,0.5],[1,0.5]];portConstraint=eastwest;top=0;left=0;right=0;bottom=0;" parent="c-iwTXPi0jC057hrUsJh-53" vertex="1">
          <mxGeometry y="90" width="180" height="30" as="geometry" />
        </mxCell>
        <mxCell id="c-iwTXPi0jC057hrUsJh-61" value="" style="shape=partialRectangle;connectable=0;fillColor=none;top=0;left=0;bottom=0;right=0;editable=1;overflow=hidden;whiteSpace=wrap;html=1;" parent="c-iwTXPi0jC057hrUsJh-60" vertex="1">
          <mxGeometry width="30" height="30" as="geometry">
            <mxRectangle width="30" height="30" as="alternateBounds" />
          </mxGeometry>
        </mxCell>
        <mxCell id="c-iwTXPi0jC057hrUsJh-62" value="id_book" style="shape=partialRectangle;connectable=0;fillColor=none;top=0;left=0;bottom=0;right=0;align=left;spacingLeft=6;overflow=hidden;whiteSpace=wrap;html=1;" parent="c-iwTXPi0jC057hrUsJh-60" vertex="1">
          <mxGeometry x="30" width="150" height="30" as="geometry">
            <mxRectangle width="150" height="30" as="alternateBounds" />
          </mxGeometry>
        </mxCell>
        <mxCell id="EzVSDgOFGo1Y4FDxKoRC-1" value="Penalty" style="shape=table;startSize=30;container=1;collapsible=1;childLayout=tableLayout;fixedRows=1;rowLines=0;fontStyle=1;align=center;resizeLast=1;html=1;" parent="1" vertex="1">
          <mxGeometry x="110" y="569" width="180" height="150" as="geometry" />
        </mxCell>
        <mxCell id="EzVSDgOFGo1Y4FDxKoRC-2" value="" style="shape=tableRow;horizontal=0;startSize=0;swimlaneHead=0;swimlaneBody=0;fillColor=none;collapsible=0;dropTarget=0;points=[[0,0.5],[1,0.5]];portConstraint=eastwest;top=0;left=0;right=0;bottom=1;" parent="EzVSDgOFGo1Y4FDxKoRC-1" vertex="1">
          <mxGeometry y="30" width="180" height="30" as="geometry" />
        </mxCell>
        <mxCell id="EzVSDgOFGo1Y4FDxKoRC-3" value="PK" style="shape=partialRectangle;connectable=0;fillColor=none;top=0;left=0;bottom=0;right=0;fontStyle=1;overflow=hidden;whiteSpace=wrap;html=1;" parent="EzVSDgOFGo1Y4FDxKoRC-2" vertex="1">
          <mxGeometry width="30" height="30" as="geometry">
            <mxRectangle width="30" height="30" as="alternateBounds" />
          </mxGeometry>
        </mxCell>
        <mxCell id="EzVSDgOFGo1Y4FDxKoRC-4" value="id" style="shape=partialRectangle;connectable=0;fillColor=none;top=0;left=0;bottom=0;right=0;align=left;spacingLeft=6;fontStyle=5;overflow=hidden;whiteSpace=wrap;html=1;" parent="EzVSDgOFGo1Y4FDxKoRC-2" vertex="1">
          <mxGeometry x="30" width="150" height="30" as="geometry">
            <mxRectangle width="150" height="30" as="alternateBounds" />
          </mxGeometry>
        </mxCell>
        <mxCell id="EzVSDgOFGo1Y4FDxKoRC-5" value="" style="shape=tableRow;horizontal=0;startSize=0;swimlaneHead=0;swimlaneBody=0;fillColor=none;collapsible=0;dropTarget=0;points=[[0,0.5],[1,0.5]];portConstraint=eastwest;top=0;left=0;right=0;bottom=0;" parent="EzVSDgOFGo1Y4FDxKoRC-1" vertex="1">
          <mxGeometry y="60" width="180" height="30" as="geometry" />
        </mxCell>
        <mxCell id="EzVSDgOFGo1Y4FDxKoRC-6" value="" style="shape=partialRectangle;connectable=0;fillColor=none;top=0;left=0;bottom=0;right=0;editable=1;overflow=hidden;whiteSpace=wrap;html=1;" parent="EzVSDgOFGo1Y4FDxKoRC-5" vertex="1">
          <mxGeometry width="30" height="30" as="geometry">
            <mxRectangle width="30" height="30" as="alternateBounds" />
          </mxGeometry>
        </mxCell>
        <mxCell id="EzVSDgOFGo1Y4FDxKoRC-7" value="name" style="shape=partialRectangle;connectable=0;fillColor=none;top=0;left=0;bottom=0;right=0;align=left;spacingLeft=6;overflow=hidden;whiteSpace=wrap;html=1;" parent="EzVSDgOFGo1Y4FDxKoRC-5" vertex="1">
          <mxGeometry x="30" width="150" height="30" as="geometry">
            <mxRectangle width="150" height="30" as="alternateBounds" />
          </mxGeometry>
        </mxCell>
        <mxCell id="EzVSDgOFGo1Y4FDxKoRC-8" value="" style="shape=tableRow;horizontal=0;startSize=0;swimlaneHead=0;swimlaneBody=0;fillColor=none;collapsible=0;dropTarget=0;points=[[0,0.5],[1,0.5]];portConstraint=eastwest;top=0;left=0;right=0;bottom=0;" parent="EzVSDgOFGo1Y4FDxKoRC-1" vertex="1">
          <mxGeometry y="90" width="180" height="30" as="geometry" />
        </mxCell>
        <mxCell id="EzVSDgOFGo1Y4FDxKoRC-9" value="" style="shape=partialRectangle;connectable=0;fillColor=none;top=0;left=0;bottom=0;right=0;editable=1;overflow=hidden;whiteSpace=wrap;html=1;" parent="EzVSDgOFGo1Y4FDxKoRC-8" vertex="1">
          <mxGeometry width="30" height="30" as="geometry">
            <mxRectangle width="30" height="30" as="alternateBounds" />
          </mxGeometry>
        </mxCell>
        <mxCell id="EzVSDgOFGo1Y4FDxKoRC-10" value="description" style="shape=partialRectangle;connectable=0;fillColor=none;top=0;left=0;bottom=0;right=0;align=left;spacingLeft=6;overflow=hidden;whiteSpace=wrap;html=1;" parent="EzVSDgOFGo1Y4FDxKoRC-8" vertex="1">
          <mxGeometry x="30" width="150" height="30" as="geometry">
            <mxRectangle width="150" height="30" as="alternateBounds" />
          </mxGeometry>
        </mxCell>
        <mxCell id="EzVSDgOFGo1Y4FDxKoRC-11" value="" style="shape=tableRow;horizontal=0;startSize=0;swimlaneHead=0;swimlaneBody=0;fillColor=none;collapsible=0;dropTarget=0;points=[[0,0.5],[1,0.5]];portConstraint=eastwest;top=0;left=0;right=0;bottom=0;" parent="EzVSDgOFGo1Y4FDxKoRC-1" vertex="1">
          <mxGeometry y="120" width="180" height="30" as="geometry" />
        </mxCell>
        <mxCell id="EzVSDgOFGo1Y4FDxKoRC-12" value="" style="shape=partialRectangle;connectable=0;fillColor=none;top=0;left=0;bottom=0;right=0;editable=1;overflow=hidden;whiteSpace=wrap;html=1;" parent="EzVSDgOFGo1Y4FDxKoRC-11" vertex="1">
          <mxGeometry width="30" height="30" as="geometry">
            <mxRectangle width="30" height="30" as="alternateBounds" />
          </mxGeometry>
        </mxCell>
        <mxCell id="EzVSDgOFGo1Y4FDxKoRC-13" value="cost" style="shape=partialRectangle;connectable=0;fillColor=none;top=0;left=0;bottom=0;right=0;align=left;spacingLeft=6;overflow=hidden;whiteSpace=wrap;html=1;" parent="EzVSDgOFGo1Y4FDxKoRC-11" vertex="1">
          <mxGeometry x="30" width="150" height="30" as="geometry">
            <mxRectangle width="150" height="30" as="alternateBounds" />
          </mxGeometry>
        </mxCell>
        <mxCell id="mq9wWujOPiWIoTSKsi3u-1" value="Category" style="shape=table;startSize=30;container=1;collapsible=1;childLayout=tableLayout;fixedRows=1;rowLines=0;fontStyle=1;align=center;resizeLast=1;html=1;" parent="1" vertex="1">
          <mxGeometry x="-140" y="280" width="180" height="90" as="geometry" />
        </mxCell>
        <mxCell id="mq9wWujOPiWIoTSKsi3u-2" value="" style="shape=tableRow;horizontal=0;startSize=0;swimlaneHead=0;swimlaneBody=0;fillColor=none;collapsible=0;dropTarget=0;points=[[0,0.5],[1,0.5]];portConstraint=eastwest;top=0;left=0;right=0;bottom=1;" parent="mq9wWujOPiWIoTSKsi3u-1" vertex="1">
          <mxGeometry y="30" width="180" height="30" as="geometry" />
        </mxCell>
        <mxCell id="mq9wWujOPiWIoTSKsi3u-3" value="PK" style="shape=partialRectangle;connectable=0;fillColor=none;top=0;left=0;bottom=0;right=0;fontStyle=1;overflow=hidden;whiteSpace=wrap;html=1;" parent="mq9wWujOPiWIoTSKsi3u-2" vertex="1">
          <mxGeometry width="30" height="30" as="geometry">
            <mxRectangle width="30" height="30" as="alternateBounds" />
          </mxGeometry>
        </mxCell>
        <mxCell id="mq9wWujOPiWIoTSKsi3u-4" value="id" style="shape=partialRectangle;connectable=0;fillColor=none;top=0;left=0;bottom=0;right=0;align=left;spacingLeft=6;fontStyle=5;overflow=hidden;whiteSpace=wrap;html=1;" parent="mq9wWujOPiWIoTSKsi3u-2" vertex="1">
          <mxGeometry x="30" width="150" height="30" as="geometry">
            <mxRectangle width="150" height="30" as="alternateBounds" />
          </mxGeometry>
        </mxCell>
        <mxCell id="mq9wWujOPiWIoTSKsi3u-5" value="" style="shape=tableRow;horizontal=0;startSize=0;swimlaneHead=0;swimlaneBody=0;fillColor=none;collapsible=0;dropTarget=0;points=[[0,0.5],[1,0.5]];portConstraint=eastwest;top=0;left=0;right=0;bottom=0;" parent="mq9wWujOPiWIoTSKsi3u-1" vertex="1">
          <mxGeometry y="60" width="180" height="30" as="geometry" />
        </mxCell>
        <mxCell id="mq9wWujOPiWIoTSKsi3u-6" value="" style="shape=partialRectangle;connectable=0;fillColor=none;top=0;left=0;bottom=0;right=0;editable=1;overflow=hidden;whiteSpace=wrap;html=1;" parent="mq9wWujOPiWIoTSKsi3u-5" vertex="1">
          <mxGeometry width="30" height="30" as="geometry">
            <mxRectangle width="30" height="30" as="alternateBounds" />
          </mxGeometry>
        </mxCell>
        <mxCell id="mq9wWujOPiWIoTSKsi3u-7" value="name" style="shape=partialRectangle;connectable=0;fillColor=none;top=0;left=0;bottom=0;right=0;align=left;spacingLeft=6;overflow=hidden;whiteSpace=wrap;html=1;" parent="mq9wWujOPiWIoTSKsi3u-5" vertex="1">
          <mxGeometry x="30" width="150" height="30" as="geometry">
            <mxRectangle width="150" height="30" as="alternateBounds" />
          </mxGeometry>
        </mxCell>
        <mxCell id="zbjSTuHbGmUsg9xyPd7v-1" value="Book" style="shape=table;startSize=30;container=1;collapsible=1;childLayout=tableLayout;fixedRows=1;rowLines=0;fontStyle=1;align=center;resizeLast=1;html=1;" parent="1" vertex="1">
          <mxGeometry x="-140" y="-120" width="180" height="300" as="geometry" />
        </mxCell>
        <mxCell id="zbjSTuHbGmUsg9xyPd7v-2" value="" style="shape=tableRow;horizontal=0;startSize=0;swimlaneHead=0;swimlaneBody=0;fillColor=none;collapsible=0;dropTarget=0;points=[[0,0.5],[1,0.5]];portConstraint=eastwest;top=0;left=0;right=0;bottom=1;" parent="zbjSTuHbGmUsg9xyPd7v-1" vertex="1">
          <mxGeometry y="30" width="180" height="30" as="geometry" />
        </mxCell>
        <mxCell id="zbjSTuHbGmUsg9xyPd7v-3" value="PK" style="shape=partialRectangle;connectable=0;fillColor=none;top=0;left=0;bottom=0;right=0;fontStyle=1;overflow=hidden;whiteSpace=wrap;html=1;" parent="zbjSTuHbGmUsg9xyPd7v-2" vertex="1">
          <mxGeometry width="30" height="30" as="geometry">
            <mxRectangle width="30" height="30" as="alternateBounds" />
          </mxGeometry>
        </mxCell>
        <mxCell id="zbjSTuHbGmUsg9xyPd7v-4" value="id" style="shape=partialRectangle;connectable=0;fillColor=none;top=0;left=0;bottom=0;right=0;align=left;spacingLeft=6;fontStyle=5;overflow=hidden;whiteSpace=wrap;html=1;" parent="zbjSTuHbGmUsg9xyPd7v-2" vertex="1">
          <mxGeometry x="30" width="150" height="30" as="geometry">
            <mxRectangle width="150" height="30" as="alternateBounds" />
          </mxGeometry>
        </mxCell>
        <mxCell id="zbjSTuHbGmUsg9xyPd7v-5" value="" style="shape=tableRow;horizontal=0;startSize=0;swimlaneHead=0;swimlaneBody=0;fillColor=none;collapsible=0;dropTarget=0;points=[[0,0.5],[1,0.5]];portConstraint=eastwest;top=0;left=0;right=0;bottom=0;" parent="zbjSTuHbGmUsg9xyPd7v-1" vertex="1">
          <mxGeometry y="60" width="180" height="30" as="geometry" />
        </mxCell>
        <mxCell id="zbjSTuHbGmUsg9xyPd7v-6" value="" style="shape=partialRectangle;connectable=0;fillColor=none;top=0;left=0;bottom=0;right=0;editable=1;overflow=hidden;whiteSpace=wrap;html=1;" parent="zbjSTuHbGmUsg9xyPd7v-5" vertex="1">
          <mxGeometry width="30" height="30" as="geometry">
            <mxRectangle width="30" height="30" as="alternateBounds" />
          </mxGeometry>
        </mxCell>
        <mxCell id="zbjSTuHbGmUsg9xyPd7v-7" value="author" style="shape=partialRectangle;connectable=0;fillColor=none;top=0;left=0;bottom=0;right=0;align=left;spacingLeft=6;overflow=hidden;whiteSpace=wrap;html=1;" parent="zbjSTuHbGmUsg9xyPd7v-5" vertex="1">
          <mxGeometry x="30" width="150" height="30" as="geometry">
            <mxRectangle width="150" height="30" as="alternateBounds" />
          </mxGeometry>
        </mxCell>
        <mxCell id="zbjSTuHbGmUsg9xyPd7v-8" value="" style="shape=tableRow;horizontal=0;startSize=0;swimlaneHead=0;swimlaneBody=0;fillColor=none;collapsible=0;dropTarget=0;points=[[0,0.5],[1,0.5]];portConstraint=eastwest;top=0;left=0;right=0;bottom=0;" parent="zbjSTuHbGmUsg9xyPd7v-1" vertex="1">
          <mxGeometry y="90" width="180" height="30" as="geometry" />
        </mxCell>
        <mxCell id="zbjSTuHbGmUsg9xyPd7v-9" value="" style="shape=partialRectangle;connectable=0;fillColor=none;top=0;left=0;bottom=0;right=0;editable=1;overflow=hidden;whiteSpace=wrap;html=1;" parent="zbjSTuHbGmUsg9xyPd7v-8" vertex="1">
          <mxGeometry width="30" height="30" as="geometry">
            <mxRectangle width="30" height="30" as="alternateBounds" />
          </mxGeometry>
        </mxCell>
        <mxCell id="zbjSTuHbGmUsg9xyPd7v-10" value="publisher" style="shape=partialRectangle;connectable=0;fillColor=none;top=0;left=0;bottom=0;right=0;align=left;spacingLeft=6;overflow=hidden;whiteSpace=wrap;html=1;" parent="zbjSTuHbGmUsg9xyPd7v-8" vertex="1">
          <mxGeometry x="30" width="150" height="30" as="geometry">
            <mxRectangle width="150" height="30" as="alternateBounds" />
          </mxGeometry>
        </mxCell>
        <mxCell id="zbjSTuHbGmUsg9xyPd7v-11" value="" style="shape=tableRow;horizontal=0;startSize=0;swimlaneHead=0;swimlaneBody=0;fillColor=none;collapsible=0;dropTarget=0;points=[[0,0.5],[1,0.5]];portConstraint=eastwest;top=0;left=0;right=0;bottom=0;" parent="zbjSTuHbGmUsg9xyPd7v-1" vertex="1">
          <mxGeometry y="120" width="180" height="30" as="geometry" />
        </mxCell>
        <mxCell id="zbjSTuHbGmUsg9xyPd7v-12" value="" style="shape=partialRectangle;connectable=0;fillColor=none;top=0;left=0;bottom=0;right=0;editable=1;overflow=hidden;whiteSpace=wrap;html=1;" parent="zbjSTuHbGmUsg9xyPd7v-11" vertex="1">
          <mxGeometry width="30" height="30" as="geometry">
            <mxRectangle width="30" height="30" as="alternateBounds" />
          </mxGeometry>
        </mxCell>
        <mxCell id="zbjSTuHbGmUsg9xyPd7v-13" value="publication_date" style="shape=partialRectangle;connectable=0;fillColor=none;top=0;left=0;bottom=0;right=0;align=left;spacingLeft=6;overflow=hidden;whiteSpace=wrap;html=1;" parent="zbjSTuHbGmUsg9xyPd7v-11" vertex="1">
          <mxGeometry x="30" width="150" height="30" as="geometry">
            <mxRectangle width="150" height="30" as="alternateBounds" />
          </mxGeometry>
        </mxCell>
        <mxCell id="RP7p8d02Id1K8ijhtbVu-1" value="" style="shape=tableRow;horizontal=0;startSize=0;swimlaneHead=0;swimlaneBody=0;fillColor=none;collapsible=0;dropTarget=0;points=[[0,0.5],[1,0.5]];portConstraint=eastwest;top=0;left=0;right=0;bottom=0;" parent="zbjSTuHbGmUsg9xyPd7v-1" vertex="1">
          <mxGeometry y="150" width="180" height="30" as="geometry" />
        </mxCell>
        <mxCell id="RP7p8d02Id1K8ijhtbVu-2" value="" style="shape=partialRectangle;connectable=0;fillColor=none;top=0;left=0;bottom=0;right=0;editable=1;overflow=hidden;whiteSpace=wrap;html=1;" parent="RP7p8d02Id1K8ijhtbVu-1" vertex="1">
          <mxGeometry width="30" height="30" as="geometry">
            <mxRectangle width="30" height="30" as="alternateBounds" />
          </mxGeometry>
        </mxCell>
        <mxCell id="RP7p8d02Id1K8ijhtbVu-3" value="stock" style="shape=partialRectangle;connectable=0;fillColor=none;top=0;left=0;bottom=0;right=0;align=left;spacingLeft=6;overflow=hidden;whiteSpace=wrap;html=1;" parent="RP7p8d02Id1K8ijhtbVu-1" vertex="1">
          <mxGeometry x="30" width="150" height="30" as="geometry">
            <mxRectangle width="150" height="30" as="alternateBounds" />
          </mxGeometry>
        </mxCell>
        <mxCell id="RP7p8d02Id1K8ijhtbVu-4" value="" style="shape=tableRow;horizontal=0;startSize=0;swimlaneHead=0;swimlaneBody=0;fillColor=none;collapsible=0;dropTarget=0;points=[[0,0.5],[1,0.5]];portConstraint=eastwest;top=0;left=0;right=0;bottom=0;" parent="zbjSTuHbGmUsg9xyPd7v-1" vertex="1">
          <mxGeometry y="180" width="180" height="30" as="geometry" />
        </mxCell>
        <mxCell id="RP7p8d02Id1K8ijhtbVu-5" value="" style="shape=partialRectangle;connectable=0;fillColor=none;top=0;left=0;bottom=0;right=0;editable=1;overflow=hidden;whiteSpace=wrap;html=1;" parent="RP7p8d02Id1K8ijhtbVu-4" vertex="1">
          <mxGeometry width="30" height="30" as="geometry">
            <mxRectangle width="30" height="30" as="alternateBounds" />
          </mxGeometry>
        </mxCell>
        <mxCell id="RP7p8d02Id1K8ijhtbVu-6" value="read" style="shape=partialRectangle;connectable=0;fillColor=none;top=0;left=0;bottom=0;right=0;align=left;spacingLeft=6;overflow=hidden;whiteSpace=wrap;html=1;" parent="RP7p8d02Id1K8ijhtbVu-4" vertex="1">
          <mxGeometry x="30" width="150" height="30" as="geometry">
            <mxRectangle width="150" height="30" as="alternateBounds" />
          </mxGeometry>
        </mxCell>
        <mxCell id="w6SLdaNG5TwSTujk2_Bl-1" value="" style="shape=tableRow;horizontal=0;startSize=0;swimlaneHead=0;swimlaneBody=0;fillColor=none;collapsible=0;dropTarget=0;points=[[0,0.5],[1,0.5]];portConstraint=eastwest;top=0;left=0;right=0;bottom=0;" parent="zbjSTuHbGmUsg9xyPd7v-1" vertex="1">
          <mxGeometry y="210" width="180" height="30" as="geometry" />
        </mxCell>
        <mxCell id="w6SLdaNG5TwSTujk2_Bl-2" value="" style="shape=partialRectangle;connectable=0;fillColor=none;top=0;left=0;bottom=0;right=0;editable=1;overflow=hidden;whiteSpace=wrap;html=1;" parent="w6SLdaNG5TwSTujk2_Bl-1" vertex="1">
          <mxGeometry width="30" height="30" as="geometry">
            <mxRectangle width="30" height="30" as="alternateBounds" />
          </mxGeometry>
        </mxCell>
        <mxCell id="w6SLdaNG5TwSTujk2_Bl-3" value="title" style="shape=partialRectangle;connectable=0;fillColor=none;top=0;left=0;bottom=0;right=0;align=left;spacingLeft=6;overflow=hidden;whiteSpace=wrap;html=1;" parent="w6SLdaNG5TwSTujk2_Bl-1" vertex="1">
          <mxGeometry x="30" width="150" height="30" as="geometry">
            <mxRectangle width="150" height="30" as="alternateBounds" />
          </mxGeometry>
        </mxCell>
        <mxCell id="w6SLdaNG5TwSTujk2_Bl-4" value="" style="shape=tableRow;horizontal=0;startSize=0;swimlaneHead=0;swimlaneBody=0;fillColor=none;collapsible=0;dropTarget=0;points=[[0,0.5],[1,0.5]];portConstraint=eastwest;top=0;left=0;right=0;bottom=0;" parent="zbjSTuHbGmUsg9xyPd7v-1" vertex="1">
          <mxGeometry y="240" width="180" height="30" as="geometry" />
        </mxCell>
        <mxCell id="w6SLdaNG5TwSTujk2_Bl-5" value="" style="shape=partialRectangle;connectable=0;fillColor=none;top=0;left=0;bottom=0;right=0;editable=1;overflow=hidden;whiteSpace=wrap;html=1;" parent="w6SLdaNG5TwSTujk2_Bl-4" vertex="1">
          <mxGeometry width="30" height="30" as="geometry">
            <mxRectangle width="30" height="30" as="alternateBounds" />
          </mxGeometry>
        </mxCell>
        <mxCell id="w6SLdaNG5TwSTujk2_Bl-6" value="sumarry" style="shape=partialRectangle;connectable=0;fillColor=none;top=0;left=0;bottom=0;right=0;align=left;spacingLeft=6;overflow=hidden;whiteSpace=wrap;html=1;" parent="w6SLdaNG5TwSTujk2_Bl-4" vertex="1">
          <mxGeometry x="30" width="150" height="30" as="geometry">
            <mxRectangle width="150" height="30" as="alternateBounds" />
          </mxGeometry>
        </mxCell>
        <mxCell id="3esjR5H9Ek9-EvNzHwxo-1" value="" style="shape=tableRow;horizontal=0;startSize=0;swimlaneHead=0;swimlaneBody=0;fillColor=none;collapsible=0;dropTarget=0;points=[[0,0.5],[1,0.5]];portConstraint=eastwest;top=0;left=0;right=0;bottom=0;" parent="zbjSTuHbGmUsg9xyPd7v-1" vertex="1">
          <mxGeometry y="270" width="180" height="30" as="geometry" />
        </mxCell>
        <mxCell id="3esjR5H9Ek9-EvNzHwxo-2" value="FK" style="shape=partialRectangle;connectable=0;fillColor=none;top=0;left=0;bottom=0;right=0;editable=1;overflow=hidden;whiteSpace=wrap;html=1;" parent="3esjR5H9Ek9-EvNzHwxo-1" vertex="1">
          <mxGeometry width="30" height="30" as="geometry">
            <mxRectangle width="30" height="30" as="alternateBounds" />
          </mxGeometry>
        </mxCell>
        <mxCell id="3esjR5H9Ek9-EvNzHwxo-3" value="category" style="shape=partialRectangle;connectable=0;fillColor=none;top=0;left=0;bottom=0;right=0;align=left;spacingLeft=6;overflow=hidden;whiteSpace=wrap;html=1;" parent="3esjR5H9Ek9-EvNzHwxo-1" vertex="1">
          <mxGeometry x="30" width="150" height="30" as="geometry">
            <mxRectangle width="150" height="30" as="alternateBounds" />
          </mxGeometry>
        </mxCell>
        <mxCell id="j9SbuMWkhVOpEvTc04kQ-1" value="" style="edgeStyle=orthogonalEdgeStyle;fontSize=12;html=1;endArrow=ERoneToMany;rounded=0;entryX=0;entryY=0.5;entryDx=0;entryDy=0;" parent="1" source="c-iwTXPi0jC057hrUsJh-11" target="c-iwTXPi0jC057hrUsJh-31" edge="1">
          <mxGeometry width="100" height="100" relative="1" as="geometry">
            <mxPoint x="410" y="380" as="sourcePoint" />
            <mxPoint x="510" y="280" as="targetPoint" />
            <Array as="points">
              <mxPoint x="340" y="180" />
              <mxPoint x="340" y="75" />
            </Array>
          </mxGeometry>
        </mxCell>
        <mxCell id="Ulfhu0WfT8W7JXauwuD2-1" value="" style="edgeStyle=elbowEdgeStyle;fontSize=12;html=1;endArrow=ERoneToMany;rounded=0;entryX=0.5;entryY=0;entryDx=0;entryDy=0;" parent="1" source="m-RghQ_CBLiI1V1CRRxm-4" target="c-iwTXPi0jC057hrUsJh-40" edge="1">
          <mxGeometry width="100" height="100" relative="1" as="geometry">
            <mxPoint x="370" y="350" as="sourcePoint" />
            <mxPoint x="470" y="250" as="targetPoint" />
          </mxGeometry>
        </mxCell>
        <mxCell id="shYpcJSSE9IRJaiMCspJ-1" value="" style="edgeStyle=elbowEdgeStyle;fontSize=12;html=1;endArrow=ERoneToMany;rounded=0;exitX=0.5;exitY=0;exitDx=0;exitDy=0;" parent="1" source="c-iwTXPi0jC057hrUsJh-14" target="izgcKSxj_eih6jpjtSD1-4" edge="1">
          <mxGeometry width="100" height="100" relative="1" as="geometry">
            <mxPoint x="428.33000000000004" y="240" as="sourcePoint" />
            <mxPoint x="517" y="200" as="targetPoint" />
            <Array as="points">
              <mxPoint x="780" y="320" />
            </Array>
          </mxGeometry>
        </mxCell>
        <mxCell id="0wgUOLpD8Aog7XHYJfQH-1" value="" style="edgeStyle=elbowEdgeStyle;fontSize=12;html=1;endArrow=ERoneToMany;rounded=0;entryX=1;entryY=0.5;entryDx=0;entryDy=0;" parent="1" source="c-iwTXPi0jC057hrUsJh-24" target="c-iwTXPi0jC057hrUsJh-44" edge="1">
          <mxGeometry width="100" height="100" relative="1" as="geometry">
            <mxPoint x="340.25" y="285" as="sourcePoint" />
            <mxPoint x="340.25" y="380" as="targetPoint" />
            <Array as="points">
              <mxPoint x="350" y="520" />
            </Array>
          </mxGeometry>
        </mxCell>
        <mxCell id="xlp3DPa-iC35blSMvfTy-1" value="" style="edgeStyle=elbowEdgeStyle;fontSize=12;html=1;endArrow=ERoneToMany;rounded=0;exitX=0.5;exitY=0;exitDx=0;exitDy=0;" parent="1" source="c-iwTXPi0jC057hrUsJh-1" target="c-iwTXPi0jC057hrUsJh-60" edge="1">
          <mxGeometry width="100" height="100" relative="1" as="geometry">
            <mxPoint x="370.25" y="-110" as="sourcePoint" />
            <mxPoint x="370.25" y="-15" as="targetPoint" />
          </mxGeometry>
        </mxCell>
        <mxCell id="iJADP6EHwwbPY5t50rAd-1" value="" style="edgeStyle=elbowEdgeStyle;fontSize=12;html=1;endArrow=ERoneToMany;rounded=0;exitX=1;exitY=0.5;exitDx=0;exitDy=0;entryX=0.5;entryY=0;entryDx=0;entryDy=0;" parent="1" source="c-iwTXPi0jC057hrUsJh-57" edge="1" target="c-iwTXPi0jC057hrUsJh-27">
          <mxGeometry width="100" height="100" relative="1" as="geometry">
            <mxPoint x="280" y="-90" as="sourcePoint" />
            <mxPoint x="821" y="45" as="targetPoint" />
            <Array as="points">
              <mxPoint x="821" y="-90" />
            </Array>
          </mxGeometry>
        </mxCell>
        <mxCell id="yGAkReciZizOWdOjsFBr-1" value="" style="edgeStyle=elbowEdgeStyle;fontSize=12;html=1;endArrow=ERoneToMany;rounded=0;exitX=0.491;exitY=0.995;exitDx=0;exitDy=0;exitPerimeter=0;" parent="1" source="3esjR5H9Ek9-EvNzHwxo-1" target="mq9wWujOPiWIoTSKsi3u-1" edge="1">
          <mxGeometry width="100" height="100" relative="1" as="geometry">
            <mxPoint x="-110" y="-5" as="sourcePoint" />
            <mxPoint x="-52" y="250" as="targetPoint" />
            <Array as="points">
              <mxPoint x="-52" y="220" />
            </Array>
          </mxGeometry>
        </mxCell>
        <mxCell id="-8Nb1J9ll3mnWuuz4HZp-2" value="" style="edgeStyle=elbowEdgeStyle;fontSize=12;html=1;endArrow=ERoneToMany;rounded=0;entryX=0.5;entryY=0;entryDx=0;entryDy=0;" parent="1" source="c-iwTXPi0jC057hrUsJh-50" target="EzVSDgOFGo1Y4FDxKoRC-1" edge="1">
          <mxGeometry width="100" height="100" relative="1" as="geometry">
            <mxPoint x="360.15999999999997" y="580" as="sourcePoint" />
            <mxPoint x="360.15999999999997" y="645" as="targetPoint" />
          </mxGeometry>
        </mxCell>
        <mxCell id="Rw4ySH_Af6Vi_lgZeF3a-4" value="User" style="shape=table;startSize=30;container=1;collapsible=1;childLayout=tableLayout;fixedRows=1;rowLines=0;fontStyle=1;align=center;resizeLast=1;html=1;" parent="1" vertex="1">
          <mxGeometry x="440" y="180" width="180" height="220" as="geometry" />
        </mxCell>
        <mxCell id="Rw4ySH_Af6Vi_lgZeF3a-5" value="" style="shape=tableRow;horizontal=0;startSize=0;swimlaneHead=0;swimlaneBody=0;fillColor=none;collapsible=0;dropTarget=0;points=[[0,0.5],[1,0.5]];portConstraint=eastwest;top=0;left=0;right=0;bottom=1;" parent="Rw4ySH_Af6Vi_lgZeF3a-4" vertex="1">
          <mxGeometry y="30" width="180" height="30" as="geometry" />
        </mxCell>
        <mxCell id="Rw4ySH_Af6Vi_lgZeF3a-6" value="PK" style="shape=partialRectangle;connectable=0;fillColor=none;top=0;left=0;bottom=0;right=0;fontStyle=1;overflow=hidden;whiteSpace=wrap;html=1;" parent="Rw4ySH_Af6Vi_lgZeF3a-5" vertex="1">
          <mxGeometry width="30" height="30" as="geometry">
            <mxRectangle width="30" height="30" as="alternateBounds" />
          </mxGeometry>
        </mxCell>
        <mxCell id="Rw4ySH_Af6Vi_lgZeF3a-7" value="id" style="shape=partialRectangle;connectable=0;fillColor=none;top=0;left=0;bottom=0;right=0;align=left;spacingLeft=6;fontStyle=5;overflow=hidden;whiteSpace=wrap;html=1;" parent="Rw4ySH_Af6Vi_lgZeF3a-5" vertex="1">
          <mxGeometry x="30" width="150" height="30" as="geometry">
            <mxRectangle width="150" height="30" as="alternateBounds" />
          </mxGeometry>
        </mxCell>
        <mxCell id="Rw4ySH_Af6Vi_lgZeF3a-8" value="" style="shape=tableRow;horizontal=0;startSize=0;swimlaneHead=0;swimlaneBody=0;fillColor=none;collapsible=0;dropTarget=0;points=[[0,0.5],[1,0.5]];portConstraint=eastwest;top=0;left=0;right=0;bottom=0;" parent="Rw4ySH_Af6Vi_lgZeF3a-4" vertex="1">
          <mxGeometry y="60" width="180" height="40" as="geometry" />
        </mxCell>
        <mxCell id="Rw4ySH_Af6Vi_lgZeF3a-9" value="" style="shape=partialRectangle;connectable=0;fillColor=none;top=0;left=0;bottom=0;right=0;editable=1;overflow=hidden;whiteSpace=wrap;html=1;" parent="Rw4ySH_Af6Vi_lgZeF3a-8" vertex="1">
          <mxGeometry width="30" height="40" as="geometry">
            <mxRectangle width="30" height="40" as="alternateBounds" />
          </mxGeometry>
        </mxCell>
        <mxCell id="Rw4ySH_Af6Vi_lgZeF3a-10" value="username" style="shape=partialRectangle;connectable=0;fillColor=none;top=0;left=0;bottom=0;right=0;align=left;spacingLeft=6;overflow=hidden;whiteSpace=wrap;html=1;" parent="Rw4ySH_Af6Vi_lgZeF3a-8" vertex="1">
          <mxGeometry x="30" width="150" height="40" as="geometry">
            <mxRectangle width="150" height="40" as="alternateBounds" />
          </mxGeometry>
        </mxCell>
        <mxCell id="Rw4ySH_Af6Vi_lgZeF3a-11" value="" style="shape=tableRow;horizontal=0;startSize=0;swimlaneHead=0;swimlaneBody=0;fillColor=none;collapsible=0;dropTarget=0;points=[[0,0.5],[1,0.5]];portConstraint=eastwest;top=0;left=0;right=0;bottom=0;" parent="Rw4ySH_Af6Vi_lgZeF3a-4" vertex="1">
          <mxGeometry y="100" width="180" height="30" as="geometry" />
        </mxCell>
        <mxCell id="Rw4ySH_Af6Vi_lgZeF3a-12" value="" style="shape=partialRectangle;connectable=0;fillColor=none;top=0;left=0;bottom=0;right=0;editable=1;overflow=hidden;whiteSpace=wrap;html=1;" parent="Rw4ySH_Af6Vi_lgZeF3a-11" vertex="1">
          <mxGeometry width="30" height="30" as="geometry">
            <mxRectangle width="30" height="30" as="alternateBounds" />
          </mxGeometry>
        </mxCell>
        <mxCell id="Rw4ySH_Af6Vi_lgZeF3a-13" value="password" style="shape=partialRectangle;connectable=0;fillColor=none;top=0;left=0;bottom=0;right=0;align=left;spacingLeft=6;overflow=hidden;whiteSpace=wrap;html=1;" parent="Rw4ySH_Af6Vi_lgZeF3a-11" vertex="1">
          <mxGeometry x="30" width="150" height="30" as="geometry">
            <mxRectangle width="150" height="30" as="alternateBounds" />
          </mxGeometry>
        </mxCell>
        <mxCell id="Rw4ySH_Af6Vi_lgZeF3a-14" value="" style="shape=tableRow;horizontal=0;startSize=0;swimlaneHead=0;swimlaneBody=0;fillColor=none;collapsible=0;dropTarget=0;points=[[0,0.5],[1,0.5]];portConstraint=eastwest;top=0;left=0;right=0;bottom=0;" parent="Rw4ySH_Af6Vi_lgZeF3a-4" vertex="1">
          <mxGeometry y="130" width="180" height="30" as="geometry" />
        </mxCell>
        <mxCell id="Rw4ySH_Af6Vi_lgZeF3a-15" value="" style="shape=partialRectangle;connectable=0;fillColor=none;top=0;left=0;bottom=0;right=0;editable=1;overflow=hidden;whiteSpace=wrap;html=1;" parent="Rw4ySH_Af6Vi_lgZeF3a-14" vertex="1">
          <mxGeometry width="30" height="30" as="geometry">
            <mxRectangle width="30" height="30" as="alternateBounds" />
          </mxGeometry>
        </mxCell>
        <mxCell id="Rw4ySH_Af6Vi_lgZeF3a-16" value="token" style="shape=partialRectangle;connectable=0;fillColor=none;top=0;left=0;bottom=0;right=0;align=left;spacingLeft=6;overflow=hidden;whiteSpace=wrap;html=1;" parent="Rw4ySH_Af6Vi_lgZeF3a-14" vertex="1">
          <mxGeometry x="30" width="150" height="30" as="geometry">
            <mxRectangle width="150" height="30" as="alternateBounds" />
          </mxGeometry>
        </mxCell>
        <mxCell id="bAgVzpgkTWrJocEYsj-L-1" value="" style="shape=tableRow;horizontal=0;startSize=0;swimlaneHead=0;swimlaneBody=0;fillColor=none;collapsible=0;dropTarget=0;points=[[0,0.5],[1,0.5]];portConstraint=eastwest;top=0;left=0;right=0;bottom=0;" vertex="1" parent="Rw4ySH_Af6Vi_lgZeF3a-4">
          <mxGeometry y="160" width="180" height="30" as="geometry" />
        </mxCell>
        <mxCell id="bAgVzpgkTWrJocEYsj-L-2" value="FK" style="shape=partialRectangle;connectable=0;fillColor=none;top=0;left=0;bottom=0;right=0;editable=1;overflow=hidden;whiteSpace=wrap;html=1;" vertex="1" parent="bAgVzpgkTWrJocEYsj-L-1">
          <mxGeometry width="30" height="30" as="geometry">
            <mxRectangle width="30" height="30" as="alternateBounds" />
          </mxGeometry>
        </mxCell>
        <mxCell id="bAgVzpgkTWrJocEYsj-L-3" value="id_anggota" style="shape=partialRectangle;connectable=0;fillColor=none;top=0;left=0;bottom=0;right=0;align=left;spacingLeft=6;overflow=hidden;whiteSpace=wrap;html=1;" vertex="1" parent="bAgVzpgkTWrJocEYsj-L-1">
          <mxGeometry x="30" width="150" height="30" as="geometry">
            <mxRectangle width="150" height="30" as="alternateBounds" />
          </mxGeometry>
        </mxCell>
        <mxCell id="bAgVzpgkTWrJocEYsj-L-4" value="" style="shape=tableRow;horizontal=0;startSize=0;swimlaneHead=0;swimlaneBody=0;fillColor=none;collapsible=0;dropTarget=0;points=[[0,0.5],[1,0.5]];portConstraint=eastwest;top=0;left=0;right=0;bottom=0;" vertex="1" parent="Rw4ySH_Af6Vi_lgZeF3a-4">
          <mxGeometry y="190" width="180" height="30" as="geometry" />
        </mxCell>
        <mxCell id="bAgVzpgkTWrJocEYsj-L-5" value="FK" style="shape=partialRectangle;connectable=0;fillColor=none;top=0;left=0;bottom=0;right=0;editable=1;overflow=hidden;whiteSpace=wrap;html=1;" vertex="1" parent="bAgVzpgkTWrJocEYsj-L-4">
          <mxGeometry width="30" height="30" as="geometry">
            <mxRectangle width="30" height="30" as="alternateBounds" />
          </mxGeometry>
        </mxCell>
        <mxCell id="bAgVzpgkTWrJocEYsj-L-6" value="id_librarian" style="shape=partialRectangle;connectable=0;fillColor=none;top=0;left=0;bottom=0;right=0;align=left;spacingLeft=6;overflow=hidden;whiteSpace=wrap;html=1;" vertex="1" parent="bAgVzpgkTWrJocEYsj-L-4">
          <mxGeometry x="30" width="150" height="30" as="geometry">
            <mxRectangle width="150" height="30" as="alternateBounds" />
          </mxGeometry>
        </mxCell>
        <mxCell id="Rw4ySH_Af6Vi_lgZeF3a-17" value="" style="edgeStyle=entityRelationEdgeStyle;fontSize=12;html=1;endArrow=ERmandOne;startArrow=ERmandOne;rounded=0;entryX=0;entryY=0.5;entryDx=0;entryDy=0;" parent="1" source="yoQ4sImmGTUX0AKNua1z-1" target="Rw4ySH_Af6Vi_lgZeF3a-8" edge="1">
          <mxGeometry width="100" height="100" relative="1" as="geometry">
            <mxPoint x="320" y="230" as="sourcePoint" />
            <mxPoint x="440" y="240" as="targetPoint" />
          </mxGeometry>
        </mxCell>
        <mxCell id="Rw4ySH_Af6Vi_lgZeF3a-18" value="" style="edgeStyle=entityRelationEdgeStyle;fontSize=12;html=1;endArrow=ERmandOne;startArrow=ERmandOne;rounded=0;exitX=1;exitY=0.5;exitDx=0;exitDy=0;entryX=0;entryY=0.5;entryDx=0;entryDy=0;" parent="1" source="Rw4ySH_Af6Vi_lgZeF3a-11" target="c-iwTXPi0jC057hrUsJh-18" edge="1">
          <mxGeometry width="100" height="100" relative="1" as="geometry">
            <mxPoint x="540" y="385" as="sourcePoint" />
            <mxPoint x="700" y="465" as="targetPoint" />
            <Array as="points">
              <mxPoint x="670" y="500" />
            </Array>
          </mxGeometry>
        </mxCell>
      </root>
    </mxGraphModel>
  </diagram>
  <diagram id="u_OeUOqSiIc9DagaNESQ" name="Use Case Diagram">
    <mxGraphModel dx="1109" dy="513" grid="1" gridSize="10" guides="1" tooltips="1" connect="1" arrows="1" fold="1" page="1" pageScale="1" pageWidth="850" pageHeight="1100" math="0" shadow="0">
      <root>
        <mxCell id="0" />
        <mxCell id="1" parent="0" />
        <mxCell id="naI6WsAAOLW9NCz1p2gk-1" value="" style="whiteSpace=wrap;html=1;aspect=fixed;" parent="1" vertex="1">
          <mxGeometry x="149" y="30" width="710" height="710" as="geometry" />
        </mxCell>
        <mxCell id="naI6WsAAOLW9NCz1p2gk-2" style="edgeStyle=orthogonalEdgeStyle;rounded=0;orthogonalLoop=1;jettySize=auto;html=1;dashed=1;endArrow=none;endFill=0;" parent="1" source="wj2j1HgKZIcGVIcwKaOW-6" target="naI6WsAAOLW9NCz1p2gk-9" edge="1">
          <mxGeometry relative="1" as="geometry" />
        </mxCell>
        <mxCell id="naI6WsAAOLW9NCz1p2gk-3" value="Login" style="ellipse;whiteSpace=wrap;html=1;" parent="1" vertex="1">
          <mxGeometry x="434" y="90" width="120" height="80" as="geometry" />
        </mxCell>
        <mxCell id="wj2j1HgKZIcGVIcwKaOW-9" style="rounded=0;orthogonalLoop=1;jettySize=auto;html=1;entryX=0;entryY=0.5;entryDx=0;entryDy=0;" parent="1" source="naI6WsAAOLW9NCz1p2gk-4" target="wj2j1HgKZIcGVIcwKaOW-6" edge="1">
          <mxGeometry relative="1" as="geometry" />
        </mxCell>
        <mxCell id="naI6WsAAOLW9NCz1p2gk-4" value="Anggota" style="shape=umlActor;verticalLabelPosition=bottom;verticalAlign=top;html=1;outlineConnect=0;" parent="1" vertex="1">
          <mxGeometry x="40" y="300" width="30" height="60" as="geometry" />
        </mxCell>
        <mxCell id="wj2j1HgKZIcGVIcwKaOW-5" style="rounded=0;orthogonalLoop=1;jettySize=auto;html=1;entryX=1;entryY=0.5;entryDx=0;entryDy=0;" parent="1" source="naI6WsAAOLW9NCz1p2gk-5" target="naI6WsAAOLW9NCz1p2gk-16" edge="1">
          <mxGeometry relative="1" as="geometry" />
        </mxCell>
        <mxCell id="wj2j1HgKZIcGVIcwKaOW-11" style="rounded=0;orthogonalLoop=1;jettySize=auto;html=1;entryX=1;entryY=0.5;entryDx=0;entryDy=0;" parent="1" source="naI6WsAAOLW9NCz1p2gk-5" target="wj2j1HgKZIcGVIcwKaOW-6" edge="1">
          <mxGeometry relative="1" as="geometry" />
        </mxCell>
        <mxCell id="naI6WsAAOLW9NCz1p2gk-5" value="Librarian" style="shape=umlActor;verticalLabelPosition=bottom;verticalAlign=top;html=1;outlineConnect=0;" parent="1" vertex="1">
          <mxGeometry x="890" y="310" width="30" height="60" as="geometry" />
        </mxCell>
        <mxCell id="naI6WsAAOLW9NCz1p2gk-6" value="&lt;b&gt;&lt;font style=&quot;font-size: 20px;&quot;&gt;Library INDIVARA&lt;/font&gt;&lt;/b&gt;" style="text;html=1;strokeColor=none;fillColor=none;align=center;verticalAlign=middle;whiteSpace=wrap;rounded=0;" parent="1" vertex="1">
          <mxGeometry x="464" y="40" width="60" height="30" as="geometry" />
        </mxCell>
        <mxCell id="naI6WsAAOLW9NCz1p2gk-7" value="" style="endArrow=classic;html=1;rounded=0;" parent="1" source="naI6WsAAOLW9NCz1p2gk-5" target="naI6WsAAOLW9NCz1p2gk-3" edge="1">
          <mxGeometry width="50" height="50" relative="1" as="geometry">
            <mxPoint x="720" y="160" as="sourcePoint" />
            <mxPoint x="770" y="110" as="targetPoint" />
          </mxGeometry>
        </mxCell>
        <mxCell id="naI6WsAAOLW9NCz1p2gk-8" value="" style="endArrow=classic;html=1;rounded=0;exitX=0.75;exitY=0.1;exitDx=0;exitDy=0;exitPerimeter=0;" parent="1" source="naI6WsAAOLW9NCz1p2gk-4" target="naI6WsAAOLW9NCz1p2gk-3" edge="1">
          <mxGeometry width="50" height="50" relative="1" as="geometry">
            <mxPoint x="60" y="180" as="sourcePoint" />
            <mxPoint x="110" y="130" as="targetPoint" />
          </mxGeometry>
        </mxCell>
        <mxCell id="naI6WsAAOLW9NCz1p2gk-9" value="Logout" style="ellipse;whiteSpace=wrap;html=1;" parent="1" vertex="1">
          <mxGeometry x="434" y="610" width="120" height="80" as="geometry" />
        </mxCell>
        <mxCell id="naI6WsAAOLW9NCz1p2gk-10" value="&amp;lt;include&amp;gt;" style="text;html=1;align=center;verticalAlign=middle;resizable=0;points=[];autosize=1;strokeColor=none;fillColor=none;rotation=90;fontStyle=1;fontSize=13;" parent="1" vertex="1">
          <mxGeometry x="465" y="270" width="80" height="30" as="geometry" />
        </mxCell>
        <mxCell id="naI6WsAAOLW9NCz1p2gk-11" value="Borrow" style="ellipse;whiteSpace=wrap;html=1;" parent="1" vertex="1">
          <mxGeometry x="402" y="250" width="80" height="50" as="geometry" />
        </mxCell>
        <mxCell id="naI6WsAAOLW9NCz1p2gk-12" value="Return" style="ellipse;whiteSpace=wrap;html=1;" parent="1" vertex="1">
          <mxGeometry x="402" y="340" width="80" height="55" as="geometry" />
        </mxCell>
        <mxCell id="naI6WsAAOLW9NCz1p2gk-13" value="add book" style="ellipse;whiteSpace=wrap;html=1;" parent="1" vertex="1">
          <mxGeometry x="517" y="200" width="86" height="50" as="geometry" />
        </mxCell>
        <mxCell id="naI6WsAAOLW9NCz1p2gk-14" value="edit book" style="ellipse;whiteSpace=wrap;html=1;" parent="1" vertex="1">
          <mxGeometry x="517" y="290" width="86" height="50" as="geometry" />
        </mxCell>
        <mxCell id="naI6WsAAOLW9NCz1p2gk-15" value="delete" style="ellipse;whiteSpace=wrap;html=1;" parent="1" vertex="1">
          <mxGeometry x="517" y="369" width="86" height="50" as="geometry" />
        </mxCell>
        <mxCell id="naI6WsAAOLW9NCz1p2gk-17" value="" style="endArrow=classic;html=1;rounded=0;exitX=0.75;exitY=0.1;exitDx=0;exitDy=0;exitPerimeter=0;" parent="1" source="naI6WsAAOLW9NCz1p2gk-4" target="naI6WsAAOLW9NCz1p2gk-11" edge="1">
          <mxGeometry width="50" height="50" relative="1" as="geometry">
            <mxPoint x="73" y="216" as="sourcePoint" />
            <mxPoint x="366" y="161" as="targetPoint" />
          </mxGeometry>
        </mxCell>
        <mxCell id="naI6WsAAOLW9NCz1p2gk-18" value="" style="endArrow=classic;html=1;rounded=0;exitX=0.75;exitY=0.1;exitDx=0;exitDy=0;exitPerimeter=0;entryX=0;entryY=0.5;entryDx=0;entryDy=0;" parent="1" source="naI6WsAAOLW9NCz1p2gk-4" target="naI6WsAAOLW9NCz1p2gk-12" edge="1">
          <mxGeometry width="50" height="50" relative="1" as="geometry">
            <mxPoint x="83" y="226" as="sourcePoint" />
            <mxPoint x="235.2365019523777" y="273.8968920683217" as="targetPoint" />
          </mxGeometry>
        </mxCell>
        <mxCell id="naI6WsAAOLW9NCz1p2gk-19" value="" style="endArrow=classic;html=1;rounded=0;exitX=0.75;exitY=0.1;exitDx=0;exitDy=0;exitPerimeter=0;entryX=0;entryY=0.5;entryDx=0;entryDy=0;" parent="1" source="naI6WsAAOLW9NCz1p2gk-4" target="naI6WsAAOLW9NCz1p2gk-16" edge="1">
          <mxGeometry width="50" height="50" relative="1" as="geometry">
            <mxPoint x="73" y="216" as="sourcePoint" />
            <mxPoint x="340" y="288" as="targetPoint" />
          </mxGeometry>
        </mxCell>
        <mxCell id="naI6WsAAOLW9NCz1p2gk-20" value="" style="endArrow=classic;html=1;rounded=0;exitX=0.5;exitY=0.5;exitDx=0;exitDy=0;exitPerimeter=0;entryX=1;entryY=0.5;entryDx=0;entryDy=0;" parent="1" source="naI6WsAAOLW9NCz1p2gk-5" target="naI6WsAAOLW9NCz1p2gk-13" edge="1">
          <mxGeometry width="50" height="50" relative="1" as="geometry">
            <mxPoint x="740" y="217" as="sourcePoint" />
            <mxPoint x="481" y="162" as="targetPoint" />
          </mxGeometry>
        </mxCell>
        <mxCell id="naI6WsAAOLW9NCz1p2gk-21" value="" style="endArrow=classic;html=1;rounded=0;" parent="1" source="naI6WsAAOLW9NCz1p2gk-5" target="naI6WsAAOLW9NCz1p2gk-14" edge="1">
          <mxGeometry width="50" height="50" relative="1" as="geometry">
            <mxPoint x="750" y="227" as="sourcePoint" />
            <mxPoint x="491" y="172" as="targetPoint" />
          </mxGeometry>
        </mxCell>
        <mxCell id="naI6WsAAOLW9NCz1p2gk-22" value="" style="endArrow=classic;html=1;rounded=0;" parent="1" source="naI6WsAAOLW9NCz1p2gk-5" target="naI6WsAAOLW9NCz1p2gk-15" edge="1">
          <mxGeometry width="50" height="50" relative="1" as="geometry">
            <mxPoint x="760" y="237" as="sourcePoint" />
            <mxPoint x="501" y="182" as="targetPoint" />
          </mxGeometry>
        </mxCell>
        <mxCell id="naI6WsAAOLW9NCz1p2gk-25" value="" style="endArrow=classic;html=1;rounded=0;exitX=0.75;exitY=0.1;exitDx=0;exitDy=0;exitPerimeter=0;entryX=0;entryY=0.5;entryDx=0;entryDy=0;" parent="1" source="naI6WsAAOLW9NCz1p2gk-4" target="naI6WsAAOLW9NCz1p2gk-9" edge="1">
          <mxGeometry width="50" height="50" relative="1" as="geometry">
            <mxPoint x="70" y="390" as="sourcePoint" />
            <mxPoint x="120" y="340" as="targetPoint" />
          </mxGeometry>
        </mxCell>
        <mxCell id="naI6WsAAOLW9NCz1p2gk-26" value="" style="endArrow=classic;html=1;rounded=0;exitX=0.5;exitY=0.5;exitDx=0;exitDy=0;exitPerimeter=0;entryX=1;entryY=0.5;entryDx=0;entryDy=0;" parent="1" source="naI6WsAAOLW9NCz1p2gk-5" target="naI6WsAAOLW9NCz1p2gk-9" edge="1">
          <mxGeometry width="50" height="50" relative="1" as="geometry">
            <mxPoint x="780" y="380" as="sourcePoint" />
            <mxPoint x="830" y="330" as="targetPoint" />
          </mxGeometry>
        </mxCell>
        <mxCell id="wj2j1HgKZIcGVIcwKaOW-7" value="" style="edgeStyle=orthogonalEdgeStyle;rounded=0;orthogonalLoop=1;jettySize=auto;html=1;dashed=1;endArrow=none;endFill=0;" parent="1" source="naI6WsAAOLW9NCz1p2gk-3" target="naI6WsAAOLW9NCz1p2gk-16" edge="1">
          <mxGeometry relative="1" as="geometry">
            <mxPoint x="494" y="170" as="sourcePoint" />
            <mxPoint x="494" y="610" as="targetPoint" />
          </mxGeometry>
        </mxCell>
        <mxCell id="naI6WsAAOLW9NCz1p2gk-16" value="view book" style="ellipse;whiteSpace=wrap;html=1;" parent="1" vertex="1">
          <mxGeometry x="454" y="440" width="80" height="60" as="geometry" />
        </mxCell>
        <mxCell id="wj2j1HgKZIcGVIcwKaOW-8" value="" style="edgeStyle=orthogonalEdgeStyle;rounded=0;orthogonalLoop=1;jettySize=auto;html=1;dashed=1;endArrow=none;endFill=0;" parent="1" source="naI6WsAAOLW9NCz1p2gk-16" target="wj2j1HgKZIcGVIcwKaOW-6" edge="1">
          <mxGeometry relative="1" as="geometry">
            <mxPoint x="494" y="500" as="sourcePoint" />
            <mxPoint x="494" y="610" as="targetPoint" />
          </mxGeometry>
        </mxCell>
        <mxCell id="wj2j1HgKZIcGVIcwKaOW-6" value="transaction" style="ellipse;whiteSpace=wrap;html=1;" parent="1" vertex="1">
          <mxGeometry x="451" y="525" width="86" height="50" as="geometry" />
        </mxCell>
      </root>
    </mxGraphModel>
  </diagram>
</mxfile>
